<?xml version="1.0" encoding="utf-8" standalone="no"?>
<!DOCTYPE svg PUBLIC "-//W3C//DTD SVG 1.1//EN"
  "http://www.w3.org/Graphics/SVG/1.1/DTD/svg11.dtd">
<!-- Created with matplotlib (https://matplotlib.org/) -->
<svg height="360pt" version="1.1" viewBox="0 0 432 360" width="432pt" xmlns="http://www.w3.org/2000/svg" xmlns:xlink="http://www.w3.org/1999/xlink">
 <metadata>
  <rdf:RDF xmlns:cc="http://creativecommons.org/ns#" xmlns:dc="http://purl.org/dc/elements/1.1/" xmlns:rdf="http://www.w3.org/1999/02/22-rdf-syntax-ns#">
   <cc:Work>
    <dc:type rdf:resource="http://purl.org/dc/dcmitype/StillImage"/>
    <dc:date>2021-07-31T18:14:45.482676</dc:date>
    <dc:format>image/svg+xml</dc:format>
    <dc:creator>
     <cc:Agent>
      <dc:title>Matplotlib v3.3.2, https://matplotlib.org/</dc:title>
     </cc:Agent>
    </dc:creator>
   </cc:Work>
  </rdf:RDF>
 </metadata>
 <defs>
  <style type="text/css">*{stroke-linecap:butt;stroke-linejoin:round;}</style>
 </defs>
 <g id="figure_1">
  <g id="patch_1">
   <path d="M 0 360 
L 432 360 
L 432 0 
L 0 0 
z
" style="fill:#ffffff;"/>
  </g>
  <g id="axes_1">
   <g id="patch_2">
    <path d="M 46.375 332.12 
L 421.2 332.12 
L 421.2 26.16 
L 46.375 26.16 
z
" style="fill:#ffffff;"/>
   </g>
   <g id="matplotlib.axis_1">
    <g id="xtick_1">
     <g id="line2d_1">
      <defs>
       <path d="M 0 0 
L 0 3.5 
" id="ma9ad09a4f2" style="stroke:#000000;stroke-width:0.8;"/>
      </defs>
      <g>
       <use style="stroke:#000000;stroke-width:0.8;" x="46.375" xlink:href="#ma9ad09a4f2" y="332.12"/>
      </g>
     </g>
     <g id="text_1">
      <!-- 0.000 -->
      <g transform="translate(32.060938 346.718437)scale(0.1 -0.1)">
       <defs>
        <path d="M 31.78125 66.40625 
Q 24.171875 66.40625 20.328125 58.90625 
Q 16.5 51.421875 16.5 36.375 
Q 16.5 21.390625 20.328125 13.890625 
Q 24.171875 6.390625 31.78125 6.390625 
Q 39.453125 6.390625 43.28125 13.890625 
Q 47.125 21.390625 47.125 36.375 
Q 47.125 51.421875 43.28125 58.90625 
Q 39.453125 66.40625 31.78125 66.40625 
z
M 31.78125 74.21875 
Q 44.046875 74.21875 50.515625 64.515625 
Q 56.984375 54.828125 56.984375 36.375 
Q 56.984375 17.96875 50.515625 8.265625 
Q 44.046875 -1.421875 31.78125 -1.421875 
Q 19.53125 -1.421875 13.0625 8.265625 
Q 6.59375 17.96875 6.59375 36.375 
Q 6.59375 54.828125 13.0625 64.515625 
Q 19.53125 74.21875 31.78125 74.21875 
z
" id="DejaVuSans-48"/>
        <path d="M 10.6875 12.40625 
L 21 12.40625 
L 21 0 
L 10.6875 0 
z
" id="DejaVuSans-46"/>
       </defs>
       <use xlink:href="#DejaVuSans-48"/>
       <use x="63.623047" xlink:href="#DejaVuSans-46"/>
       <use x="95.410156" xlink:href="#DejaVuSans-48"/>
       <use x="159.033203" xlink:href="#DejaVuSans-48"/>
       <use x="222.65625" xlink:href="#DejaVuSans-48"/>
      </g>
     </g>
    </g>
    <g id="xtick_2">
     <g id="line2d_2">
      <g>
       <use style="stroke:#000000;stroke-width:0.8;" x="96.351667" xlink:href="#ma9ad09a4f2" y="332.12"/>
      </g>
     </g>
     <g id="text_2">
      <!-- 0.025 -->
      <g transform="translate(82.037604 346.718437)scale(0.1 -0.1)">
       <defs>
        <path d="M 19.1875 8.296875 
L 53.609375 8.296875 
L 53.609375 0 
L 7.328125 0 
L 7.328125 8.296875 
Q 12.9375 14.109375 22.625 23.890625 
Q 32.328125 33.6875 34.8125 36.53125 
Q 39.546875 41.84375 41.421875 45.53125 
Q 43.3125 49.21875 43.3125 52.78125 
Q 43.3125 58.59375 39.234375 62.25 
Q 35.15625 65.921875 28.609375 65.921875 
Q 23.96875 65.921875 18.8125 64.3125 
Q 13.671875 62.703125 7.8125 59.421875 
L 7.8125 69.390625 
Q 13.765625 71.78125 18.9375 73 
Q 24.125 74.21875 28.421875 74.21875 
Q 39.75 74.21875 46.484375 68.546875 
Q 53.21875 62.890625 53.21875 53.421875 
Q 53.21875 48.921875 51.53125 44.890625 
Q 49.859375 40.875 45.40625 35.40625 
Q 44.1875 33.984375 37.640625 27.21875 
Q 31.109375 20.453125 19.1875 8.296875 
z
" id="DejaVuSans-50"/>
        <path d="M 10.796875 72.90625 
L 49.515625 72.90625 
L 49.515625 64.59375 
L 19.828125 64.59375 
L 19.828125 46.734375 
Q 21.96875 47.46875 24.109375 47.828125 
Q 26.265625 48.1875 28.421875 48.1875 
Q 40.625 48.1875 47.75 41.5 
Q 54.890625 34.8125 54.890625 23.390625 
Q 54.890625 11.625 47.5625 5.09375 
Q 40.234375 -1.421875 26.90625 -1.421875 
Q 22.3125 -1.421875 17.546875 -0.640625 
Q 12.796875 0.140625 7.71875 1.703125 
L 7.71875 11.625 
Q 12.109375 9.234375 16.796875 8.0625 
Q 21.484375 6.890625 26.703125 6.890625 
Q 35.15625 6.890625 40.078125 11.328125 
Q 45.015625 15.765625 45.015625 23.390625 
Q 45.015625 31 40.078125 35.4375 
Q 35.15625 39.890625 26.703125 39.890625 
Q 22.75 39.890625 18.8125 39.015625 
Q 14.890625 38.140625 10.796875 36.28125 
z
" id="DejaVuSans-53"/>
       </defs>
       <use xlink:href="#DejaVuSans-48"/>
       <use x="63.623047" xlink:href="#DejaVuSans-46"/>
       <use x="95.410156" xlink:href="#DejaVuSans-48"/>
       <use x="159.033203" xlink:href="#DejaVuSans-50"/>
       <use x="222.65625" xlink:href="#DejaVuSans-53"/>
      </g>
     </g>
    </g>
    <g id="xtick_3">
     <g id="line2d_3">
      <g>
       <use style="stroke:#000000;stroke-width:0.8;" x="146.328333" xlink:href="#ma9ad09a4f2" y="332.12"/>
      </g>
     </g>
     <g id="text_3">
      <!-- 0.050 -->
      <g transform="translate(132.014271 346.718437)scale(0.1 -0.1)">
       <use xlink:href="#DejaVuSans-48"/>
       <use x="63.623047" xlink:href="#DejaVuSans-46"/>
       <use x="95.410156" xlink:href="#DejaVuSans-48"/>
       <use x="159.033203" xlink:href="#DejaVuSans-53"/>
       <use x="222.65625" xlink:href="#DejaVuSans-48"/>
      </g>
     </g>
    </g>
    <g id="xtick_4">
     <g id="line2d_4">
      <g>
       <use style="stroke:#000000;stroke-width:0.8;" x="196.305" xlink:href="#ma9ad09a4f2" y="332.12"/>
      </g>
     </g>
     <g id="text_4">
      <!-- 0.075 -->
      <g transform="translate(181.990938 346.718437)scale(0.1 -0.1)">
       <defs>
        <path d="M 8.203125 72.90625 
L 55.078125 72.90625 
L 55.078125 68.703125 
L 28.609375 0 
L 18.3125 0 
L 43.21875 64.59375 
L 8.203125 64.59375 
z
" id="DejaVuSans-55"/>
       </defs>
       <use xlink:href="#DejaVuSans-48"/>
       <use x="63.623047" xlink:href="#DejaVuSans-46"/>
       <use x="95.410156" xlink:href="#DejaVuSans-48"/>
       <use x="159.033203" xlink:href="#DejaVuSans-55"/>
       <use x="222.65625" xlink:href="#DejaVuSans-53"/>
      </g>
     </g>
    </g>
    <g id="xtick_5">
     <g id="line2d_5">
      <g>
       <use style="stroke:#000000;stroke-width:0.8;" x="246.281667" xlink:href="#ma9ad09a4f2" y="332.12"/>
      </g>
     </g>
     <g id="text_5">
      <!-- 0.100 -->
      <g transform="translate(231.967604 346.718437)scale(0.1 -0.1)">
       <defs>
        <path d="M 12.40625 8.296875 
L 28.515625 8.296875 
L 28.515625 63.921875 
L 10.984375 60.40625 
L 10.984375 69.390625 
L 28.421875 72.90625 
L 38.28125 72.90625 
L 38.28125 8.296875 
L 54.390625 8.296875 
L 54.390625 0 
L 12.40625 0 
z
" id="DejaVuSans-49"/>
       </defs>
       <use xlink:href="#DejaVuSans-48"/>
       <use x="63.623047" xlink:href="#DejaVuSans-46"/>
       <use x="95.410156" xlink:href="#DejaVuSans-49"/>
       <use x="159.033203" xlink:href="#DejaVuSans-48"/>
       <use x="222.65625" xlink:href="#DejaVuSans-48"/>
      </g>
     </g>
    </g>
    <g id="xtick_6">
     <g id="line2d_6">
      <g>
       <use style="stroke:#000000;stroke-width:0.8;" x="296.258333" xlink:href="#ma9ad09a4f2" y="332.12"/>
      </g>
     </g>
     <g id="text_6">
      <!-- 0.125 -->
      <g transform="translate(281.944271 346.718437)scale(0.1 -0.1)">
       <use xlink:href="#DejaVuSans-48"/>
       <use x="63.623047" xlink:href="#DejaVuSans-46"/>
       <use x="95.410156" xlink:href="#DejaVuSans-49"/>
       <use x="159.033203" xlink:href="#DejaVuSans-50"/>
       <use x="222.65625" xlink:href="#DejaVuSans-53"/>
      </g>
     </g>
    </g>
    <g id="xtick_7">
     <g id="line2d_7">
      <g>
       <use style="stroke:#000000;stroke-width:0.8;" x="346.235" xlink:href="#ma9ad09a4f2" y="332.12"/>
      </g>
     </g>
     <g id="text_7">
      <!-- 0.150 -->
      <g transform="translate(331.920938 346.718437)scale(0.1 -0.1)">
       <use xlink:href="#DejaVuSans-48"/>
       <use x="63.623047" xlink:href="#DejaVuSans-46"/>
       <use x="95.410156" xlink:href="#DejaVuSans-49"/>
       <use x="159.033203" xlink:href="#DejaVuSans-53"/>
       <use x="222.65625" xlink:href="#DejaVuSans-48"/>
      </g>
     </g>
    </g>
    <g id="xtick_8">
     <g id="line2d_8">
      <g>
       <use style="stroke:#000000;stroke-width:0.8;" x="396.211667" xlink:href="#ma9ad09a4f2" y="332.12"/>
      </g>
     </g>
     <g id="text_8">
      <!-- 0.175 -->
      <g transform="translate(381.897604 346.718437)scale(0.1 -0.1)">
       <use xlink:href="#DejaVuSans-48"/>
       <use x="63.623047" xlink:href="#DejaVuSans-46"/>
       <use x="95.410156" xlink:href="#DejaVuSans-49"/>
       <use x="159.033203" xlink:href="#DejaVuSans-55"/>
       <use x="222.65625" xlink:href="#DejaVuSans-53"/>
      </g>
     </g>
    </g>
   </g>
   <g id="matplotlib.axis_2">
    <g id="ytick_1">
     <g id="line2d_9">
      <defs>
       <path d="M 0 0 
L -3.5 0 
" id="m89e0d34099" style="stroke:#000000;stroke-width:0.8;"/>
      </defs>
      <g>
       <use style="stroke:#000000;stroke-width:0.8;" x="46.375" xlink:href="#m89e0d34099" y="305.894857"/>
      </g>
     </g>
     <g id="text_9">
      <!-- 0.800 -->
      <g transform="translate(10.746875 309.694076)scale(0.1 -0.1)">
       <defs>
        <path d="M 31.78125 34.625 
Q 24.75 34.625 20.71875 30.859375 
Q 16.703125 27.09375 16.703125 20.515625 
Q 16.703125 13.921875 20.71875 10.15625 
Q 24.75 6.390625 31.78125 6.390625 
Q 38.8125 6.390625 42.859375 10.171875 
Q 46.921875 13.96875 46.921875 20.515625 
Q 46.921875 27.09375 42.890625 30.859375 
Q 38.875 34.625 31.78125 34.625 
z
M 21.921875 38.8125 
Q 15.578125 40.375 12.03125 44.71875 
Q 8.5 49.078125 8.5 55.328125 
Q 8.5 64.0625 14.71875 69.140625 
Q 20.953125 74.21875 31.78125 74.21875 
Q 42.671875 74.21875 48.875 69.140625 
Q 55.078125 64.0625 55.078125 55.328125 
Q 55.078125 49.078125 51.53125 44.71875 
Q 48 40.375 41.703125 38.8125 
Q 48.828125 37.15625 52.796875 32.3125 
Q 56.78125 27.484375 56.78125 20.515625 
Q 56.78125 9.90625 50.3125 4.234375 
Q 43.84375 -1.421875 31.78125 -1.421875 
Q 19.734375 -1.421875 13.25 4.234375 
Q 6.78125 9.90625 6.78125 20.515625 
Q 6.78125 27.484375 10.78125 32.3125 
Q 14.796875 37.15625 21.921875 38.8125 
z
M 18.3125 54.390625 
Q 18.3125 48.734375 21.84375 45.5625 
Q 25.390625 42.390625 31.78125 42.390625 
Q 38.140625 42.390625 41.71875 45.5625 
Q 45.3125 48.734375 45.3125 54.390625 
Q 45.3125 60.0625 41.71875 63.234375 
Q 38.140625 66.40625 31.78125 66.40625 
Q 25.390625 66.40625 21.84375 63.234375 
Q 18.3125 60.0625 18.3125 54.390625 
z
" id="DejaVuSans-56"/>
       </defs>
       <use xlink:href="#DejaVuSans-48"/>
       <use x="63.623047" xlink:href="#DejaVuSans-46"/>
       <use x="95.410156" xlink:href="#DejaVuSans-56"/>
       <use x="159.033203" xlink:href="#DejaVuSans-48"/>
       <use x="222.65625" xlink:href="#DejaVuSans-48"/>
      </g>
     </g>
    </g>
    <g id="ytick_2">
     <g id="line2d_10">
      <g>
       <use style="stroke:#000000;stroke-width:0.8;" x="46.375" xlink:href="#m89e0d34099" y="270.928"/>
      </g>
     </g>
     <g id="text_10">
      <!-- 0.825 -->
      <g transform="translate(10.746875 274.727219)scale(0.1 -0.1)">
       <use xlink:href="#DejaVuSans-48"/>
       <use x="63.623047" xlink:href="#DejaVuSans-46"/>
       <use x="95.410156" xlink:href="#DejaVuSans-56"/>
       <use x="159.033203" xlink:href="#DejaVuSans-50"/>
       <use x="222.65625" xlink:href="#DejaVuSans-53"/>
      </g>
     </g>
    </g>
    <g id="ytick_3">
     <g id="line2d_11">
      <g>
       <use style="stroke:#000000;stroke-width:0.8;" x="46.375" xlink:href="#m89e0d34099" y="235.961143"/>
      </g>
     </g>
     <g id="text_11">
      <!-- 0.850 -->
      <g transform="translate(10.746875 239.760362)scale(0.1 -0.1)">
       <use xlink:href="#DejaVuSans-48"/>
       <use x="63.623047" xlink:href="#DejaVuSans-46"/>
       <use x="95.410156" xlink:href="#DejaVuSans-56"/>
       <use x="159.033203" xlink:href="#DejaVuSans-53"/>
       <use x="222.65625" xlink:href="#DejaVuSans-48"/>
      </g>
     </g>
    </g>
    <g id="ytick_4">
     <g id="line2d_12">
      <g>
       <use style="stroke:#000000;stroke-width:0.8;" x="46.375" xlink:href="#m89e0d34099" y="200.994286"/>
      </g>
     </g>
     <g id="text_12">
      <!-- 0.875 -->
      <g transform="translate(10.746875 204.793504)scale(0.1 -0.1)">
       <use xlink:href="#DejaVuSans-48"/>
       <use x="63.623047" xlink:href="#DejaVuSans-46"/>
       <use x="95.410156" xlink:href="#DejaVuSans-56"/>
       <use x="159.033203" xlink:href="#DejaVuSans-55"/>
       <use x="222.65625" xlink:href="#DejaVuSans-53"/>
      </g>
     </g>
    </g>
    <g id="ytick_5">
     <g id="line2d_13">
      <g>
       <use style="stroke:#000000;stroke-width:0.8;" x="46.375" xlink:href="#m89e0d34099" y="166.027429"/>
      </g>
     </g>
     <g id="text_13">
      <!-- 0.900 -->
      <g transform="translate(10.746875 169.826647)scale(0.1 -0.1)">
       <defs>
        <path d="M 10.984375 1.515625 
L 10.984375 10.5 
Q 14.703125 8.734375 18.5 7.8125 
Q 22.3125 6.890625 25.984375 6.890625 
Q 35.75 6.890625 40.890625 13.453125 
Q 46.046875 20.015625 46.78125 33.40625 
Q 43.953125 29.203125 39.59375 26.953125 
Q 35.25 24.703125 29.984375 24.703125 
Q 19.046875 24.703125 12.671875 31.3125 
Q 6.296875 37.9375 6.296875 49.421875 
Q 6.296875 60.640625 12.9375 67.421875 
Q 19.578125 74.21875 30.609375 74.21875 
Q 43.265625 74.21875 49.921875 64.515625 
Q 56.59375 54.828125 56.59375 36.375 
Q 56.59375 19.140625 48.40625 8.859375 
Q 40.234375 -1.421875 26.421875 -1.421875 
Q 22.703125 -1.421875 18.890625 -0.6875 
Q 15.09375 0.046875 10.984375 1.515625 
z
M 30.609375 32.421875 
Q 37.25 32.421875 41.125 36.953125 
Q 45.015625 41.5 45.015625 49.421875 
Q 45.015625 57.28125 41.125 61.84375 
Q 37.25 66.40625 30.609375 66.40625 
Q 23.96875 66.40625 20.09375 61.84375 
Q 16.21875 57.28125 16.21875 49.421875 
Q 16.21875 41.5 20.09375 36.953125 
Q 23.96875 32.421875 30.609375 32.421875 
z
" id="DejaVuSans-57"/>
       </defs>
       <use xlink:href="#DejaVuSans-48"/>
       <use x="63.623047" xlink:href="#DejaVuSans-46"/>
       <use x="95.410156" xlink:href="#DejaVuSans-57"/>
       <use x="159.033203" xlink:href="#DejaVuSans-48"/>
       <use x="222.65625" xlink:href="#DejaVuSans-48"/>
      </g>
     </g>
    </g>
    <g id="ytick_6">
     <g id="line2d_14">
      <g>
       <use style="stroke:#000000;stroke-width:0.8;" x="46.375" xlink:href="#m89e0d34099" y="131.060571"/>
      </g>
     </g>
     <g id="text_14">
      <!-- 0.925 -->
      <g transform="translate(10.746875 134.85979)scale(0.1 -0.1)">
       <use xlink:href="#DejaVuSans-48"/>
       <use x="63.623047" xlink:href="#DejaVuSans-46"/>
       <use x="95.410156" xlink:href="#DejaVuSans-57"/>
       <use x="159.033203" xlink:href="#DejaVuSans-50"/>
       <use x="222.65625" xlink:href="#DejaVuSans-53"/>
      </g>
     </g>
    </g>
    <g id="ytick_7">
     <g id="line2d_15">
      <g>
       <use style="stroke:#000000;stroke-width:0.8;" x="46.375" xlink:href="#m89e0d34099" y="96.093714"/>
      </g>
     </g>
     <g id="text_15">
      <!-- 0.950 -->
      <g transform="translate(10.746875 99.892933)scale(0.1 -0.1)">
       <use xlink:href="#DejaVuSans-48"/>
       <use x="63.623047" xlink:href="#DejaVuSans-46"/>
       <use x="95.410156" xlink:href="#DejaVuSans-57"/>
       <use x="159.033203" xlink:href="#DejaVuSans-53"/>
       <use x="222.65625" xlink:href="#DejaVuSans-48"/>
      </g>
     </g>
    </g>
    <g id="ytick_8">
     <g id="line2d_16">
      <g>
       <use style="stroke:#000000;stroke-width:0.8;" x="46.375" xlink:href="#m89e0d34099" y="61.126857"/>
      </g>
     </g>
     <g id="text_16">
      <!-- 0.975 -->
      <g transform="translate(10.746875 64.926076)scale(0.1 -0.1)">
       <use xlink:href="#DejaVuSans-48"/>
       <use x="63.623047" xlink:href="#DejaVuSans-46"/>
       <use x="95.410156" xlink:href="#DejaVuSans-57"/>
       <use x="159.033203" xlink:href="#DejaVuSans-55"/>
       <use x="222.65625" xlink:href="#DejaVuSans-53"/>
      </g>
     </g>
    </g>
    <g id="ytick_9">
     <g id="line2d_17">
      <g>
       <use style="stroke:#000000;stroke-width:0.8;" x="46.375" xlink:href="#m89e0d34099" y="26.16"/>
      </g>
     </g>
     <g id="text_17">
      <!-- 1.000 -->
      <g transform="translate(10.746875 29.959219)scale(0.1 -0.1)">
       <use xlink:href="#DejaVuSans-49"/>
       <use x="63.623047" xlink:href="#DejaVuSans-46"/>
       <use x="95.410156" xlink:href="#DejaVuSans-48"/>
       <use x="159.033203" xlink:href="#DejaVuSans-48"/>
       <use x="222.65625" xlink:href="#DejaVuSans-48"/>
      </g>
     </g>
    </g>
   </g>
   <g id="LineCollection_1">
    <path clip-path="url(#p4da3db9535)" d="M 46.375 26.16 
L 46.375 26.16 
" style="fill:none;stroke:#90ee90;stroke-width:2;"/>
    <path clip-path="url(#p4da3db9535)" d="M 77.610417 48.014286 
L 77.610417 48.014286 
" style="fill:none;stroke:#90ee90;stroke-width:2;"/>
    <path clip-path="url(#p4da3db9535)" d="M 108.845833 69.868571 
L 108.845833 69.868571 
" style="fill:none;stroke:#90ee90;stroke-width:2;"/>
    <path clip-path="url(#p4da3db9535)" d="M 140.08125 96.870921 
L 140.08125 88.305826 
" style="fill:none;stroke:#90ee90;stroke-width:2;"/>
    <path clip-path="url(#p4da3db9535)" d="M 171.316667 120.065523 
L 171.316667 109.685312 
" style="fill:none;stroke:#90ee90;stroke-width:2;"/>
    <path clip-path="url(#p4da3db9535)" d="M 202.552083 141.919808 
L 202.552083 131.539598 
" style="fill:none;stroke:#90ee90;stroke-width:2;"/>
    <path clip-path="url(#p4da3db9535)" d="M 233.7875 164.376424 
L 233.7875 153.224312 
" style="fill:none;stroke:#90ee90;stroke-width:2;"/>
    <path clip-path="url(#p4da3db9535)" d="M 265.022917 185.62838 
L 265.022917 175.248169 
" style="fill:none;stroke:#90ee90;stroke-width:2;"/>
    <path clip-path="url(#p4da3db9535)" d="M 296.258333 209.411444 
L 296.258333 196.039192 
" style="fill:none;stroke:#90ee90;stroke-width:2;"/>
    <path clip-path="url(#p4da3db9535)" d="M 327.49375 231.26573 
L 327.49375 217.893478 
" style="fill:none;stroke:#90ee90;stroke-width:2;"/>
    <path clip-path="url(#p4da3db9535)" d="M 358.729167 254.114894 
L 358.729167 239.618401 
" style="fill:none;stroke:#90ee90;stroke-width:2;"/>
    <path clip-path="url(#p4da3db9535)" d="M 389.964583 275.96918 
L 389.964583 261.472687 
" style="fill:none;stroke:#90ee90;stroke-width:2;"/>
    <path clip-path="url(#p4da3db9535)" d="M 421.2 298.29561 
L 421.2 283.287586 
" style="fill:none;stroke:#90ee90;stroke-width:2;"/>
   </g>
   <g id="LineCollection_2">
    <path clip-path="url(#p4da3db9535)" d="M 46.375 26.16 
L 46.375 26.16 
" style="fill:none;stroke:#87ceeb;stroke-width:2;"/>
    <path clip-path="url(#p4da3db9535)" d="M 77.610417 69.868571 
L 77.610417 69.868571 
" style="fill:none;stroke:#87ceeb;stroke-width:2;"/>
    <path clip-path="url(#p4da3db9535)" d="M 108.845833 113.577143 
L 108.845833 113.577143 
" style="fill:none;stroke:#87ceeb;stroke-width:2;"/>
    <path clip-path="url(#p4da3db9535)" d="M 140.08125 135.431429 
L 140.08125 135.431429 
" style="fill:none;stroke:#87ceeb;stroke-width:2;"/>
    <path clip-path="url(#p4da3db9535)" d="M 171.316667 157.285714 
L 171.316667 157.285714 
" style="fill:none;stroke:#87ceeb;stroke-width:2;"/>
    <path clip-path="url(#p4da3db9535)" d="M 202.552083 179.14 
L 202.552083 179.14 
" style="fill:none;stroke:#87ceeb;stroke-width:2;"/>
    <path clip-path="url(#p4da3db9535)" d="M 233.7875 200.994286 
L 233.7875 200.994286 
" style="fill:none;stroke:#87ceeb;stroke-width:2;"/>
    <path clip-path="url(#p4da3db9535)" d="M 265.022917 222.848571 
L 265.022917 222.848571 
" style="fill:none;stroke:#87ceeb;stroke-width:2;"/>
    <path clip-path="url(#p4da3db9535)" d="M 296.258333 244.702857 
L 296.258333 244.702857 
" style="fill:none;stroke:#87ceeb;stroke-width:2;"/>
    <path clip-path="url(#p4da3db9535)" d="M 327.49375 266.557143 
L 327.49375 266.557143 
" style="fill:none;stroke:#87ceeb;stroke-width:2;"/>
    <path clip-path="url(#p4da3db9535)" d="M 358.729167 288.411429 
L 358.729167 288.411429 
" style="fill:none;stroke:#87ceeb;stroke-width:2;"/>
    <path clip-path="url(#p4da3db9535)" d="M 389.964583 310.265714 
L 389.964583 310.265714 
" style="fill:none;stroke:#87ceeb;stroke-width:2;"/>
    <path clip-path="url(#p4da3db9535)" d="M 421.2 332.12 
L 421.2 332.12 
" style="fill:none;stroke:#87ceeb;stroke-width:2;"/>
   </g>
   <g id="LineCollection_3">
    <path clip-path="url(#p4da3db9535)" d="M 46.375 26.16 
L 46.375 26.16 
" style="fill:none;stroke:#f08080;"/>
    <path clip-path="url(#p4da3db9535)" d="M 77.610417 56.734362 
L 77.610417 43.621791 
" style="fill:none;stroke:#f08080;"/>
    <path clip-path="url(#p4da3db9535)" d="M 108.845833 80.917798 
L 108.845833 65.310717 
" style="fill:none;stroke:#f08080;"/>
    <path clip-path="url(#p4da3db9535)" d="M 140.08125 104.407515 
L 140.08125 87.260603 
" style="fill:none;stroke:#f08080;"/>
    <path clip-path="url(#p4da3db9535)" d="M 171.316667 132.17147 
L 171.316667 109.696592 
" style="fill:none;stroke:#f08080;"/>
    <path clip-path="url(#p4da3db9535)" d="M 202.552083 155.126813 
L 202.552083 132.180853 
" style="fill:none;stroke:#f08080;"/>
    <path clip-path="url(#p4da3db9535)" d="M 233.7875 181.398111 
L 233.7875 154.811225 
" style="fill:none;stroke:#f08080;"/>
    <path clip-path="url(#p4da3db9535)" d="M 265.022917 208.463564 
L 265.022917 177.945715 
" style="fill:none;stroke:#f08080;"/>
    <path clip-path="url(#p4da3db9535)" d="M 296.258333 235.232868 
L 296.258333 201.376354 
" style="fill:none;stroke:#f08080;"/>
    <path clip-path="url(#p4da3db9535)" d="M 327.49375 264.212949 
L 327.49375 229.520346 
" style="fill:none;stroke:#f08080;"/>
    <path clip-path="url(#p4da3db9535)" d="M 358.729167 289.820868 
L 358.729167 256.70892 
" style="fill:none;stroke:#f08080;"/>
    <path clip-path="url(#p4da3db9535)" d="M 389.964583 315.724525 
L 389.964583 289.227611 
" style="fill:none;stroke:#f08080;"/>
    <path clip-path="url(#p4da3db9535)" d="M 421.2 332.12 
L 421.2 332.12 
" style="fill:none;stroke:#f08080;"/>
   </g>
   <g id="line2d_18">
    <path clip-path="url(#p4da3db9535)" d="M 46.375 26.16 
L 421.2 288.411429 
" style="fill:none;stroke:#000000;stroke-dasharray:3.7,1.6;stroke-dashoffset:0;"/>
   </g>
   <g id="line2d_19">
    <path clip-path="url(#p4da3db9535)" d="M 46.375 26.16 
L 77.610417 48.014286 
L 108.845833 69.868571 
L 140.08125 92.588373 
L 171.316667 114.875417 
L 202.552083 136.729703 
L 233.7875 158.800368 
L 265.022917 180.438274 
L 296.258333 202.725318 
L 327.49375 224.579604 
L 358.729167 246.866648 
L 389.964583 268.720934 
L 421.2 290.791598 
" style="fill:none;stroke:#32cd32;stroke-linecap:square;stroke-width:2;"/>
   </g>
   <g id="line2d_20">
    <path clip-path="url(#p4da3db9535)" d="M 46.375 26.16 
L 77.610417 69.868571 
L 108.845833 113.577143 
L 140.08125 135.431429 
L 171.316667 157.285714 
L 202.552083 179.14 
L 233.7875 200.994286 
L 265.022917 222.848571 
L 296.258333 244.702857 
L 327.49375 266.557143 
L 358.729167 288.411429 
L 389.964583 310.265714 
L 421.2 332.12 
" style="fill:none;stroke:#0000ff;stroke-linecap:square;stroke-width:2;"/>
   </g>
   <g id="line2d_21">
    <path clip-path="url(#p4da3db9535)" d="M 46.375 26.16 
L 77.610417 50.178076 
L 108.845833 73.114257 
L 140.08125 95.834059 
L 171.316667 120.934031 
L 202.552083 143.653833 
L 233.7875 168.104668 
L 265.022917 193.204639 
L 296.258333 218.304611 
L 327.49375 246.866648 
L 358.729167 273.264894 
L 389.964583 302.476068 
L 421.2 332.12 
" style="fill:none;stroke:#ff0000;stroke-linecap:square;stroke-width:2;"/>
   </g>
   <g id="patch_3">
    <path d="M 46.375 332.12 
L 46.375 26.16 
" style="fill:none;stroke:#000000;stroke-linecap:square;stroke-linejoin:miter;stroke-width:0.8;"/>
   </g>
   <g id="patch_4">
    <path d="M 421.2 332.12 
L 421.2 26.16 
" style="fill:none;stroke:#000000;stroke-linecap:square;stroke-linejoin:miter;stroke-width:0.8;"/>
   </g>
   <g id="patch_5">
    <path d="M 46.375 332.12 
L 421.2 332.12 
" style="fill:none;stroke:#000000;stroke-linecap:square;stroke-linejoin:miter;stroke-width:0.8;"/>
   </g>
   <g id="patch_6">
    <path d="M 46.375 26.16 
L 421.2 26.16 
" style="fill:none;stroke:#000000;stroke-linecap:square;stroke-linejoin:miter;stroke-width:0.8;"/>
   </g>
   <g id="text_18">
    <!-- Circadian Clock -->
    <g transform="translate(187.46 20.16)scale(0.12 -0.12)">
     <defs>
      <path d="M 64.40625 67.28125 
L 64.40625 56.890625 
Q 59.421875 61.53125 53.78125 63.8125 
Q 48.140625 66.109375 41.796875 66.109375 
Q 29.296875 66.109375 22.65625 58.46875 
Q 16.015625 50.828125 16.015625 36.375 
Q 16.015625 21.96875 22.65625 14.328125 
Q 29.296875 6.6875 41.796875 6.6875 
Q 48.140625 6.6875 53.78125 8.984375 
Q 59.421875 11.28125 64.40625 15.921875 
L 64.40625 5.609375 
Q 59.234375 2.09375 53.4375 0.328125 
Q 47.65625 -1.421875 41.21875 -1.421875 
Q 24.65625 -1.421875 15.125 8.703125 
Q 5.609375 18.84375 5.609375 36.375 
Q 5.609375 53.953125 15.125 64.078125 
Q 24.65625 74.21875 41.21875 74.21875 
Q 47.75 74.21875 53.53125 72.484375 
Q 59.328125 70.75 64.40625 67.28125 
z
" id="DejaVuSans-67"/>
      <path d="M 9.421875 54.6875 
L 18.40625 54.6875 
L 18.40625 0 
L 9.421875 0 
z
M 9.421875 75.984375 
L 18.40625 75.984375 
L 18.40625 64.59375 
L 9.421875 64.59375 
z
" id="DejaVuSans-105"/>
      <path d="M 41.109375 46.296875 
Q 39.59375 47.171875 37.8125 47.578125 
Q 36.03125 48 33.890625 48 
Q 26.265625 48 22.1875 43.046875 
Q 18.109375 38.09375 18.109375 28.8125 
L 18.109375 0 
L 9.078125 0 
L 9.078125 54.6875 
L 18.109375 54.6875 
L 18.109375 46.1875 
Q 20.953125 51.171875 25.484375 53.578125 
Q 30.03125 56 36.53125 56 
Q 37.453125 56 38.578125 55.875 
Q 39.703125 55.765625 41.0625 55.515625 
z
" id="DejaVuSans-114"/>
      <path d="M 48.78125 52.59375 
L 48.78125 44.1875 
Q 44.96875 46.296875 41.140625 47.34375 
Q 37.3125 48.390625 33.40625 48.390625 
Q 24.65625 48.390625 19.8125 42.84375 
Q 14.984375 37.3125 14.984375 27.296875 
Q 14.984375 17.28125 19.8125 11.734375 
Q 24.65625 6.203125 33.40625 6.203125 
Q 37.3125 6.203125 41.140625 7.25 
Q 44.96875 8.296875 48.78125 10.40625 
L 48.78125 2.09375 
Q 45.015625 0.34375 40.984375 -0.53125 
Q 36.96875 -1.421875 32.421875 -1.421875 
Q 20.0625 -1.421875 12.78125 6.34375 
Q 5.515625 14.109375 5.515625 27.296875 
Q 5.515625 40.671875 12.859375 48.328125 
Q 20.21875 56 33.015625 56 
Q 37.15625 56 41.109375 55.140625 
Q 45.0625 54.296875 48.78125 52.59375 
z
" id="DejaVuSans-99"/>
      <path d="M 34.28125 27.484375 
Q 23.390625 27.484375 19.1875 25 
Q 14.984375 22.515625 14.984375 16.5 
Q 14.984375 11.71875 18.140625 8.90625 
Q 21.296875 6.109375 26.703125 6.109375 
Q 34.1875 6.109375 38.703125 11.40625 
Q 43.21875 16.703125 43.21875 25.484375 
L 43.21875 27.484375 
z
M 52.203125 31.203125 
L 52.203125 0 
L 43.21875 0 
L 43.21875 8.296875 
Q 40.140625 3.328125 35.546875 0.953125 
Q 30.953125 -1.421875 24.3125 -1.421875 
Q 15.921875 -1.421875 10.953125 3.296875 
Q 6 8.015625 6 15.921875 
Q 6 25.140625 12.171875 29.828125 
Q 18.359375 34.515625 30.609375 34.515625 
L 43.21875 34.515625 
L 43.21875 35.40625 
Q 43.21875 41.609375 39.140625 45 
Q 35.0625 48.390625 27.6875 48.390625 
Q 23 48.390625 18.546875 47.265625 
Q 14.109375 46.140625 10.015625 43.890625 
L 10.015625 52.203125 
Q 14.9375 54.109375 19.578125 55.046875 
Q 24.21875 56 28.609375 56 
Q 40.484375 56 46.34375 49.84375 
Q 52.203125 43.703125 52.203125 31.203125 
z
" id="DejaVuSans-97"/>
      <path d="M 45.40625 46.390625 
L 45.40625 75.984375 
L 54.390625 75.984375 
L 54.390625 0 
L 45.40625 0 
L 45.40625 8.203125 
Q 42.578125 3.328125 38.25 0.953125 
Q 33.9375 -1.421875 27.875 -1.421875 
Q 17.96875 -1.421875 11.734375 6.484375 
Q 5.515625 14.40625 5.515625 27.296875 
Q 5.515625 40.1875 11.734375 48.09375 
Q 17.96875 56 27.875 56 
Q 33.9375 56 38.25 53.625 
Q 42.578125 51.265625 45.40625 46.390625 
z
M 14.796875 27.296875 
Q 14.796875 17.390625 18.875 11.75 
Q 22.953125 6.109375 30.078125 6.109375 
Q 37.203125 6.109375 41.296875 11.75 
Q 45.40625 17.390625 45.40625 27.296875 
Q 45.40625 37.203125 41.296875 42.84375 
Q 37.203125 48.484375 30.078125 48.484375 
Q 22.953125 48.484375 18.875 42.84375 
Q 14.796875 37.203125 14.796875 27.296875 
z
" id="DejaVuSans-100"/>
      <path d="M 54.890625 33.015625 
L 54.890625 0 
L 45.90625 0 
L 45.90625 32.71875 
Q 45.90625 40.484375 42.875 44.328125 
Q 39.84375 48.1875 33.796875 48.1875 
Q 26.515625 48.1875 22.3125 43.546875 
Q 18.109375 38.921875 18.109375 30.90625 
L 18.109375 0 
L 9.078125 0 
L 9.078125 54.6875 
L 18.109375 54.6875 
L 18.109375 46.1875 
Q 21.34375 51.125 25.703125 53.5625 
Q 30.078125 56 35.796875 56 
Q 45.21875 56 50.046875 50.171875 
Q 54.890625 44.34375 54.890625 33.015625 
z
" id="DejaVuSans-110"/>
      <path id="DejaVuSans-32"/>
      <path d="M 9.421875 75.984375 
L 18.40625 75.984375 
L 18.40625 0 
L 9.421875 0 
z
" id="DejaVuSans-108"/>
      <path d="M 30.609375 48.390625 
Q 23.390625 48.390625 19.1875 42.75 
Q 14.984375 37.109375 14.984375 27.296875 
Q 14.984375 17.484375 19.15625 11.84375 
Q 23.34375 6.203125 30.609375 6.203125 
Q 37.796875 6.203125 41.984375 11.859375 
Q 46.1875 17.53125 46.1875 27.296875 
Q 46.1875 37.015625 41.984375 42.703125 
Q 37.796875 48.390625 30.609375 48.390625 
z
M 30.609375 56 
Q 42.328125 56 49.015625 48.375 
Q 55.71875 40.765625 55.71875 27.296875 
Q 55.71875 13.875 49.015625 6.21875 
Q 42.328125 -1.421875 30.609375 -1.421875 
Q 18.84375 -1.421875 12.171875 6.21875 
Q 5.515625 13.875 5.515625 27.296875 
Q 5.515625 40.765625 12.171875 48.375 
Q 18.84375 56 30.609375 56 
z
" id="DejaVuSans-111"/>
      <path d="M 9.078125 75.984375 
L 18.109375 75.984375 
L 18.109375 31.109375 
L 44.921875 54.6875 
L 56.390625 54.6875 
L 27.390625 29.109375 
L 57.625 0 
L 45.90625 0 
L 18.109375 26.703125 
L 18.109375 0 
L 9.078125 0 
z
" id="DejaVuSans-107"/>
     </defs>
     <use xlink:href="#DejaVuSans-67"/>
     <use x="69.824219" xlink:href="#DejaVuSans-105"/>
     <use x="97.607422" xlink:href="#DejaVuSans-114"/>
     <use x="136.470703" xlink:href="#DejaVuSans-99"/>
     <use x="191.451172" xlink:href="#DejaVuSans-97"/>
     <use x="252.730469" xlink:href="#DejaVuSans-100"/>
     <use x="316.207031" xlink:href="#DejaVuSans-105"/>
     <use x="343.990234" xlink:href="#DejaVuSans-97"/>
     <use x="405.269531" xlink:href="#DejaVuSans-110"/>
     <use x="468.648438" xlink:href="#DejaVuSans-32"/>
     <use x="500.435547" xlink:href="#DejaVuSans-67"/>
     <use x="570.259766" xlink:href="#DejaVuSans-108"/>
     <use x="598.042969" xlink:href="#DejaVuSans-111"/>
     <use x="659.224609" xlink:href="#DejaVuSans-99"/>
     <use x="714.205078" xlink:href="#DejaVuSans-107"/>
    </g>
   </g>
   <g id="legend_1">
    <g id="patch_7">
     <path d="M 323.103125 78.194375 
L 414.2 78.194375 
Q 416.2 78.194375 416.2 76.194375 
L 416.2 33.16 
Q 416.2 31.16 414.2 31.16 
L 323.103125 31.16 
Q 321.103125 31.16 321.103125 33.16 
L 321.103125 76.194375 
Q 321.103125 78.194375 323.103125 78.194375 
z
" style="fill:#ffffff;opacity:0.8;stroke:#cccccc;stroke-linejoin:miter;"/>
    </g>
    <g id="LineCollection_4">
     <path d="M 335.103125 44.258437 
L 335.103125 34.258437 
" style="fill:none;stroke:#90ee90;stroke-width:2;"/>
    </g>
    <g id="line2d_22">
     <path d="M 325.103125 39.258437 
L 345.103125 39.258437 
" style="fill:none;stroke:#32cd32;stroke-linecap:square;stroke-width:2;"/>
    </g>
    <g id="line2d_23"/>
    <g id="text_19">
     <!-- Non Drivers -->
     <g transform="translate(353.103125 42.758437)scale(0.1 -0.1)">
      <defs>
       <path d="M 9.8125 72.90625 
L 23.09375 72.90625 
L 55.421875 11.921875 
L 55.421875 72.90625 
L 64.984375 72.90625 
L 64.984375 0 
L 51.703125 0 
L 19.390625 60.984375 
L 19.390625 0 
L 9.8125 0 
z
" id="DejaVuSans-78"/>
       <path d="M 19.671875 64.796875 
L 19.671875 8.109375 
L 31.59375 8.109375 
Q 46.6875 8.109375 53.6875 14.9375 
Q 60.6875 21.78125 60.6875 36.53125 
Q 60.6875 51.171875 53.6875 57.984375 
Q 46.6875 64.796875 31.59375 64.796875 
z
M 9.8125 72.90625 
L 30.078125 72.90625 
Q 51.265625 72.90625 61.171875 64.09375 
Q 71.09375 55.28125 71.09375 36.53125 
Q 71.09375 17.671875 61.125 8.828125 
Q 51.171875 0 30.078125 0 
L 9.8125 0 
z
" id="DejaVuSans-68"/>
       <path d="M 2.984375 54.6875 
L 12.5 54.6875 
L 29.59375 8.796875 
L 46.6875 54.6875 
L 56.203125 54.6875 
L 35.6875 0 
L 23.484375 0 
z
" id="DejaVuSans-118"/>
       <path d="M 56.203125 29.59375 
L 56.203125 25.203125 
L 14.890625 25.203125 
Q 15.484375 15.921875 20.484375 11.0625 
Q 25.484375 6.203125 34.421875 6.203125 
Q 39.59375 6.203125 44.453125 7.46875 
Q 49.3125 8.734375 54.109375 11.28125 
L 54.109375 2.78125 
Q 49.265625 0.734375 44.1875 -0.34375 
Q 39.109375 -1.421875 33.890625 -1.421875 
Q 20.796875 -1.421875 13.15625 6.1875 
Q 5.515625 13.8125 5.515625 26.8125 
Q 5.515625 40.234375 12.765625 48.109375 
Q 20.015625 56 32.328125 56 
Q 43.359375 56 49.78125 48.890625 
Q 56.203125 41.796875 56.203125 29.59375 
z
M 47.21875 32.234375 
Q 47.125 39.59375 43.09375 43.984375 
Q 39.0625 48.390625 32.421875 48.390625 
Q 24.90625 48.390625 20.390625 44.140625 
Q 15.875 39.890625 15.1875 32.171875 
z
" id="DejaVuSans-101"/>
       <path d="M 44.28125 53.078125 
L 44.28125 44.578125 
Q 40.484375 46.53125 36.375 47.5 
Q 32.28125 48.484375 27.875 48.484375 
Q 21.1875 48.484375 17.84375 46.4375 
Q 14.5 44.390625 14.5 40.28125 
Q 14.5 37.15625 16.890625 35.375 
Q 19.28125 33.59375 26.515625 31.984375 
L 29.59375 31.296875 
Q 39.15625 29.25 43.1875 25.515625 
Q 47.21875 21.78125 47.21875 15.09375 
Q 47.21875 7.46875 41.1875 3.015625 
Q 35.15625 -1.421875 24.609375 -1.421875 
Q 20.21875 -1.421875 15.453125 -0.5625 
Q 10.6875 0.296875 5.421875 2 
L 5.421875 11.28125 
Q 10.40625 8.6875 15.234375 7.390625 
Q 20.0625 6.109375 24.8125 6.109375 
Q 31.15625 6.109375 34.5625 8.28125 
Q 37.984375 10.453125 37.984375 14.40625 
Q 37.984375 18.0625 35.515625 20.015625 
Q 33.0625 21.96875 24.703125 23.78125 
L 21.578125 24.515625 
Q 13.234375 26.265625 9.515625 29.90625 
Q 5.8125 33.546875 5.8125 39.890625 
Q 5.8125 47.609375 11.28125 51.796875 
Q 16.75 56 26.8125 56 
Q 31.78125 56 36.171875 55.265625 
Q 40.578125 54.546875 44.28125 53.078125 
z
" id="DejaVuSans-115"/>
      </defs>
      <use xlink:href="#DejaVuSans-78"/>
      <use x="74.804688" xlink:href="#DejaVuSans-111"/>
      <use x="135.986328" xlink:href="#DejaVuSans-110"/>
      <use x="199.365234" xlink:href="#DejaVuSans-32"/>
      <use x="231.152344" xlink:href="#DejaVuSans-68"/>
      <use x="308.154297" xlink:href="#DejaVuSans-114"/>
      <use x="349.267578" xlink:href="#DejaVuSans-105"/>
      <use x="377.050781" xlink:href="#DejaVuSans-118"/>
      <use x="436.230469" xlink:href="#DejaVuSans-101"/>
      <use x="497.753906" xlink:href="#DejaVuSans-114"/>
      <use x="538.867188" xlink:href="#DejaVuSans-115"/>
     </g>
    </g>
    <g id="LineCollection_5">
     <path d="M 335.103125 58.936562 
L 335.103125 48.936562 
" style="fill:none;stroke:#87ceeb;stroke-width:2;"/>
    </g>
    <g id="line2d_24">
     <path d="M 325.103125 53.936562 
L 345.103125 53.936562 
" style="fill:none;stroke:#0000ff;stroke-linecap:square;stroke-width:2;"/>
    </g>
    <g id="line2d_25"/>
    <g id="text_20">
     <!-- Hubs -->
     <g transform="translate(353.103125 57.436562)scale(0.1 -0.1)">
      <defs>
       <path d="M 9.8125 72.90625 
L 19.671875 72.90625 
L 19.671875 43.015625 
L 55.515625 43.015625 
L 55.515625 72.90625 
L 65.375 72.90625 
L 65.375 0 
L 55.515625 0 
L 55.515625 34.71875 
L 19.671875 34.71875 
L 19.671875 0 
L 9.8125 0 
z
" id="DejaVuSans-72"/>
       <path d="M 8.5 21.578125 
L 8.5 54.6875 
L 17.484375 54.6875 
L 17.484375 21.921875 
Q 17.484375 14.15625 20.5 10.265625 
Q 23.53125 6.390625 29.59375 6.390625 
Q 36.859375 6.390625 41.078125 11.03125 
Q 45.3125 15.671875 45.3125 23.6875 
L 45.3125 54.6875 
L 54.296875 54.6875 
L 54.296875 0 
L 45.3125 0 
L 45.3125 8.40625 
Q 42.046875 3.421875 37.71875 1 
Q 33.40625 -1.421875 27.6875 -1.421875 
Q 18.265625 -1.421875 13.375 4.4375 
Q 8.5 10.296875 8.5 21.578125 
z
M 31.109375 56 
z
" id="DejaVuSans-117"/>
       <path d="M 48.6875 27.296875 
Q 48.6875 37.203125 44.609375 42.84375 
Q 40.53125 48.484375 33.40625 48.484375 
Q 26.265625 48.484375 22.1875 42.84375 
Q 18.109375 37.203125 18.109375 27.296875 
Q 18.109375 17.390625 22.1875 11.75 
Q 26.265625 6.109375 33.40625 6.109375 
Q 40.53125 6.109375 44.609375 11.75 
Q 48.6875 17.390625 48.6875 27.296875 
z
M 18.109375 46.390625 
Q 20.953125 51.265625 25.265625 53.625 
Q 29.59375 56 35.59375 56 
Q 45.5625 56 51.78125 48.09375 
Q 58.015625 40.1875 58.015625 27.296875 
Q 58.015625 14.40625 51.78125 6.484375 
Q 45.5625 -1.421875 35.59375 -1.421875 
Q 29.59375 -1.421875 25.265625 0.953125 
Q 20.953125 3.328125 18.109375 8.203125 
L 18.109375 0 
L 9.078125 0 
L 9.078125 75.984375 
L 18.109375 75.984375 
z
" id="DejaVuSans-98"/>
      </defs>
      <use xlink:href="#DejaVuSans-72"/>
      <use x="75.195312" xlink:href="#DejaVuSans-117"/>
      <use x="138.574219" xlink:href="#DejaVuSans-98"/>
      <use x="202.050781" xlink:href="#DejaVuSans-115"/>
     </g>
    </g>
    <g id="LineCollection_6">
     <path d="M 335.103125 73.614687 
L 335.103125 63.614687 
" style="fill:none;stroke:#f08080;"/>
    </g>
    <g id="line2d_26">
     <path d="M 325.103125 68.614687 
L 345.103125 68.614687 
" style="fill:none;stroke:#ff0000;stroke-linecap:square;stroke-width:2;"/>
    </g>
    <g id="line2d_27"/>
    <g id="text_21">
     <!-- Drivers -->
     <g transform="translate(353.103125 72.114687)scale(0.1 -0.1)">
      <use xlink:href="#DejaVuSans-68"/>
      <use x="77.001953" xlink:href="#DejaVuSans-114"/>
      <use x="118.115234" xlink:href="#DejaVuSans-105"/>
      <use x="145.898438" xlink:href="#DejaVuSans-118"/>
      <use x="205.078125" xlink:href="#DejaVuSans-101"/>
      <use x="266.601562" xlink:href="#DejaVuSans-114"/>
      <use x="307.714844" xlink:href="#DejaVuSans-115"/>
     </g>
    </g>
   </g>
  </g>
 </g>
 <defs>
  <clipPath id="p4da3db9535">
   <rect height="305.96" width="374.825" x="46.375" y="26.16"/>
  </clipPath>
 </defs>
</svg>
