<?xml version="1.0" encoding="utf-8" standalone="no"?>
<!DOCTYPE svg PUBLIC "-//W3C//DTD SVG 1.1//EN"
  "http://www.w3.org/Graphics/SVG/1.1/DTD/svg11.dtd">
<!-- Created with matplotlib (https://matplotlib.org/) -->
<svg height="360pt" version="1.1" viewBox="0 0 432 360" width="432pt" xmlns="http://www.w3.org/2000/svg" xmlns:xlink="http://www.w3.org/1999/xlink">
 <metadata>
  <rdf:RDF xmlns:cc="http://creativecommons.org/ns#" xmlns:dc="http://purl.org/dc/elements/1.1/" xmlns:rdf="http://www.w3.org/1999/02/22-rdf-syntax-ns#">
   <cc:Work>
    <dc:type rdf:resource="http://purl.org/dc/dcmitype/StillImage"/>
    <dc:date>2021-07-27T14:08:03.874021</dc:date>
    <dc:format>image/svg+xml</dc:format>
    <dc:creator>
     <cc:Agent>
      <dc:title>Matplotlib v3.3.2, https://matplotlib.org/</dc:title>
     </cc:Agent>
    </dc:creator>
   </cc:Work>
  </rdf:RDF>
 </metadata>
 <defs>
  <style type="text/css">*{stroke-linecap:butt;stroke-linejoin:round;}</style>
 </defs>
 <g id="figure_1">
  <g id="patch_1">
   <path d="M 0 360 
L 432 360 
L 432 0 
L 0 0 
z
" style="fill:#ffffff;"/>
  </g>
  <g id="axes_1">
   <g id="patch_2">
    <path d="M 40.03 332.12 
L 415.754606 332.12 
L 415.754606 26.16 
L 40.03 26.16 
z
" style="fill:#ffffff;"/>
   </g>
   <g id="matplotlib.axis_1">
    <g id="xtick_1">
     <g id="line2d_1">
      <defs>
       <path d="M 0 0 
L 0 3.5 
" id="m6249de07bf" style="stroke:#000000;stroke-width:0.8;"/>
      </defs>
      <g>
       <use style="stroke:#000000;stroke-width:0.8;" x="40.03" xlink:href="#m6249de07bf" y="332.12"/>
      </g>
     </g>
     <g id="text_1">
      <!-- 0.00 -->
      <g transform="translate(28.897188 346.718437)scale(0.1 -0.1)">
       <defs>
        <path d="M 31.78125 66.40625 
Q 24.171875 66.40625 20.328125 58.90625 
Q 16.5 51.421875 16.5 36.375 
Q 16.5 21.390625 20.328125 13.890625 
Q 24.171875 6.390625 31.78125 6.390625 
Q 39.453125 6.390625 43.28125 13.890625 
Q 47.125 21.390625 47.125 36.375 
Q 47.125 51.421875 43.28125 58.90625 
Q 39.453125 66.40625 31.78125 66.40625 
z
M 31.78125 74.21875 
Q 44.046875 74.21875 50.515625 64.515625 
Q 56.984375 54.828125 56.984375 36.375 
Q 56.984375 17.96875 50.515625 8.265625 
Q 44.046875 -1.421875 31.78125 -1.421875 
Q 19.53125 -1.421875 13.0625 8.265625 
Q 6.59375 17.96875 6.59375 36.375 
Q 6.59375 54.828125 13.0625 64.515625 
Q 19.53125 74.21875 31.78125 74.21875 
z
" id="DejaVuSans-48"/>
        <path d="M 10.6875 12.40625 
L 21 12.40625 
L 21 0 
L 10.6875 0 
z
" id="DejaVuSans-46"/>
       </defs>
       <use xlink:href="#DejaVuSans-48"/>
       <use x="63.623047" xlink:href="#DejaVuSans-46"/>
       <use x="95.410156" xlink:href="#DejaVuSans-48"/>
       <use x="159.033203" xlink:href="#DejaVuSans-48"/>
      </g>
     </g>
    </g>
    <g id="xtick_2">
     <g id="line2d_2">
      <g>
       <use style="stroke:#000000;stroke-width:0.8;" x="92.795996" xlink:href="#m6249de07bf" y="332.12"/>
      </g>
     </g>
     <g id="text_2">
      <!-- 0.02 -->
      <g transform="translate(81.663183 346.718437)scale(0.1 -0.1)">
       <defs>
        <path d="M 19.1875 8.296875 
L 53.609375 8.296875 
L 53.609375 0 
L 7.328125 0 
L 7.328125 8.296875 
Q 12.9375 14.109375 22.625 23.890625 
Q 32.328125 33.6875 34.8125 36.53125 
Q 39.546875 41.84375 41.421875 45.53125 
Q 43.3125 49.21875 43.3125 52.78125 
Q 43.3125 58.59375 39.234375 62.25 
Q 35.15625 65.921875 28.609375 65.921875 
Q 23.96875 65.921875 18.8125 64.3125 
Q 13.671875 62.703125 7.8125 59.421875 
L 7.8125 69.390625 
Q 13.765625 71.78125 18.9375 73 
Q 24.125 74.21875 28.421875 74.21875 
Q 39.75 74.21875 46.484375 68.546875 
Q 53.21875 62.890625 53.21875 53.421875 
Q 53.21875 48.921875 51.53125 44.890625 
Q 49.859375 40.875 45.40625 35.40625 
Q 44.1875 33.984375 37.640625 27.21875 
Q 31.109375 20.453125 19.1875 8.296875 
z
" id="DejaVuSans-50"/>
       </defs>
       <use xlink:href="#DejaVuSans-48"/>
       <use x="63.623047" xlink:href="#DejaVuSans-46"/>
       <use x="95.410156" xlink:href="#DejaVuSans-48"/>
       <use x="159.033203" xlink:href="#DejaVuSans-50"/>
      </g>
     </g>
    </g>
    <g id="xtick_3">
     <g id="line2d_3">
      <g>
       <use style="stroke:#000000;stroke-width:0.8;" x="145.561991" xlink:href="#m6249de07bf" y="332.12"/>
      </g>
     </g>
     <g id="text_3">
      <!-- 0.04 -->
      <g transform="translate(134.429179 346.718437)scale(0.1 -0.1)">
       <defs>
        <path d="M 37.796875 64.3125 
L 12.890625 25.390625 
L 37.796875 25.390625 
z
M 35.203125 72.90625 
L 47.609375 72.90625 
L 47.609375 25.390625 
L 58.015625 25.390625 
L 58.015625 17.1875 
L 47.609375 17.1875 
L 47.609375 0 
L 37.796875 0 
L 37.796875 17.1875 
L 4.890625 17.1875 
L 4.890625 26.703125 
z
" id="DejaVuSans-52"/>
       </defs>
       <use xlink:href="#DejaVuSans-48"/>
       <use x="63.623047" xlink:href="#DejaVuSans-46"/>
       <use x="95.410156" xlink:href="#DejaVuSans-48"/>
       <use x="159.033203" xlink:href="#DejaVuSans-52"/>
      </g>
     </g>
    </g>
    <g id="xtick_4">
     <g id="line2d_4">
      <g>
       <use style="stroke:#000000;stroke-width:0.8;" x="198.327987" xlink:href="#m6249de07bf" y="332.12"/>
      </g>
     </g>
     <g id="text_4">
      <!-- 0.06 -->
      <g transform="translate(187.195175 346.718437)scale(0.1 -0.1)">
       <defs>
        <path d="M 33.015625 40.375 
Q 26.375 40.375 22.484375 35.828125 
Q 18.609375 31.296875 18.609375 23.390625 
Q 18.609375 15.53125 22.484375 10.953125 
Q 26.375 6.390625 33.015625 6.390625 
Q 39.65625 6.390625 43.53125 10.953125 
Q 47.40625 15.53125 47.40625 23.390625 
Q 47.40625 31.296875 43.53125 35.828125 
Q 39.65625 40.375 33.015625 40.375 
z
M 52.59375 71.296875 
L 52.59375 62.3125 
Q 48.875 64.0625 45.09375 64.984375 
Q 41.3125 65.921875 37.59375 65.921875 
Q 27.828125 65.921875 22.671875 59.328125 
Q 17.53125 52.734375 16.796875 39.40625 
Q 19.671875 43.65625 24.015625 45.921875 
Q 28.375 48.1875 33.59375 48.1875 
Q 44.578125 48.1875 50.953125 41.515625 
Q 57.328125 34.859375 57.328125 23.390625 
Q 57.328125 12.15625 50.6875 5.359375 
Q 44.046875 -1.421875 33.015625 -1.421875 
Q 20.359375 -1.421875 13.671875 8.265625 
Q 6.984375 17.96875 6.984375 36.375 
Q 6.984375 53.65625 15.1875 63.9375 
Q 23.390625 74.21875 37.203125 74.21875 
Q 40.921875 74.21875 44.703125 73.484375 
Q 48.484375 72.75 52.59375 71.296875 
z
" id="DejaVuSans-54"/>
       </defs>
       <use xlink:href="#DejaVuSans-48"/>
       <use x="63.623047" xlink:href="#DejaVuSans-46"/>
       <use x="95.410156" xlink:href="#DejaVuSans-48"/>
       <use x="159.033203" xlink:href="#DejaVuSans-54"/>
      </g>
     </g>
    </g>
    <g id="xtick_5">
     <g id="line2d_5">
      <g>
       <use style="stroke:#000000;stroke-width:0.8;" x="251.093983" xlink:href="#m6249de07bf" y="332.12"/>
      </g>
     </g>
     <g id="text_5">
      <!-- 0.08 -->
      <g transform="translate(239.96117 346.718437)scale(0.1 -0.1)">
       <defs>
        <path d="M 31.78125 34.625 
Q 24.75 34.625 20.71875 30.859375 
Q 16.703125 27.09375 16.703125 20.515625 
Q 16.703125 13.921875 20.71875 10.15625 
Q 24.75 6.390625 31.78125 6.390625 
Q 38.8125 6.390625 42.859375 10.171875 
Q 46.921875 13.96875 46.921875 20.515625 
Q 46.921875 27.09375 42.890625 30.859375 
Q 38.875 34.625 31.78125 34.625 
z
M 21.921875 38.8125 
Q 15.578125 40.375 12.03125 44.71875 
Q 8.5 49.078125 8.5 55.328125 
Q 8.5 64.0625 14.71875 69.140625 
Q 20.953125 74.21875 31.78125 74.21875 
Q 42.671875 74.21875 48.875 69.140625 
Q 55.078125 64.0625 55.078125 55.328125 
Q 55.078125 49.078125 51.53125 44.71875 
Q 48 40.375 41.703125 38.8125 
Q 48.828125 37.15625 52.796875 32.3125 
Q 56.78125 27.484375 56.78125 20.515625 
Q 56.78125 9.90625 50.3125 4.234375 
Q 43.84375 -1.421875 31.78125 -1.421875 
Q 19.734375 -1.421875 13.25 4.234375 
Q 6.78125 9.90625 6.78125 20.515625 
Q 6.78125 27.484375 10.78125 32.3125 
Q 14.796875 37.15625 21.921875 38.8125 
z
M 18.3125 54.390625 
Q 18.3125 48.734375 21.84375 45.5625 
Q 25.390625 42.390625 31.78125 42.390625 
Q 38.140625 42.390625 41.71875 45.5625 
Q 45.3125 48.734375 45.3125 54.390625 
Q 45.3125 60.0625 41.71875 63.234375 
Q 38.140625 66.40625 31.78125 66.40625 
Q 25.390625 66.40625 21.84375 63.234375 
Q 18.3125 60.0625 18.3125 54.390625 
z
" id="DejaVuSans-56"/>
       </defs>
       <use xlink:href="#DejaVuSans-48"/>
       <use x="63.623047" xlink:href="#DejaVuSans-46"/>
       <use x="95.410156" xlink:href="#DejaVuSans-48"/>
       <use x="159.033203" xlink:href="#DejaVuSans-56"/>
      </g>
     </g>
    </g>
    <g id="xtick_6">
     <g id="line2d_6">
      <g>
       <use style="stroke:#000000;stroke-width:0.8;" x="303.859979" xlink:href="#m6249de07bf" y="332.12"/>
      </g>
     </g>
     <g id="text_6">
      <!-- 0.10 -->
      <g transform="translate(292.727166 346.718437)scale(0.1 -0.1)">
       <defs>
        <path d="M 12.40625 8.296875 
L 28.515625 8.296875 
L 28.515625 63.921875 
L 10.984375 60.40625 
L 10.984375 69.390625 
L 28.421875 72.90625 
L 38.28125 72.90625 
L 38.28125 8.296875 
L 54.390625 8.296875 
L 54.390625 0 
L 12.40625 0 
z
" id="DejaVuSans-49"/>
       </defs>
       <use xlink:href="#DejaVuSans-48"/>
       <use x="63.623047" xlink:href="#DejaVuSans-46"/>
       <use x="95.410156" xlink:href="#DejaVuSans-49"/>
       <use x="159.033203" xlink:href="#DejaVuSans-48"/>
      </g>
     </g>
    </g>
    <g id="xtick_7">
     <g id="line2d_7">
      <g>
       <use style="stroke:#000000;stroke-width:0.8;" x="356.625974" xlink:href="#m6249de07bf" y="332.12"/>
      </g>
     </g>
     <g id="text_7">
      <!-- 0.12 -->
      <g transform="translate(345.493162 346.718437)scale(0.1 -0.1)">
       <use xlink:href="#DejaVuSans-48"/>
       <use x="63.623047" xlink:href="#DejaVuSans-46"/>
       <use x="95.410156" xlink:href="#DejaVuSans-49"/>
       <use x="159.033203" xlink:href="#DejaVuSans-50"/>
      </g>
     </g>
    </g>
    <g id="xtick_8">
     <g id="line2d_8">
      <g>
       <use style="stroke:#000000;stroke-width:0.8;" x="409.39197" xlink:href="#m6249de07bf" y="332.12"/>
      </g>
     </g>
     <g id="text_8">
      <!-- 0.14 -->
      <g transform="translate(398.259158 346.718437)scale(0.1 -0.1)">
       <use xlink:href="#DejaVuSans-48"/>
       <use x="63.623047" xlink:href="#DejaVuSans-46"/>
       <use x="95.410156" xlink:href="#DejaVuSans-49"/>
       <use x="159.033203" xlink:href="#DejaVuSans-52"/>
      </g>
     </g>
    </g>
   </g>
   <g id="matplotlib.axis_2">
    <g id="ytick_1">
     <g id="line2d_9">
      <defs>
       <path d="M 0 0 
L -3.5 0 
" id="md468448fb2" style="stroke:#000000;stroke-width:0.8;"/>
      </defs>
      <g>
       <use style="stroke:#000000;stroke-width:0.8;" x="40.03" xlink:href="#md468448fb2" y="300.892063"/>
      </g>
     </g>
     <g id="text_9">
      <!-- 0.86 -->
      <g transform="translate(10.764375 304.691282)scale(0.1 -0.1)">
       <use xlink:href="#DejaVuSans-48"/>
       <use x="63.623047" xlink:href="#DejaVuSans-46"/>
       <use x="95.410156" xlink:href="#DejaVuSans-56"/>
       <use x="159.033203" xlink:href="#DejaVuSans-54"/>
      </g>
     </g>
    </g>
    <g id="ytick_2">
     <g id="line2d_10">
      <g>
       <use style="stroke:#000000;stroke-width:0.8;" x="40.03" xlink:href="#md468448fb2" y="261.644626"/>
      </g>
     </g>
     <g id="text_10">
      <!-- 0.88 -->
      <g transform="translate(10.764375 265.443844)scale(0.1 -0.1)">
       <use xlink:href="#DejaVuSans-48"/>
       <use x="63.623047" xlink:href="#DejaVuSans-46"/>
       <use x="95.410156" xlink:href="#DejaVuSans-56"/>
       <use x="159.033203" xlink:href="#DejaVuSans-56"/>
      </g>
     </g>
    </g>
    <g id="ytick_3">
     <g id="line2d_11">
      <g>
       <use style="stroke:#000000;stroke-width:0.8;" x="40.03" xlink:href="#md468448fb2" y="222.397188"/>
      </g>
     </g>
     <g id="text_11">
      <!-- 0.90 -->
      <g transform="translate(10.764375 226.196407)scale(0.1 -0.1)">
       <defs>
        <path d="M 10.984375 1.515625 
L 10.984375 10.5 
Q 14.703125 8.734375 18.5 7.8125 
Q 22.3125 6.890625 25.984375 6.890625 
Q 35.75 6.890625 40.890625 13.453125 
Q 46.046875 20.015625 46.78125 33.40625 
Q 43.953125 29.203125 39.59375 26.953125 
Q 35.25 24.703125 29.984375 24.703125 
Q 19.046875 24.703125 12.671875 31.3125 
Q 6.296875 37.9375 6.296875 49.421875 
Q 6.296875 60.640625 12.9375 67.421875 
Q 19.578125 74.21875 30.609375 74.21875 
Q 43.265625 74.21875 49.921875 64.515625 
Q 56.59375 54.828125 56.59375 36.375 
Q 56.59375 19.140625 48.40625 8.859375 
Q 40.234375 -1.421875 26.421875 -1.421875 
Q 22.703125 -1.421875 18.890625 -0.6875 
Q 15.09375 0.046875 10.984375 1.515625 
z
M 30.609375 32.421875 
Q 37.25 32.421875 41.125 36.953125 
Q 45.015625 41.5 45.015625 49.421875 
Q 45.015625 57.28125 41.125 61.84375 
Q 37.25 66.40625 30.609375 66.40625 
Q 23.96875 66.40625 20.09375 61.84375 
Q 16.21875 57.28125 16.21875 49.421875 
Q 16.21875 41.5 20.09375 36.953125 
Q 23.96875 32.421875 30.609375 32.421875 
z
" id="DejaVuSans-57"/>
       </defs>
       <use xlink:href="#DejaVuSans-48"/>
       <use x="63.623047" xlink:href="#DejaVuSans-46"/>
       <use x="95.410156" xlink:href="#DejaVuSans-57"/>
       <use x="159.033203" xlink:href="#DejaVuSans-48"/>
      </g>
     </g>
    </g>
    <g id="ytick_4">
     <g id="line2d_12">
      <g>
       <use style="stroke:#000000;stroke-width:0.8;" x="40.03" xlink:href="#md468448fb2" y="183.14975"/>
      </g>
     </g>
     <g id="text_12">
      <!-- 0.92 -->
      <g transform="translate(10.764375 186.948969)scale(0.1 -0.1)">
       <use xlink:href="#DejaVuSans-48"/>
       <use x="63.623047" xlink:href="#DejaVuSans-46"/>
       <use x="95.410156" xlink:href="#DejaVuSans-57"/>
       <use x="159.033203" xlink:href="#DejaVuSans-50"/>
      </g>
     </g>
    </g>
    <g id="ytick_5">
     <g id="line2d_13">
      <g>
       <use style="stroke:#000000;stroke-width:0.8;" x="40.03" xlink:href="#md468448fb2" y="143.902313"/>
      </g>
     </g>
     <g id="text_13">
      <!-- 0.94 -->
      <g transform="translate(10.764375 147.701532)scale(0.1 -0.1)">
       <use xlink:href="#DejaVuSans-48"/>
       <use x="63.623047" xlink:href="#DejaVuSans-46"/>
       <use x="95.410156" xlink:href="#DejaVuSans-57"/>
       <use x="159.033203" xlink:href="#DejaVuSans-52"/>
      </g>
     </g>
    </g>
    <g id="ytick_6">
     <g id="line2d_14">
      <g>
       <use style="stroke:#000000;stroke-width:0.8;" x="40.03" xlink:href="#md468448fb2" y="104.654875"/>
      </g>
     </g>
     <g id="text_14">
      <!-- 0.96 -->
      <g transform="translate(10.764375 108.454094)scale(0.1 -0.1)">
       <use xlink:href="#DejaVuSans-48"/>
       <use x="63.623047" xlink:href="#DejaVuSans-46"/>
       <use x="95.410156" xlink:href="#DejaVuSans-57"/>
       <use x="159.033203" xlink:href="#DejaVuSans-54"/>
      </g>
     </g>
    </g>
    <g id="ytick_7">
     <g id="line2d_15">
      <g>
       <use style="stroke:#000000;stroke-width:0.8;" x="40.03" xlink:href="#md468448fb2" y="65.407438"/>
      </g>
     </g>
     <g id="text_15">
      <!-- 0.98 -->
      <g transform="translate(10.764375 69.206656)scale(0.1 -0.1)">
       <use xlink:href="#DejaVuSans-48"/>
       <use x="63.623047" xlink:href="#DejaVuSans-46"/>
       <use x="95.410156" xlink:href="#DejaVuSans-57"/>
       <use x="159.033203" xlink:href="#DejaVuSans-56"/>
      </g>
     </g>
    </g>
    <g id="ytick_8">
     <g id="line2d_16">
      <g>
       <use style="stroke:#000000;stroke-width:0.8;" x="40.03" xlink:href="#md468448fb2" y="26.16"/>
      </g>
     </g>
     <g id="text_16">
      <!-- 1.00 -->
      <g transform="translate(10.764375 29.959219)scale(0.1 -0.1)">
       <use xlink:href="#DejaVuSans-49"/>
       <use x="63.623047" xlink:href="#DejaVuSans-46"/>
       <use x="95.410156" xlink:href="#DejaVuSans-48"/>
       <use x="159.033203" xlink:href="#DejaVuSans-48"/>
      </g>
     </g>
    </g>
   </g>
   <g id="LineCollection_1">
    <path clip-path="url(#p014ad25b25)" d="M 40.03 26.16 
L 40.03 26.16 
" style="fill:none;stroke:#90ee90;stroke-width:2;"/>
    <path clip-path="url(#p014ad25b25)" d="M 42.772515 28.745455 
L 42.772515 27.856289 
" style="fill:none;stroke:#90ee90;stroke-width:2;"/>
    <path clip-path="url(#p014ad25b25)" d="M 45.515031 31.025436 
L 45.515031 29.777265 
" style="fill:none;stroke:#90ee90;stroke-width:2;"/>
    <path clip-path="url(#p014ad25b25)" d="M 48.257546 33.562589 
L 48.257546 31.56225 
" style="fill:none;stroke:#90ee90;stroke-width:2;"/>
    <path clip-path="url(#p014ad25b25)" d="M 51.000061 35.791073 
L 51.000061 33.655904 
" style="fill:none;stroke:#90ee90;stroke-width:2;"/>
    <path clip-path="url(#p014ad25b25)" d="M 53.742577 37.962655 
L 53.742577 35.685278 
" style="fill:none;stroke:#90ee90;stroke-width:2;"/>
    <path clip-path="url(#p014ad25b25)" d="M 56.485092 40.062502 
L 56.485092 37.745994 
" style="fill:none;stroke:#90ee90;stroke-width:2;"/>
    <path clip-path="url(#p014ad25b25)" d="M 59.227608 42.25739 
L 59.227608 39.752063 
" style="fill:none;stroke:#90ee90;stroke-width:2;"/>
    <path clip-path="url(#p014ad25b25)" d="M 61.970123 44.352204 
L 61.970123 41.817813 
" style="fill:none;stroke:#90ee90;stroke-width:2;"/>
    <path clip-path="url(#p014ad25b25)" d="M 64.712638 48.381345 
L 64.712638 42.95908 
" style="fill:none;stroke:#90ee90;stroke-width:2;"/>
    <path clip-path="url(#p014ad25b25)" d="M 67.455154 50.564731 
L 67.455154 45.097832 
" style="fill:none;stroke:#90ee90;stroke-width:2;"/>
    <path clip-path="url(#p014ad25b25)" d="M 70.197669 52.659037 
L 70.197669 47.204482 
" style="fill:none;stroke:#90ee90;stroke-width:2;"/>
    <path clip-path="url(#p014ad25b25)" d="M 72.940184 54.779906 
L 72.940184 49.244176 
" style="fill:none;stroke:#90ee90;stroke-width:2;"/>
    <path clip-path="url(#p014ad25b25)" d="M 75.6827 59.448026 
L 75.6827 50.029221 
" style="fill:none;stroke:#90ee90;stroke-width:2;"/>
    <path clip-path="url(#p014ad25b25)" d="M 78.425215 63.135669 
L 78.425215 51.390805 
" style="fill:none;stroke:#90ee90;stroke-width:2;"/>
    <path clip-path="url(#p014ad25b25)" d="M 81.167731 65.32759 
L 81.167731 53.561416 
" style="fill:none;stroke:#90ee90;stroke-width:2;"/>
    <path clip-path="url(#p014ad25b25)" d="M 83.910246 68.271926 
L 83.910246 55.262368 
" style="fill:none;stroke:#90ee90;stroke-width:2;"/>
    <path clip-path="url(#p014ad25b25)" d="M 86.652761 70.292594 
L 86.652761 57.321475 
" style="fill:none;stroke:#90ee90;stroke-width:2;"/>
    <path clip-path="url(#p014ad25b25)" d="M 89.395277 72.379673 
L 89.395277 59.394959 
" style="fill:none;stroke:#90ee90;stroke-width:2;"/>
    <path clip-path="url(#p014ad25b25)" d="M 92.137792 74.481092 
L 92.137792 61.534891 
" style="fill:none;stroke:#90ee90;stroke-width:2;"/>
    <path clip-path="url(#p014ad25b25)" d="M 94.880307 76.554556 
L 94.880307 63.62199 
" style="fill:none;stroke:#90ee90;stroke-width:2;"/>
    <path clip-path="url(#p014ad25b25)" d="M 97.622823 78.620783 
L 97.622823 65.675932 
" style="fill:none;stroke:#90ee90;stroke-width:2;"/>
    <path clip-path="url(#p014ad25b25)" d="M 100.365338 80.680514 
L 100.365338 67.73637 
" style="fill:none;stroke:#90ee90;stroke-width:2;"/>
    <path clip-path="url(#p014ad25b25)" d="M 103.107854 83.501576 
L 103.107854 69.641384 
" style="fill:none;stroke:#90ee90;stroke-width:2;"/>
    <path clip-path="url(#p014ad25b25)" d="M 105.850369 85.598433 
L 105.850369 71.785878 
" style="fill:none;stroke:#90ee90;stroke-width:2;"/>
    <path clip-path="url(#p014ad25b25)" d="M 108.592884 88.668977 
L 108.592884 73.926135 
" style="fill:none;stroke:#90ee90;stroke-width:2;"/>
    <path clip-path="url(#p014ad25b25)" d="M 111.3354 90.737395 
L 111.3354 76.01828 
" style="fill:none;stroke:#90ee90;stroke-width:2;"/>
    <path clip-path="url(#p014ad25b25)" d="M 114.077915 92.844941 
L 114.077915 78.152085 
" style="fill:none;stroke:#90ee90;stroke-width:2;"/>
    <path clip-path="url(#p014ad25b25)" d="M 116.82043 94.934961 
L 116.82043 80.263021 
" style="fill:none;stroke:#90ee90;stroke-width:2;"/>
    <path clip-path="url(#p014ad25b25)" d="M 119.562946 96.971246 
L 119.562946 82.306511 
" style="fill:none;stroke:#90ee90;stroke-width:2;"/>
    <path clip-path="url(#p014ad25b25)" d="M 122.305461 99.150668 
L 122.305461 84.489622 
" style="fill:none;stroke:#90ee90;stroke-width:2;"/>
    <path clip-path="url(#p014ad25b25)" d="M 125.047977 102.122349 
L 125.047977 86.284411 
" style="fill:none;stroke:#90ee90;stroke-width:2;"/>
    <path clip-path="url(#p014ad25b25)" d="M 127.790492 104.204131 
L 127.790492 88.322797 
" style="fill:none;stroke:#90ee90;stroke-width:2;"/>
    <path clip-path="url(#p014ad25b25)" d="M 130.533007 106.471973 
L 130.533007 90.457881 
" style="fill:none;stroke:#90ee90;stroke-width:2;"/>
    <path clip-path="url(#p014ad25b25)" d="M 133.275523 108.521891 
L 133.275523 92.528132 
" style="fill:none;stroke:#90ee90;stroke-width:2;"/>
    <path clip-path="url(#p014ad25b25)" d="M 136.018038 110.592558 
L 136.018038 94.577634 
" style="fill:none;stroke:#90ee90;stroke-width:2;"/>
    <path clip-path="url(#p014ad25b25)" d="M 138.760553 112.698987 
L 138.760553 96.631768 
" style="fill:none;stroke:#90ee90;stroke-width:2;"/>
    <path clip-path="url(#p014ad25b25)" d="M 141.503069 114.85146 
L 141.503069 98.639858 
" style="fill:none;stroke:#90ee90;stroke-width:2;"/>
    <path clip-path="url(#p014ad25b25)" d="M 144.245584 117.096952 
L 144.245584 100.797292 
" style="fill:none;stroke:#90ee90;stroke-width:2;"/>
    <path clip-path="url(#p014ad25b25)" d="M 146.988099 119.169285 
L 146.988099 102.96631 
" style="fill:none;stroke:#90ee90;stroke-width:2;"/>
    <path clip-path="url(#p014ad25b25)" d="M 149.730615 121.448405 
L 149.730615 105.292084 
" style="fill:none;stroke:#90ee90;stroke-width:2;"/>
    <path clip-path="url(#p014ad25b25)" d="M 152.47313 123.515593 
L 152.47313 107.385459 
" style="fill:none;stroke:#90ee90;stroke-width:2;"/>
    <path clip-path="url(#p014ad25b25)" d="M 155.215646 125.592881 
L 155.215646 109.468734 
" style="fill:none;stroke:#90ee90;stroke-width:2;"/>
    <path clip-path="url(#p014ad25b25)" d="M 157.958161 127.637928 
L 157.958161 111.503462 
" style="fill:none;stroke:#90ee90;stroke-width:2;"/>
    <path clip-path="url(#p014ad25b25)" d="M 160.700676 129.743846 
L 160.700676 113.5985 
" style="fill:none;stroke:#90ee90;stroke-width:2;"/>
    <path clip-path="url(#p014ad25b25)" d="M 163.443192 131.810302 
L 163.443192 115.692608 
" style="fill:none;stroke:#90ee90;stroke-width:2;"/>
    <path clip-path="url(#p014ad25b25)" d="M 166.185707 133.870817 
L 166.185707 117.711868 
" style="fill:none;stroke:#90ee90;stroke-width:2;"/>
    <path clip-path="url(#p014ad25b25)" d="M 168.928222 136.068784 
L 168.928222 119.795645 
" style="fill:none;stroke:#90ee90;stroke-width:2;"/>
    <path clip-path="url(#p014ad25b25)" d="M 171.670738 138.69747 
L 171.670738 121.852642 
" style="fill:none;stroke:#90ee90;stroke-width:2;"/>
    <path clip-path="url(#p014ad25b25)" d="M 174.413253 140.719853 
L 174.413253 123.86964 
" style="fill:none;stroke:#90ee90;stroke-width:2;"/>
    <path clip-path="url(#p014ad25b25)" d="M 177.155769 142.925053 
L 177.155769 125.865396 
" style="fill:none;stroke:#90ee90;stroke-width:2;"/>
    <path clip-path="url(#p014ad25b25)" d="M 179.898284 145.007194 
L 179.898284 127.984212 
" style="fill:none;stroke:#90ee90;stroke-width:2;"/>
    <path clip-path="url(#p014ad25b25)" d="M 182.640799 147.046622 
L 182.640799 130.064953 
" style="fill:none;stroke:#90ee90;stroke-width:2;"/>
    <path clip-path="url(#p014ad25b25)" d="M 185.383315 149.081608 
L 185.383315 132.109743 
" style="fill:none;stroke:#90ee90;stroke-width:2;"/>
    <path clip-path="url(#p014ad25b25)" d="M 188.12583 151.155708 
L 188.12583 134.196205 
" style="fill:none;stroke:#90ee90;stroke-width:2;"/>
    <path clip-path="url(#p014ad25b25)" d="M 190.868345 153.267464 
L 190.868345 136.406587 
" style="fill:none;stroke:#90ee90;stroke-width:2;"/>
    <path clip-path="url(#p014ad25b25)" d="M 193.610861 155.319129 
L 193.610861 138.475091 
" style="fill:none;stroke:#90ee90;stroke-width:2;"/>
    <path clip-path="url(#p014ad25b25)" d="M 196.353376 157.623717 
L 196.353376 140.573429 
" style="fill:none;stroke:#90ee90;stroke-width:2;"/>
    <path clip-path="url(#p014ad25b25)" d="M 199.095892 159.803184 
L 199.095892 142.675706 
" style="fill:none;stroke:#90ee90;stroke-width:2;"/>
    <path clip-path="url(#p014ad25b25)" d="M 201.838407 161.843072 
L 201.838407 144.715594 
" style="fill:none;stroke:#90ee90;stroke-width:2;"/>
    <path clip-path="url(#p014ad25b25)" d="M 204.580922 164.258578 
L 204.580922 146.783801 
" style="fill:none;stroke:#90ee90;stroke-width:2;"/>
    <path clip-path="url(#p014ad25b25)" d="M 207.323438 166.261589 
L 207.323438 148.900959 
" style="fill:none;stroke:#90ee90;stroke-width:2;"/>
    <path clip-path="url(#p014ad25b25)" d="M 210.065953 168.919331 
L 210.065953 150.969293 
" style="fill:none;stroke:#90ee90;stroke-width:2;"/>
    <path clip-path="url(#p014ad25b25)" d="M 212.808468 171.52263 
L 212.808468 153.011282 
" style="fill:none;stroke:#90ee90;stroke-width:2;"/>
    <path clip-path="url(#p014ad25b25)" d="M 215.550984 173.504812 
L 215.550984 155.149269 
" style="fill:none;stroke:#90ee90;stroke-width:2;"/>
    <path clip-path="url(#p014ad25b25)" d="M 218.293499 175.642281 
L 218.293499 157.212757 
" style="fill:none;stroke:#90ee90;stroke-width:2;"/>
    <path clip-path="url(#p014ad25b25)" d="M 221.036014 177.652385 
L 221.036014 159.40361 
" style="fill:none;stroke:#90ee90;stroke-width:2;"/>
    <path clip-path="url(#p014ad25b25)" d="M 223.77853 179.785387 
L 223.77853 161.552352 
" style="fill:none;stroke:#90ee90;stroke-width:2;"/>
    <path clip-path="url(#p014ad25b25)" d="M 226.521045 182.071927 
L 226.521045 163.709132 
" style="fill:none;stroke:#90ee90;stroke-width:2;"/>
    <path clip-path="url(#p014ad25b25)" d="M 229.263561 184.107263 
L 229.263561 165.713177 
" style="fill:none;stroke:#90ee90;stroke-width:2;"/>
    <path clip-path="url(#p014ad25b25)" d="M 232.006076 186.827666 
L 232.006076 167.718851 
" style="fill:none;stroke:#90ee90;stroke-width:2;"/>
    <path clip-path="url(#p014ad25b25)" d="M 234.748591 188.867554 
L 234.748591 169.758738 
" style="fill:none;stroke:#90ee90;stroke-width:2;"/>
    <path clip-path="url(#p014ad25b25)" d="M 237.491107 191.309332 
L 237.491107 171.921855 
" style="fill:none;stroke:#90ee90;stroke-width:2;"/>
    <path clip-path="url(#p014ad25b25)" d="M 240.233622 193.292942 
L 240.233622 174.058414 
" style="fill:none;stroke:#90ee90;stroke-width:2;"/>
    <path clip-path="url(#p014ad25b25)" d="M 242.976137 195.474014 
L 242.976137 176.078298 
" style="fill:none;stroke:#90ee90;stroke-width:2;"/>
    <path clip-path="url(#p014ad25b25)" d="M 245.718653 197.526437 
L 245.718653 178.146045 
" style="fill:none;stroke:#90ee90;stroke-width:2;"/>
    <path clip-path="url(#p014ad25b25)" d="M 248.461168 199.53191 
L 248.461168 180.220347 
" style="fill:none;stroke:#90ee90;stroke-width:2;"/>
    <path clip-path="url(#p014ad25b25)" d="M 251.203684 201.61766 
L 251.203684 182.335553 
" style="fill:none;stroke:#90ee90;stroke-width:2;"/>
    <path clip-path="url(#p014ad25b25)" d="M 253.946199 204.162842 
L 253.946199 184.516447 
" style="fill:none;stroke:#90ee90;stroke-width:2;"/>
    <path clip-path="url(#p014ad25b25)" d="M 256.688714 206.20273 
L 256.688714 186.556335 
" style="fill:none;stroke:#90ee90;stroke-width:2;"/>
    <path clip-path="url(#p014ad25b25)" d="M 259.43123 208.985482 
L 259.43123 188.459265 
" style="fill:none;stroke:#90ee90;stroke-width:2;"/>
    <path clip-path="url(#p014ad25b25)" d="M 262.173745 211.218696 
L 262.173745 190.588583 
" style="fill:none;stroke:#90ee90;stroke-width:2;"/>
    <path clip-path="url(#p014ad25b25)" d="M 264.91626 213.265855 
L 264.91626 192.823168 
" style="fill:none;stroke:#90ee90;stroke-width:2;"/>
    <path clip-path="url(#p014ad25b25)" d="M 267.658776 216.207408 
L 267.658776 194.728873 
" style="fill:none;stroke:#90ee90;stroke-width:2;"/>
    <path clip-path="url(#p014ad25b25)" d="M 270.401291 218.249261 
L 270.401291 196.847583 
" style="fill:none;stroke:#90ee90;stroke-width:2;"/>
    <path clip-path="url(#p014ad25b25)" d="M 273.143807 220.925576 
L 273.143807 199.099313 
" style="fill:none;stroke:#90ee90;stroke-width:2;"/>
    <path clip-path="url(#p014ad25b25)" d="M 275.886322 223.955472 
L 275.886322 201.643764 
" style="fill:none;stroke:#90ee90;stroke-width:2;"/>
    <path clip-path="url(#p014ad25b25)" d="M 278.628837 226.031534 
L 278.628837 203.849446 
" style="fill:none;stroke:#90ee90;stroke-width:2;"/>
    <path clip-path="url(#p014ad25b25)" d="M 281.371353 228.112971 
L 281.371353 206.00936 
" style="fill:none;stroke:#90ee90;stroke-width:2;"/>
    <path clip-path="url(#p014ad25b25)" d="M 284.113868 230.278581 
L 284.113868 208.206281 
" style="fill:none;stroke:#90ee90;stroke-width:2;"/>
    <path clip-path="url(#p014ad25b25)" d="M 286.856383 232.35673 
L 286.856383 210.248301 
" style="fill:none;stroke:#90ee90;stroke-width:2;"/>
    <path clip-path="url(#p014ad25b25)" d="M 289.598899 234.477236 
L 289.598899 212.328752 
" style="fill:none;stroke:#90ee90;stroke-width:2;"/>
    <path clip-path="url(#p014ad25b25)" d="M 292.341414 236.533066 
L 292.341414 214.433485 
" style="fill:none;stroke:#90ee90;stroke-width:2;"/>
    <path clip-path="url(#p014ad25b25)" d="M 295.08393 238.743958 
L 295.08393 216.544731 
" style="fill:none;stroke:#90ee90;stroke-width:2;"/>
    <path clip-path="url(#p014ad25b25)" d="M 297.826445 240.803 
L 297.826445 218.646252 
" style="fill:none;stroke:#90ee90;stroke-width:2;"/>
    <path clip-path="url(#p014ad25b25)" d="M 300.56896 243.067984 
L 300.56896 220.784193 
" style="fill:none;stroke:#90ee90;stroke-width:2;"/>
    <path clip-path="url(#p014ad25b25)" d="M 303.311476 244.988094 
L 303.311476 222.863071 
" style="fill:none;stroke:#90ee90;stroke-width:2;"/>
    <path clip-path="url(#p014ad25b25)" d="M 306.053991 247.076072 
L 306.053991 225.016444 
" style="fill:none;stroke:#90ee90;stroke-width:2;"/>
    <path clip-path="url(#p014ad25b25)" d="M 308.796506 249.327989 
L 308.796506 227.086665 
" style="fill:none;stroke:#90ee90;stroke-width:2;"/>
    <path clip-path="url(#p014ad25b25)" d="M 311.539022 251.367876 
L 311.539022 229.126552 
" style="fill:none;stroke:#90ee90;stroke-width:2;"/>
    <path clip-path="url(#p014ad25b25)" d="M 314.281537 253.447587 
L 314.281537 231.247798 
" style="fill:none;stroke:#90ee90;stroke-width:2;"/>
    <path clip-path="url(#p014ad25b25)" d="M 317.024052 255.589984 
L 317.024052 233.346752 
" style="fill:none;stroke:#90ee90;stroke-width:2;"/>
    <path clip-path="url(#p014ad25b25)" d="M 319.766568 257.636685 
L 319.766568 235.42022 
" style="fill:none;stroke:#90ee90;stroke-width:2;"/>
    <path clip-path="url(#p014ad25b25)" d="M 322.509083 259.797015 
L 322.509083 237.662815 
" style="fill:none;stroke:#90ee90;stroke-width:2;"/>
    <path clip-path="url(#p014ad25b25)" d="M 325.251599 262.200275 
L 325.251599 239.824056 
" style="fill:none;stroke:#90ee90;stroke-width:2;"/>
    <path clip-path="url(#p014ad25b25)" d="M 327.994114 264.649035 
L 327.994114 242.020585 
" style="fill:none;stroke:#90ee90;stroke-width:2;"/>
    <path clip-path="url(#p014ad25b25)" d="M 330.736629 266.688923 
L 330.736629 244.060473 
" style="fill:none;stroke:#90ee90;stroke-width:2;"/>
    <path clip-path="url(#p014ad25b25)" d="M 333.479145 268.804819 
L 333.479145 246.145533 
" style="fill:none;stroke:#90ee90;stroke-width:2;"/>
    <path clip-path="url(#p014ad25b25)" d="M 336.22166 270.922262 
L 336.22166 248.269441 
" style="fill:none;stroke:#90ee90;stroke-width:2;"/>
    <path clip-path="url(#p014ad25b25)" d="M 338.964175 272.870057 
L 338.964175 250.320633 
" style="fill:none;stroke:#90ee90;stroke-width:2;"/>
    <path clip-path="url(#p014ad25b25)" d="M 341.706691 274.921011 
L 341.706691 252.349454 
" style="fill:none;stroke:#90ee90;stroke-width:2;"/>
    <path clip-path="url(#p014ad25b25)" d="M 344.449206 277.002828 
L 344.449206 254.549382 
" style="fill:none;stroke:#90ee90;stroke-width:2;"/>
    <path clip-path="url(#p014ad25b25)" d="M 347.191722 279.003358 
L 347.191722 256.66902 
" style="fill:none;stroke:#90ee90;stroke-width:2;"/>
    <path clip-path="url(#p014ad25b25)" d="M 349.934237 281.25546 
L 349.934237 258.981419 
" style="fill:none;stroke:#90ee90;stroke-width:2;"/>
    <path clip-path="url(#p014ad25b25)" d="M 352.676752 283.330809 
L 352.676752 261.066634 
" style="fill:none;stroke:#90ee90;stroke-width:2;"/>
    <path clip-path="url(#p014ad25b25)" d="M 355.419268 285.270656 
L 355.419268 263.08538 
" style="fill:none;stroke:#90ee90;stroke-width:2;"/>
    <path clip-path="url(#p014ad25b25)" d="M 358.161783 287.303905 
L 358.161783 265.1723 
" style="fill:none;stroke:#90ee90;stroke-width:2;"/>
    <path clip-path="url(#p014ad25b25)" d="M 360.904298 289.311297 
L 360.904298 267.325472 
" style="fill:none;stroke:#90ee90;stroke-width:2;"/>
    <path clip-path="url(#p014ad25b25)" d="M 363.646814 291.482959 
L 363.646814 269.475947 
" style="fill:none;stroke:#90ee90;stroke-width:2;"/>
    <path clip-path="url(#p014ad25b25)" d="M 366.389329 293.789532 
L 366.389329 271.855057 
" style="fill:none;stroke:#90ee90;stroke-width:2;"/>
    <path clip-path="url(#p014ad25b25)" d="M 369.131845 295.929865 
L 369.131845 274.036862 
" style="fill:none;stroke:#90ee90;stroke-width:2;"/>
    <path clip-path="url(#p014ad25b25)" d="M 371.87436 298.657754 
L 371.87436 276.560169 
" style="fill:none;stroke:#90ee90;stroke-width:2;"/>
    <path clip-path="url(#p014ad25b25)" d="M 374.616875 300.713604 
L 374.616875 278.664882 
" style="fill:none;stroke:#90ee90;stroke-width:2;"/>
    <path clip-path="url(#p014ad25b25)" d="M 377.359391 302.70966 
L 377.359391 280.708207 
" style="fill:none;stroke:#90ee90;stroke-width:2;"/>
    <path clip-path="url(#p014ad25b25)" d="M 380.101906 304.786415 
L 380.101906 282.832409 
" style="fill:none;stroke:#90ee90;stroke-width:2;"/>
    <path clip-path="url(#p014ad25b25)" d="M 382.844421 307.089412 
L 382.844421 285.134307 
" style="fill:none;stroke:#90ee90;stroke-width:2;"/>
    <path clip-path="url(#p014ad25b25)" d="M 385.586937 309.331923 
L 385.586937 287.133146 
" style="fill:none;stroke:#90ee90;stroke-width:2;"/>
    <path clip-path="url(#p014ad25b25)" d="M 388.329452 311.341778 
L 388.329452 289.203066 
" style="fill:none;stroke:#90ee90;stroke-width:2;"/>
    <path clip-path="url(#p014ad25b25)" d="M 391.071967 313.392322 
L 391.071967 291.313085 
" style="fill:none;stroke:#90ee90;stroke-width:2;"/>
    <path clip-path="url(#p014ad25b25)" d="M 393.814483 315.46906 
L 393.814483 293.39691 
" style="fill:none;stroke:#90ee90;stroke-width:2;"/>
    <path clip-path="url(#p014ad25b25)" d="M 396.556998 317.741955 
L 396.556998 295.688515 
" style="fill:none;stroke:#90ee90;stroke-width:2;"/>
    <path clip-path="url(#p014ad25b25)" d="M 399.299514 319.709908 
L 399.299514 297.800338 
" style="fill:none;stroke:#90ee90;stroke-width:2;"/>
    <path clip-path="url(#p014ad25b25)" d="M 402.042029 321.731542 
L 402.042029 299.898873 
" style="fill:none;stroke:#90ee90;stroke-width:2;"/>
    <path clip-path="url(#p014ad25b25)" d="M 404.784544 323.69744 
L 404.784544 301.931963 
" style="fill:none;stroke:#90ee90;stroke-width:2;"/>
    <path clip-path="url(#p014ad25b25)" d="M 407.52706 325.80818 
L 407.52706 304.02218 
" style="fill:none;stroke:#90ee90;stroke-width:2;"/>
    <path clip-path="url(#p014ad25b25)" d="M 410.269575 327.865038 
L 410.269575 306.125884 
" style="fill:none;stroke:#90ee90;stroke-width:2;"/>
    <path clip-path="url(#p014ad25b25)" d="M 413.01209 330.055926 
L 413.01209 308.176346 
" style="fill:none;stroke:#90ee90;stroke-width:2;"/>
    <path clip-path="url(#p014ad25b25)" d="M 415.754606 332.12 
L 415.754606 310.313229 
" style="fill:none;stroke:#90ee90;stroke-width:2;"/>
   </g>
   <g id="LineCollection_2">
    <path clip-path="url(#p014ad25b25)" d="M 40.03 26.16 
L 40.03 26.16 
" style="fill:none;stroke:#87ceeb;stroke-width:2;"/>
    <path clip-path="url(#p014ad25b25)" d="M 42.772515 30.239775 
L 42.772515 30.239775 
" style="fill:none;stroke:#87ceeb;stroke-width:2;"/>
    <path clip-path="url(#p014ad25b25)" d="M 45.515031 32.279663 
L 45.515031 32.279663 
" style="fill:none;stroke:#87ceeb;stroke-width:2;"/>
    <path clip-path="url(#p014ad25b25)" d="M 48.257546 34.31955 
L 48.257546 34.31955 
" style="fill:none;stroke:#87ceeb;stroke-width:2;"/>
    <path clip-path="url(#p014ad25b25)" d="M 51.000061 36.359438 
L 51.000061 36.359438 
" style="fill:none;stroke:#87ceeb;stroke-width:2;"/>
    <path clip-path="url(#p014ad25b25)" d="M 53.742577 38.399326 
L 53.742577 38.399326 
" style="fill:none;stroke:#87ceeb;stroke-width:2;"/>
    <path clip-path="url(#p014ad25b25)" d="M 56.485092 40.439213 
L 56.485092 40.439213 
" style="fill:none;stroke:#87ceeb;stroke-width:2;"/>
    <path clip-path="url(#p014ad25b25)" d="M 59.227608 42.479101 
L 59.227608 42.479101 
" style="fill:none;stroke:#87ceeb;stroke-width:2;"/>
    <path clip-path="url(#p014ad25b25)" d="M 61.970123 44.518988 
L 61.970123 44.518988 
" style="fill:none;stroke:#87ceeb;stroke-width:2;"/>
    <path clip-path="url(#p014ad25b25)" d="M 64.712638 46.558876 
L 64.712638 46.558876 
" style="fill:none;stroke:#87ceeb;stroke-width:2;"/>
    <path clip-path="url(#p014ad25b25)" d="M 67.455154 48.598764 
L 67.455154 48.598764 
" style="fill:none;stroke:#87ceeb;stroke-width:2;"/>
    <path clip-path="url(#p014ad25b25)" d="M 70.197669 50.638651 
L 70.197669 50.638651 
" style="fill:none;stroke:#87ceeb;stroke-width:2;"/>
    <path clip-path="url(#p014ad25b25)" d="M 72.940184 52.678539 
L 72.940184 52.678539 
" style="fill:none;stroke:#87ceeb;stroke-width:2;"/>
    <path clip-path="url(#p014ad25b25)" d="M 75.6827 56.758314 
L 75.6827 56.758314 
" style="fill:none;stroke:#87ceeb;stroke-width:2;"/>
    <path clip-path="url(#p014ad25b25)" d="M 78.425215 58.798202 
L 78.425215 58.798202 
" style="fill:none;stroke:#87ceeb;stroke-width:2;"/>
    <path clip-path="url(#p014ad25b25)" d="M 81.167731 60.838089 
L 81.167731 60.838089 
" style="fill:none;stroke:#87ceeb;stroke-width:2;"/>
    <path clip-path="url(#p014ad25b25)" d="M 83.910246 64.917865 
L 83.910246 64.917865 
" style="fill:none;stroke:#87ceeb;stroke-width:2;"/>
    <path clip-path="url(#p014ad25b25)" d="M 86.652761 66.957752 
L 86.652761 66.957752 
" style="fill:none;stroke:#87ceeb;stroke-width:2;"/>
    <path clip-path="url(#p014ad25b25)" d="M 89.395277 68.99764 
L 89.395277 68.99764 
" style="fill:none;stroke:#87ceeb;stroke-width:2;"/>
    <path clip-path="url(#p014ad25b25)" d="M 92.137792 71.037527 
L 92.137792 71.037527 
" style="fill:none;stroke:#87ceeb;stroke-width:2;"/>
    <path clip-path="url(#p014ad25b25)" d="M 94.880307 75.117303 
L 94.880307 75.117303 
" style="fill:none;stroke:#87ceeb;stroke-width:2;"/>
    <path clip-path="url(#p014ad25b25)" d="M 97.622823 77.15719 
L 97.622823 77.15719 
" style="fill:none;stroke:#87ceeb;stroke-width:2;"/>
    <path clip-path="url(#p014ad25b25)" d="M 100.365338 79.197078 
L 100.365338 79.197078 
" style="fill:none;stroke:#87ceeb;stroke-width:2;"/>
    <path clip-path="url(#p014ad25b25)" d="M 103.107854 81.236965 
L 103.107854 81.236965 
" style="fill:none;stroke:#87ceeb;stroke-width:2;"/>
    <path clip-path="url(#p014ad25b25)" d="M 105.850369 83.276853 
L 105.850369 83.276853 
" style="fill:none;stroke:#87ceeb;stroke-width:2;"/>
    <path clip-path="url(#p014ad25b25)" d="M 108.592884 85.316741 
L 108.592884 85.316741 
" style="fill:none;stroke:#87ceeb;stroke-width:2;"/>
    <path clip-path="url(#p014ad25b25)" d="M 111.3354 87.356628 
L 111.3354 87.356628 
" style="fill:none;stroke:#87ceeb;stroke-width:2;"/>
    <path clip-path="url(#p014ad25b25)" d="M 114.077915 89.396516 
L 114.077915 89.396516 
" style="fill:none;stroke:#87ceeb;stroke-width:2;"/>
    <path clip-path="url(#p014ad25b25)" d="M 116.82043 91.436403 
L 116.82043 91.436403 
" style="fill:none;stroke:#87ceeb;stroke-width:2;"/>
    <path clip-path="url(#p014ad25b25)" d="M 119.562946 93.476291 
L 119.562946 93.476291 
" style="fill:none;stroke:#87ceeb;stroke-width:2;"/>
    <path clip-path="url(#p014ad25b25)" d="M 122.305461 95.516179 
L 122.305461 95.516179 
" style="fill:none;stroke:#87ceeb;stroke-width:2;"/>
    <path clip-path="url(#p014ad25b25)" d="M 125.047977 97.556066 
L 125.047977 97.556066 
" style="fill:none;stroke:#87ceeb;stroke-width:2;"/>
    <path clip-path="url(#p014ad25b25)" d="M 127.790492 99.595954 
L 127.790492 99.595954 
" style="fill:none;stroke:#87ceeb;stroke-width:2;"/>
    <path clip-path="url(#p014ad25b25)" d="M 130.533007 101.635842 
L 130.533007 101.635842 
" style="fill:none;stroke:#87ceeb;stroke-width:2;"/>
    <path clip-path="url(#p014ad25b25)" d="M 133.275523 103.675729 
L 133.275523 103.675729 
" style="fill:none;stroke:#87ceeb;stroke-width:2;"/>
    <path clip-path="url(#p014ad25b25)" d="M 136.018038 105.715617 
L 136.018038 105.715617 
" style="fill:none;stroke:#87ceeb;stroke-width:2;"/>
    <path clip-path="url(#p014ad25b25)" d="M 138.760553 107.755504 
L 138.760553 107.755504 
" style="fill:none;stroke:#87ceeb;stroke-width:2;"/>
    <path clip-path="url(#p014ad25b25)" d="M 141.503069 109.795392 
L 141.503069 109.795392 
" style="fill:none;stroke:#87ceeb;stroke-width:2;"/>
    <path clip-path="url(#p014ad25b25)" d="M 144.245584 111.83528 
L 144.245584 111.83528 
" style="fill:none;stroke:#87ceeb;stroke-width:2;"/>
    <path clip-path="url(#p014ad25b25)" d="M 146.988099 113.875167 
L 146.988099 113.875167 
" style="fill:none;stroke:#87ceeb;stroke-width:2;"/>
    <path clip-path="url(#p014ad25b25)" d="M 149.730615 115.915055 
L 149.730615 115.915055 
" style="fill:none;stroke:#87ceeb;stroke-width:2;"/>
    <path clip-path="url(#p014ad25b25)" d="M 152.47313 117.954942 
L 152.47313 117.954942 
" style="fill:none;stroke:#87ceeb;stroke-width:2;"/>
    <path clip-path="url(#p014ad25b25)" d="M 155.215646 119.99483 
L 155.215646 119.99483 
" style="fill:none;stroke:#87ceeb;stroke-width:2;"/>
    <path clip-path="url(#p014ad25b25)" d="M 157.958161 122.034718 
L 157.958161 122.034718 
" style="fill:none;stroke:#87ceeb;stroke-width:2;"/>
    <path clip-path="url(#p014ad25b25)" d="M 160.700676 124.074605 
L 160.700676 124.074605 
" style="fill:none;stroke:#87ceeb;stroke-width:2;"/>
    <path clip-path="url(#p014ad25b25)" d="M 163.443192 126.114493 
L 163.443192 126.114493 
" style="fill:none;stroke:#87ceeb;stroke-width:2;"/>
    <path clip-path="url(#p014ad25b25)" d="M 166.185707 128.15438 
L 166.185707 128.15438 
" style="fill:none;stroke:#87ceeb;stroke-width:2;"/>
    <path clip-path="url(#p014ad25b25)" d="M 168.928222 130.194268 
L 168.928222 130.194268 
" style="fill:none;stroke:#87ceeb;stroke-width:2;"/>
    <path clip-path="url(#p014ad25b25)" d="M 171.670738 132.234156 
L 171.670738 132.234156 
" style="fill:none;stroke:#87ceeb;stroke-width:2;"/>
    <path clip-path="url(#p014ad25b25)" d="M 174.413253 134.274043 
L 174.413253 134.274043 
" style="fill:none;stroke:#87ceeb;stroke-width:2;"/>
    <path clip-path="url(#p014ad25b25)" d="M 177.155769 136.313931 
L 177.155769 136.313931 
" style="fill:none;stroke:#87ceeb;stroke-width:2;"/>
    <path clip-path="url(#p014ad25b25)" d="M 179.898284 138.353819 
L 179.898284 138.353819 
" style="fill:none;stroke:#87ceeb;stroke-width:2;"/>
    <path clip-path="url(#p014ad25b25)" d="M 182.640799 140.393706 
L 182.640799 140.393706 
" style="fill:none;stroke:#87ceeb;stroke-width:2;"/>
    <path clip-path="url(#p014ad25b25)" d="M 185.383315 142.433594 
L 185.383315 142.433594 
" style="fill:none;stroke:#87ceeb;stroke-width:2;"/>
    <path clip-path="url(#p014ad25b25)" d="M 188.12583 144.473481 
L 188.12583 144.473481 
" style="fill:none;stroke:#87ceeb;stroke-width:2;"/>
    <path clip-path="url(#p014ad25b25)" d="M 190.868345 146.513369 
L 190.868345 146.513369 
" style="fill:none;stroke:#87ceeb;stroke-width:2;"/>
    <path clip-path="url(#p014ad25b25)" d="M 193.610861 148.553257 
L 193.610861 148.553257 
" style="fill:none;stroke:#87ceeb;stroke-width:2;"/>
    <path clip-path="url(#p014ad25b25)" d="M 196.353376 150.593144 
L 196.353376 150.593144 
" style="fill:none;stroke:#87ceeb;stroke-width:2;"/>
    <path clip-path="url(#p014ad25b25)" d="M 199.095892 152.633032 
L 199.095892 152.633032 
" style="fill:none;stroke:#87ceeb;stroke-width:2;"/>
    <path clip-path="url(#p014ad25b25)" d="M 201.838407 154.672919 
L 201.838407 154.672919 
" style="fill:none;stroke:#87ceeb;stroke-width:2;"/>
    <path clip-path="url(#p014ad25b25)" d="M 204.580922 156.712807 
L 204.580922 156.712807 
" style="fill:none;stroke:#87ceeb;stroke-width:2;"/>
    <path clip-path="url(#p014ad25b25)" d="M 207.323438 158.752695 
L 207.323438 158.752695 
" style="fill:none;stroke:#87ceeb;stroke-width:2;"/>
    <path clip-path="url(#p014ad25b25)" d="M 210.065953 160.792582 
L 210.065953 160.792582 
" style="fill:none;stroke:#87ceeb;stroke-width:2;"/>
    <path clip-path="url(#p014ad25b25)" d="M 212.808468 162.83247 
L 212.808468 162.83247 
" style="fill:none;stroke:#87ceeb;stroke-width:2;"/>
    <path clip-path="url(#p014ad25b25)" d="M 215.550984 164.872357 
L 215.550984 164.872357 
" style="fill:none;stroke:#87ceeb;stroke-width:2;"/>
    <path clip-path="url(#p014ad25b25)" d="M 218.293499 166.912245 
L 218.293499 166.912245 
" style="fill:none;stroke:#87ceeb;stroke-width:2;"/>
    <path clip-path="url(#p014ad25b25)" d="M 221.036014 168.952133 
L 221.036014 168.952133 
" style="fill:none;stroke:#87ceeb;stroke-width:2;"/>
    <path clip-path="url(#p014ad25b25)" d="M 223.77853 170.99202 
L 223.77853 170.99202 
" style="fill:none;stroke:#87ceeb;stroke-width:2;"/>
    <path clip-path="url(#p014ad25b25)" d="M 226.521045 173.031908 
L 226.521045 173.031908 
" style="fill:none;stroke:#87ceeb;stroke-width:2;"/>
    <path clip-path="url(#p014ad25b25)" d="M 229.263561 175.071795 
L 229.263561 175.071795 
" style="fill:none;stroke:#87ceeb;stroke-width:2;"/>
    <path clip-path="url(#p014ad25b25)" d="M 232.006076 177.111683 
L 232.006076 177.111683 
" style="fill:none;stroke:#87ceeb;stroke-width:2;"/>
    <path clip-path="url(#p014ad25b25)" d="M 234.748591 179.151571 
L 234.748591 179.151571 
" style="fill:none;stroke:#87ceeb;stroke-width:2;"/>
    <path clip-path="url(#p014ad25b25)" d="M 237.491107 181.191458 
L 237.491107 181.191458 
" style="fill:none;stroke:#87ceeb;stroke-width:2;"/>
    <path clip-path="url(#p014ad25b25)" d="M 240.233622 183.231346 
L 240.233622 183.231346 
" style="fill:none;stroke:#87ceeb;stroke-width:2;"/>
    <path clip-path="url(#p014ad25b25)" d="M 242.976137 185.271234 
L 242.976137 185.271234 
" style="fill:none;stroke:#87ceeb;stroke-width:2;"/>
    <path clip-path="url(#p014ad25b25)" d="M 245.718653 187.311121 
L 245.718653 187.311121 
" style="fill:none;stroke:#87ceeb;stroke-width:2;"/>
    <path clip-path="url(#p014ad25b25)" d="M 248.461168 189.351009 
L 248.461168 189.351009 
" style="fill:none;stroke:#87ceeb;stroke-width:2;"/>
    <path clip-path="url(#p014ad25b25)" d="M 251.203684 191.390896 
L 251.203684 191.390896 
" style="fill:none;stroke:#87ceeb;stroke-width:2;"/>
    <path clip-path="url(#p014ad25b25)" d="M 253.946199 194.421355 
L 253.946199 193.005726 
" style="fill:none;stroke:#87ceeb;stroke-width:2;"/>
    <path clip-path="url(#p014ad25b25)" d="M 256.688714 197.510559 
L 256.688714 197.510559 
" style="fill:none;stroke:#87ceeb;stroke-width:2;"/>
    <path clip-path="url(#p014ad25b25)" d="M 259.43123 199.550447 
L 259.43123 199.550447 
" style="fill:none;stroke:#87ceeb;stroke-width:2;"/>
    <path clip-path="url(#p014ad25b25)" d="M 262.173745 201.590334 
L 262.173745 201.590334 
" style="fill:none;stroke:#87ceeb;stroke-width:2;"/>
    <path clip-path="url(#p014ad25b25)" d="M 264.91626 203.630222 
L 264.91626 203.630222 
" style="fill:none;stroke:#87ceeb;stroke-width:2;"/>
    <path clip-path="url(#p014ad25b25)" d="M 267.658776 205.67011 
L 267.658776 205.67011 
" style="fill:none;stroke:#87ceeb;stroke-width:2;"/>
    <path clip-path="url(#p014ad25b25)" d="M 270.401291 207.709997 
L 270.401291 207.709997 
" style="fill:none;stroke:#87ceeb;stroke-width:2;"/>
    <path clip-path="url(#p014ad25b25)" d="M 273.143807 210.610311 
L 273.143807 209.333791 
" style="fill:none;stroke:#87ceeb;stroke-width:2;"/>
    <path clip-path="url(#p014ad25b25)" d="M 275.886322 213.240716 
L 275.886322 211.429462 
" style="fill:none;stroke:#87ceeb;stroke-width:2;"/>
    <path clip-path="url(#p014ad25b25)" d="M 278.628837 215.839048 
L 278.628837 213.799569 
" style="fill:none;stroke:#87ceeb;stroke-width:2;"/>
    <path clip-path="url(#p014ad25b25)" d="M 281.371353 218.267613 
L 281.371353 216.501018 
" style="fill:none;stroke:#87ceeb;stroke-width:2;"/>
    <path clip-path="url(#p014ad25b25)" d="M 284.113868 219.949323 
L 284.113868 219.949323 
" style="fill:none;stroke:#87ceeb;stroke-width:2;"/>
    <path clip-path="url(#p014ad25b25)" d="M 286.856383 221.98921 
L 286.856383 221.98921 
" style="fill:none;stroke:#87ceeb;stroke-width:2;"/>
    <path clip-path="url(#p014ad25b25)" d="M 289.598899 224.029098 
L 289.598899 224.029098 
" style="fill:none;stroke:#87ceeb;stroke-width:2;"/>
    <path clip-path="url(#p014ad25b25)" d="M 292.341414 226.068986 
L 292.341414 226.068986 
" style="fill:none;stroke:#87ceeb;stroke-width:2;"/>
    <path clip-path="url(#p014ad25b25)" d="M 295.08393 228.108873 
L 295.08393 228.108873 
" style="fill:none;stroke:#87ceeb;stroke-width:2;"/>
    <path clip-path="url(#p014ad25b25)" d="M 297.826445 230.148761 
L 297.826445 230.148761 
" style="fill:none;stroke:#87ceeb;stroke-width:2;"/>
    <path clip-path="url(#p014ad25b25)" d="M 300.56896 232.188649 
L 300.56896 232.188649 
" style="fill:none;stroke:#87ceeb;stroke-width:2;"/>
    <path clip-path="url(#p014ad25b25)" d="M 303.311476 234.228536 
L 303.311476 234.228536 
" style="fill:none;stroke:#87ceeb;stroke-width:2;"/>
    <path clip-path="url(#p014ad25b25)" d="M 306.053991 236.268424 
L 306.053991 236.268424 
" style="fill:none;stroke:#87ceeb;stroke-width:2;"/>
    <path clip-path="url(#p014ad25b25)" d="M 308.796506 238.308311 
L 308.796506 238.308311 
" style="fill:none;stroke:#87ceeb;stroke-width:2;"/>
    <path clip-path="url(#p014ad25b25)" d="M 311.539022 240.348199 
L 311.539022 240.348199 
" style="fill:none;stroke:#87ceeb;stroke-width:2;"/>
    <path clip-path="url(#p014ad25b25)" d="M 314.281537 242.388087 
L 314.281537 242.388087 
" style="fill:none;stroke:#87ceeb;stroke-width:2;"/>
    <path clip-path="url(#p014ad25b25)" d="M 317.024052 244.427974 
L 317.024052 244.427974 
" style="fill:none;stroke:#87ceeb;stroke-width:2;"/>
    <path clip-path="url(#p014ad25b25)" d="M 319.766568 246.467862 
L 319.766568 246.467862 
" style="fill:none;stroke:#87ceeb;stroke-width:2;"/>
    <path clip-path="url(#p014ad25b25)" d="M 322.509083 248.507749 
L 322.509083 248.507749 
" style="fill:none;stroke:#87ceeb;stroke-width:2;"/>
    <path clip-path="url(#p014ad25b25)" d="M 325.251599 250.956206 
L 325.251599 250.260249 
" style="fill:none;stroke:#87ceeb;stroke-width:2;"/>
    <path clip-path="url(#p014ad25b25)" d="M 327.994114 253.068047 
L 327.994114 252.268578 
" style="fill:none;stroke:#87ceeb;stroke-width:2;"/>
    <path clip-path="url(#p014ad25b25)" d="M 330.736629 255.53266 
L 330.736629 254.20689 
" style="fill:none;stroke:#87ceeb;stroke-width:2;"/>
    <path clip-path="url(#p014ad25b25)" d="M 333.479145 257.814543 
L 333.479145 256.247145 
" style="fill:none;stroke:#87ceeb;stroke-width:2;"/>
    <path clip-path="url(#p014ad25b25)" d="M 336.22166 259.854431 
L 336.22166 258.287033 
" style="fill:none;stroke:#87ceeb;stroke-width:2;"/>
    <path clip-path="url(#p014ad25b25)" d="M 338.964175 261.894319 
L 338.964175 260.32692 
" style="fill:none;stroke:#87ceeb;stroke-width:2;"/>
    <path clip-path="url(#p014ad25b25)" d="M 341.706691 264.206847 
L 341.706691 262.417318 
" style="fill:none;stroke:#87ceeb;stroke-width:2;"/>
    <path clip-path="url(#p014ad25b25)" d="M 344.449206 266.338184 
L 344.449206 264.486937 
" style="fill:none;stroke:#87ceeb;stroke-width:2;"/>
    <path clip-path="url(#p014ad25b25)" d="M 347.191722 268.407439 
L 347.191722 266.537851 
" style="fill:none;stroke:#87ceeb;stroke-width:2;"/>
    <path clip-path="url(#p014ad25b25)" d="M 349.934237 270.633057 
L 349.934237 268.674765 
" style="fill:none;stroke:#87ceeb;stroke-width:2;"/>
    <path clip-path="url(#p014ad25b25)" d="M 352.676752 272.749344 
L 352.676752 270.759434 
" style="fill:none;stroke:#87ceeb;stroke-width:2;"/>
    <path clip-path="url(#p014ad25b25)" d="M 355.419268 274.789232 
L 355.419268 272.799322 
" style="fill:none;stroke:#87ceeb;stroke-width:2;"/>
    <path clip-path="url(#p014ad25b25)" d="M 358.161783 276.877843 
L 358.161783 274.871274 
" style="fill:none;stroke:#87ceeb;stroke-width:2;"/>
    <path clip-path="url(#p014ad25b25)" d="M 360.904298 279.053734 
L 360.904298 277.017521 
" style="fill:none;stroke:#87ceeb;stroke-width:2;"/>
    <path clip-path="url(#p014ad25b25)" d="M 363.646814 281.11484 
L 363.646814 279.076584 
" style="fill:none;stroke:#87ceeb;stroke-width:2;"/>
    <path clip-path="url(#p014ad25b25)" d="M 366.389329 283.154727 
L 366.389329 281.116472 
" style="fill:none;stroke:#87ceeb;stroke-width:2;"/>
    <path clip-path="url(#p014ad25b25)" d="M 369.131845 285.294578 
L 369.131845 283.258365 
" style="fill:none;stroke:#87ceeb;stroke-width:2;"/>
    <path clip-path="url(#p014ad25b25)" d="M 371.87436 287.407046 
L 371.87436 285.387248 
" style="fill:none;stroke:#87ceeb;stroke-width:2;"/>
    <path clip-path="url(#p014ad25b25)" d="M 374.616875 289.446933 
L 374.616875 287.427136 
" style="fill:none;stroke:#87ceeb;stroke-width:2;"/>
    <path clip-path="url(#p014ad25b25)" d="M 377.359391 291.732265 
L 377.359391 289.54473 
" style="fill:none;stroke:#87ceeb;stroke-width:2;"/>
    <path clip-path="url(#p014ad25b25)" d="M 380.101906 294.047733 
L 380.101906 291.712975 
" style="fill:none;stroke:#87ceeb;stroke-width:2;"/>
    <path clip-path="url(#p014ad25b25)" d="M 382.844421 296.477187 
L 382.844421 293.969204 
" style="fill:none;stroke:#87ceeb;stroke-width:2;"/>
    <path clip-path="url(#p014ad25b25)" d="M 385.586937 298.642355 
L 385.586937 296.489718 
" style="fill:none;stroke:#87ceeb;stroke-width:2;"/>
    <path clip-path="url(#p014ad25b25)" d="M 388.329452 300.822654 
L 388.329452 298.671951 
" style="fill:none;stroke:#87ceeb;stroke-width:2;"/>
    <path clip-path="url(#p014ad25b25)" d="M 391.071967 303.117385 
L 391.071967 300.860934 
" style="fill:none;stroke:#87ceeb;stroke-width:2;"/>
    <path clip-path="url(#p014ad25b25)" d="M 393.814483 305.34658 
L 393.814483 303.075058 
" style="fill:none;stroke:#87ceeb;stroke-width:2;"/>
    <path clip-path="url(#p014ad25b25)" d="M 396.556998 307.471158 
L 396.556998 305.272618 
" style="fill:none;stroke:#87ceeb;stroke-width:2;"/>
    <path clip-path="url(#p014ad25b25)" d="M 399.299514 309.648586 
L 399.299514 307.53851 
" style="fill:none;stroke:#87ceeb;stroke-width:2;"/>
    <path clip-path="url(#p014ad25b25)" d="M 402.042029 311.885697 
L 402.042029 309.865899 
" style="fill:none;stroke:#87ceeb;stroke-width:2;"/>
    <path clip-path="url(#p014ad25b25)" d="M 404.784544 314.03621 
L 404.784544 312.077918 
" style="fill:none;stroke:#87ceeb;stroke-width:2;"/>
    <path clip-path="url(#p014ad25b25)" d="M 407.52706 316.543754 
L 407.52706 314.054088 
" style="fill:none;stroke:#87ceeb;stroke-width:2;"/>
    <path clip-path="url(#p014ad25b25)" d="M 410.269575 318.781988 
L 410.269575 316.137992 
" style="fill:none;stroke:#87ceeb;stroke-width:2;"/>
    <path clip-path="url(#p014ad25b25)" d="M 413.01209 321.331591 
L 413.01209 318.47604 
" style="fill:none;stroke:#87ceeb;stroke-width:2;"/>
    <path clip-path="url(#p014ad25b25)" d="M 415.754606 323.685146 
L 415.754606 320.72738 
" style="fill:none;stroke:#87ceeb;stroke-width:2;"/>
   </g>
   <g id="LineCollection_3">
    <path clip-path="url(#p014ad25b25)" d="M 40.03 26.16 
L 40.03 26.16 
" style="fill:none;stroke:#f08080;"/>
    <path clip-path="url(#p014ad25b25)" d="M 42.772515 28.884905 
L 42.772515 27.757233 
" style="fill:none;stroke:#f08080;"/>
    <path clip-path="url(#p014ad25b25)" d="M 45.515031 30.976228 
L 45.515031 29.78608 
" style="fill:none;stroke:#f08080;"/>
    <path clip-path="url(#p014ad25b25)" d="M 48.257546 33.259339 
L 48.257546 31.744319 
" style="fill:none;stroke:#f08080;"/>
    <path clip-path="url(#p014ad25b25)" d="M 51.000061 35.419281 
L 51.000061 33.785333 
" style="fill:none;stroke:#f08080;"/>
    <path clip-path="url(#p014ad25b25)" d="M 53.742577 37.729734 
L 53.742577 35.756624 
" style="fill:none;stroke:#f08080;"/>
    <path clip-path="url(#p014ad25b25)" d="M 56.485092 39.835006 
L 56.485092 37.811915 
" style="fill:none;stroke:#f08080;"/>
    <path clip-path="url(#p014ad25b25)" d="M 59.227608 41.874894 
L 59.227608 39.851803 
" style="fill:none;stroke:#f08080;"/>
    <path clip-path="url(#p014ad25b25)" d="M 61.970123 44.10727 
L 61.970123 41.901171 
" style="fill:none;stroke:#f08080;"/>
    <path clip-path="url(#p014ad25b25)" d="M 64.712638 46.296722 
L 64.712638 43.953069 
" style="fill:none;stroke:#f08080;"/>
    <path clip-path="url(#p014ad25b25)" d="M 67.455154 48.416745 
L 67.455154 46.034003 
" style="fill:none;stroke:#f08080;"/>
    <path clip-path="url(#p014ad25b25)" d="M 70.197669 50.630573 
L 70.197669 48.182707 
" style="fill:none;stroke:#f08080;"/>
    <path clip-path="url(#p014ad25b25)" d="M 72.940184 52.912104 
L 72.940184 50.18292 
" style="fill:none;stroke:#f08080;"/>
    <path clip-path="url(#p014ad25b25)" d="M 75.6827 55.223656 
L 75.6827 52.314688 
" style="fill:none;stroke:#f08080;"/>
    <path clip-path="url(#p014ad25b25)" d="M 78.425215 57.365914 
L 78.425215 54.41378 
" style="fill:none;stroke:#f08080;"/>
    <path clip-path="url(#p014ad25b25)" d="M 81.167731 59.580492 
L 81.167731 56.561734 
" style="fill:none;stroke:#f08080;"/>
    <path clip-path="url(#p014ad25b25)" d="M 83.910246 61.711487 
L 83.910246 58.752877 
" style="fill:none;stroke:#f08080;"/>
    <path clip-path="url(#p014ad25b25)" d="M 86.652761 63.929797 
L 86.652761 60.816311 
" style="fill:none;stroke:#f08080;"/>
    <path clip-path="url(#p014ad25b25)" d="M 89.395277 66.061373 
L 89.395277 62.885693 
" style="fill:none;stroke:#f08080;"/>
    <path clip-path="url(#p014ad25b25)" d="M 92.137792 68.252801 
L 92.137792 64.935615 
" style="fill:none;stroke:#f08080;"/>
    <path clip-path="url(#p014ad25b25)" d="M 94.880307 70.4727 
L 94.880307 66.99746 
" style="fill:none;stroke:#f08080;"/>
    <path clip-path="url(#p014ad25b25)" d="M 97.622823 72.592587 
L 97.622823 69.078529 
" style="fill:none;stroke:#f08080;"/>
    <path clip-path="url(#p014ad25b25)" d="M 100.365338 74.632475 
L 100.365338 71.118417 
" style="fill:none;stroke:#f08080;"/>
    <path clip-path="url(#p014ad25b25)" d="M 103.107854 76.711932 
L 103.107854 73.28031 
" style="fill:none;stroke:#f08080;"/>
    <path clip-path="url(#p014ad25b25)" d="M 105.850369 78.71811 
L 105.850369 75.313514 
" style="fill:none;stroke:#f08080;"/>
    <path clip-path="url(#p014ad25b25)" d="M 108.592884 80.791707 
L 108.592884 77.360085 
" style="fill:none;stroke:#f08080;"/>
    <path clip-path="url(#p014ad25b25)" d="M 111.3354 82.954239 
L 111.3354 79.39851 
" style="fill:none;stroke:#f08080;"/>
    <path clip-path="url(#p014ad25b25)" d="M 114.077915 85.086928 
L 114.077915 81.507172 
" style="fill:none;stroke:#f08080;"/>
    <path clip-path="url(#p014ad25b25)" d="M 116.82043 87.347848 
L 116.82043 83.649177 
" style="fill:none;stroke:#f08080;"/>
    <path clip-path="url(#p014ad25b25)" d="M 119.562946 89.581303 
L 119.562946 85.737861 
" style="fill:none;stroke:#f08080;"/>
    <path clip-path="url(#p014ad25b25)" d="M 122.305461 91.813914 
L 122.305461 87.746601 
" style="fill:none;stroke:#f08080;"/>
    <path clip-path="url(#p014ad25b25)" d="M 125.047977 93.906435 
L 125.047977 89.814642 
" style="fill:none;stroke:#f08080;"/>
    <path clip-path="url(#p014ad25b25)" d="M 127.790492 96.023625 
L 127.790492 91.898409 
" style="fill:none;stroke:#f08080;"/>
    <path clip-path="url(#p014ad25b25)" d="M 130.533007 98.07342 
L 130.533007 94.009177 
" style="fill:none;stroke:#f08080;"/>
    <path clip-path="url(#p014ad25b25)" d="M 133.275523 100.163099 
L 133.275523 96.080061 
" style="fill:none;stroke:#f08080;"/>
    <path clip-path="url(#p014ad25b25)" d="M 136.018038 102.475971 
L 136.018038 98.210508 
" style="fill:none;stroke:#f08080;"/>
    <path clip-path="url(#p014ad25b25)" d="M 138.760553 104.844103 
L 138.760553 100.285696 
" style="fill:none;stroke:#f08080;"/>
    <path clip-path="url(#p014ad25b25)" d="M 141.503069 107.022549 
L 141.503069 102.388994 
" style="fill:none;stroke:#f08080;"/>
    <path clip-path="url(#p014ad25b25)" d="M 144.245584 109.250194 
L 144.245584 104.483487 
" style="fill:none;stroke:#f08080;"/>
    <path clip-path="url(#p014ad25b25)" d="M 146.988099 111.290082 
L 146.988099 106.523375 
" style="fill:none;stroke:#f08080;"/>
    <path clip-path="url(#p014ad25b25)" d="M 149.730615 113.457432 
L 149.730615 108.637768 
" style="fill:none;stroke:#f08080;"/>
    <path clip-path="url(#p014ad25b25)" d="M 152.47313 115.602422 
L 152.47313 110.85531 
" style="fill:none;stroke:#f08080;"/>
    <path clip-path="url(#p014ad25b25)" d="M 155.215646 117.810019 
L 155.215646 112.969851 
" style="fill:none;stroke:#f08080;"/>
    <path clip-path="url(#p014ad25b25)" d="M 157.958161 119.946462 
L 157.958161 115.074759 
" style="fill:none;stroke:#f08080;"/>
    <path clip-path="url(#p014ad25b25)" d="M 160.700676 121.999255 
L 160.700676 117.182528 
" style="fill:none;stroke:#f08080;"/>
    <path clip-path="url(#p014ad25b25)" d="M 163.443192 124.001366 
L 163.443192 119.300587 
" style="fill:none;stroke:#f08080;"/>
    <path clip-path="url(#p014ad25b25)" d="M 166.185707 126.233128 
L 166.185707 121.592932 
" style="fill:none;stroke:#f08080;"/>
    <path clip-path="url(#p014ad25b25)" d="M 168.928222 128.462395 
L 168.928222 123.847378 
" style="fill:none;stroke:#f08080;"/>
    <path clip-path="url(#p014ad25b25)" d="M 171.670738 130.515409 
L 171.670738 125.99532 
" style="fill:none;stroke:#f08080;"/>
    <path clip-path="url(#p014ad25b25)" d="M 174.413253 132.783864 
L 174.413253 128.00861 
" style="fill:none;stroke:#f08080;"/>
    <path clip-path="url(#p014ad25b25)" d="M 177.155769 134.86092 
L 177.155769 130.172905 
" style="fill:none;stroke:#f08080;"/>
    <path clip-path="url(#p014ad25b25)" d="M 179.898284 137.117553 
L 179.898284 132.399985 
" style="fill:none;stroke:#f08080;"/>
    <path clip-path="url(#p014ad25b25)" d="M 182.640799 139.196143 
L 182.640799 134.522352 
" style="fill:none;stroke:#f08080;"/>
    <path clip-path="url(#p014ad25b25)" d="M 185.383315 141.206463 
L 185.383315 136.6322 
" style="fill:none;stroke:#f08080;"/>
    <path clip-path="url(#p014ad25b25)" d="M 188.12583 143.287497 
L 188.12583 138.792518 
" style="fill:none;stroke:#f08080;"/>
    <path clip-path="url(#p014ad25b25)" d="M 190.868345 145.46627 
L 190.868345 140.935882 
" style="fill:none;stroke:#f08080;"/>
    <path clip-path="url(#p014ad25b25)" d="M 193.610861 147.743429 
L 193.610861 143.182831 
" style="fill:none;stroke:#f08080;"/>
    <path clip-path="url(#p014ad25b25)" d="M 196.353376 149.935964 
L 196.353376 145.231646 
" style="fill:none;stroke:#f08080;"/>
    <path clip-path="url(#p014ad25b25)" d="M 199.095892 152.109385 
L 199.095892 147.380364 
" style="fill:none;stroke:#f08080;"/>
    <path clip-path="url(#p014ad25b25)" d="M 201.838407 154.309672 
L 201.838407 149.421427 
" style="fill:none;stroke:#f08080;"/>
    <path clip-path="url(#p014ad25b25)" d="M 204.580922 156.522961 
L 204.580922 151.530276 
" style="fill:none;stroke:#f08080;"/>
    <path clip-path="url(#p014ad25b25)" d="M 207.323438 158.696419 
L 207.323438 153.598169 
" style="fill:none;stroke:#f08080;"/>
    <path clip-path="url(#p014ad25b25)" d="M 210.065953 160.865637 
L 210.065953 155.751089 
" style="fill:none;stroke:#f08080;"/>
    <path clip-path="url(#p014ad25b25)" d="M 212.808468 162.948493 
L 212.808468 157.949977 
" style="fill:none;stroke:#f08080;"/>
    <path clip-path="url(#p014ad25b25)" d="M 215.550984 165.153702 
L 215.550984 160.107299 
" style="fill:none;stroke:#f08080;"/>
    <path clip-path="url(#p014ad25b25)" d="M 218.293499 167.239955 
L 218.293499 162.141215 
" style="fill:none;stroke:#f08080;"/>
    <path clip-path="url(#p014ad25b25)" d="M 221.036014 169.476344 
L 221.036014 164.348146 
" style="fill:none;stroke:#f08080;"/>
    <path clip-path="url(#p014ad25b25)" d="M 223.77853 171.682776 
L 223.77853 166.463852 
" style="fill:none;stroke:#f08080;"/>
    <path clip-path="url(#p014ad25b25)" d="M 226.521045 173.803022 
L 226.521045 168.665744 
" style="fill:none;stroke:#f08080;"/>
    <path clip-path="url(#p014ad25b25)" d="M 229.263561 176.13815 
L 229.263561 170.854723 
" style="fill:none;stroke:#f08080;"/>
    <path clip-path="url(#p014ad25b25)" d="M 232.006076 178.234944 
L 232.006076 173.039674 
" style="fill:none;stroke:#f08080;"/>
    <path clip-path="url(#p014ad25b25)" d="M 234.748591 180.353706 
L 234.748591 175.081475 
" style="fill:none;stroke:#f08080;"/>
    <path clip-path="url(#p014ad25b25)" d="M 237.491107 182.634734 
L 237.491107 177.284159 
" style="fill:none;stroke:#f08080;"/>
    <path clip-path="url(#p014ad25b25)" d="M 240.233622 184.904995 
L 240.233622 179.416825 
" style="fill:none;stroke:#f08080;"/>
    <path clip-path="url(#p014ad25b25)" d="M 242.976137 186.970375 
L 242.976137 181.512008 
" style="fill:none;stroke:#f08080;"/>
    <path clip-path="url(#p014ad25b25)" d="M 245.718653 189.286524 
L 245.718653 183.598784 
" style="fill:none;stroke:#f08080;"/>
    <path clip-path="url(#p014ad25b25)" d="M 248.461168 191.371863 
L 248.461168 185.754796 
" style="fill:none;stroke:#f08080;"/>
    <path clip-path="url(#p014ad25b25)" d="M 251.203684 193.444113 
L 251.203684 188.004684 
" style="fill:none;stroke:#f08080;"/>
    <path clip-path="url(#p014ad25b25)" d="M 253.946199 195.632941 
L 253.946199 190.178387 
" style="fill:none;stroke:#f08080;"/>
    <path clip-path="url(#p014ad25b25)" d="M 256.688714 197.768122 
L 256.688714 192.405739 
" style="fill:none;stroke:#f08080;"/>
    <path clip-path="url(#p014ad25b25)" d="M 259.43123 199.914686 
L 259.43123 194.460132 
" style="fill:none;stroke:#f08080;"/>
    <path clip-path="url(#p014ad25b25)" d="M 262.173745 201.999236 
L 262.173745 196.536144 
" style="fill:none;stroke:#f08080;"/>
    <path clip-path="url(#p014ad25b25)" d="M 264.91626 204.14176 
L 264.91626 198.63497 
" style="fill:none;stroke:#f08080;"/>
    <path clip-path="url(#p014ad25b25)" d="M 267.658776 206.311567 
L 267.658776 200.706514 
" style="fill:none;stroke:#f08080;"/>
    <path clip-path="url(#p014ad25b25)" d="M 270.401291 208.348152 
L 270.401291 202.830492 
" style="fill:none;stroke:#f08080;"/>
    <path clip-path="url(#p014ad25b25)" d="M 273.143807 210.483792 
L 273.143807 205.057384 
" style="fill:none;stroke:#f08080;"/>
    <path clip-path="url(#p014ad25b25)" d="M 275.886322 212.789315 
L 275.886322 207.235574 
" style="fill:none;stroke:#f08080;"/>
    <path clip-path="url(#p014ad25b25)" d="M 278.628837 215.088065 
L 278.628837 209.460932 
" style="fill:none;stroke:#f08080;"/>
    <path clip-path="url(#p014ad25b25)" d="M 281.371353 217.295546 
L 281.371353 211.4948 
" style="fill:none;stroke:#f08080;"/>
    <path clip-path="url(#p014ad25b25)" d="M 284.113868 219.470237 
L 284.113868 213.56146 
" style="fill:none;stroke:#f08080;"/>
    <path clip-path="url(#p014ad25b25)" d="M 286.856383 221.707522 
L 286.856383 215.686708 
" style="fill:none;stroke:#f08080;"/>
    <path clip-path="url(#p014ad25b25)" d="M 289.598899 224.018867 
L 289.598899 217.818682 
" style="fill:none;stroke:#f08080;"/>
    <path clip-path="url(#p014ad25b25)" d="M 292.341414 226.256694 
L 292.341414 220.064568 
" style="fill:none;stroke:#f08080;"/>
    <path clip-path="url(#p014ad25b25)" d="M 295.08393 228.417327 
L 295.08393 222.185679 
" style="fill:none;stroke:#f08080;"/>
    <path clip-path="url(#p014ad25b25)" d="M 297.826445 230.529979 
L 297.826445 224.314378 
" style="fill:none;stroke:#f08080;"/>
    <path clip-path="url(#p014ad25b25)" d="M 300.56896 232.574291 
L 300.56896 226.390235 
" style="fill:none;stroke:#f08080;"/>
    <path clip-path="url(#p014ad25b25)" d="M 303.311476 234.714827 
L 303.311476 228.531443 
" style="fill:none;stroke:#f08080;"/>
    <path clip-path="url(#p014ad25b25)" d="M 306.053991 236.778273 
L 306.053991 230.668954 
" style="fill:none;stroke:#f08080;"/>
    <path clip-path="url(#p014ad25b25)" d="M 308.796506 238.908237 
L 308.796506 232.739946 
" style="fill:none;stroke:#f08080;"/>
    <path clip-path="url(#p014ad25b25)" d="M 311.539022 240.934603 
L 311.539022 234.793356 
" style="fill:none;stroke:#f08080;"/>
    <path clip-path="url(#p014ad25b25)" d="M 314.281537 243.067673 
L 314.281537 236.94203 
" style="fill:none;stroke:#f08080;"/>
    <path clip-path="url(#p014ad25b25)" d="M 317.024052 245.251381 
L 317.024052 239.040066 
" style="fill:none;stroke:#f08080;"/>
    <path clip-path="url(#p014ad25b25)" d="M 319.766568 247.460757 
L 319.766568 241.27401 
" style="fill:none;stroke:#f08080;"/>
    <path clip-path="url(#p014ad25b25)" d="M 322.509083 249.539205 
L 322.509083 243.5177 
" style="fill:none;stroke:#f08080;"/>
    <path clip-path="url(#p014ad25b25)" d="M 325.251599 251.650201 
L 325.251599 245.769236 
" style="fill:none;stroke:#f08080;"/>
    <path clip-path="url(#p014ad25b25)" d="M 327.994114 253.845698 
L 327.994114 248.13824 
" style="fill:none;stroke:#f08080;"/>
    <path clip-path="url(#p014ad25b25)" d="M 330.736629 255.951754 
L 330.736629 250.273534 
" style="fill:none;stroke:#f08080;"/>
    <path clip-path="url(#p014ad25b25)" d="M 333.479145 258.063531 
L 333.479145 252.443502 
" style="fill:none;stroke:#f08080;"/>
    <path clip-path="url(#p014ad25b25)" d="M 336.22166 260.201069 
L 336.22166 254.587708 
" style="fill:none;stroke:#f08080;"/>
    <path clip-path="url(#p014ad25b25)" d="M 338.964175 262.28353 
L 338.964175 256.746597 
" style="fill:none;stroke:#f08080;"/>
    <path clip-path="url(#p014ad25b25)" d="M 341.706691 264.419838 
L 341.706691 258.932427 
" style="fill:none;stroke:#f08080;"/>
    <path clip-path="url(#p014ad25b25)" d="M 344.449206 266.600574 
L 344.449206 261.114224 
" style="fill:none;stroke:#f08080;"/>
    <path clip-path="url(#p014ad25b25)" d="M 347.191722 268.678156 
L 347.191722 263.35878 
" style="fill:none;stroke:#f08080;"/>
    <path clip-path="url(#p014ad25b25)" d="M 349.934237 270.871317 
L 349.934237 265.447363 
" style="fill:none;stroke:#f08080;"/>
    <path clip-path="url(#p014ad25b25)" d="M 352.676752 272.849119 
L 352.676752 267.549336 
" style="fill:none;stroke:#f08080;"/>
    <path clip-path="url(#p014ad25b25)" d="M 355.419268 275.078306 
L 355.419268 269.763469 
" style="fill:none;stroke:#f08080;"/>
    <path clip-path="url(#p014ad25b25)" d="M 358.161783 277.26151 
L 358.161783 271.862008 
" style="fill:none;stroke:#f08080;"/>
    <path clip-path="url(#p014ad25b25)" d="M 360.904298 279.378132 
L 360.904298 274.067525 
" style="fill:none;stroke:#f08080;"/>
    <path clip-path="url(#p014ad25b25)" d="M 363.646814 281.45046 
L 363.646814 276.398123 
" style="fill:none;stroke:#f08080;"/>
    <path clip-path="url(#p014ad25b25)" d="M 366.389329 283.516535 
L 366.389329 278.49261 
" style="fill:none;stroke:#f08080;"/>
    <path clip-path="url(#p014ad25b25)" d="M 369.131845 285.596448 
L 369.131845 280.734835 
" style="fill:none;stroke:#f08080;"/>
    <path clip-path="url(#p014ad25b25)" d="M 371.87436 287.652963 
L 371.87436 282.879277 
" style="fill:none;stroke:#f08080;"/>
    <path clip-path="url(#p014ad25b25)" d="M 374.616875 289.759796 
L 374.616875 284.973401 
" style="fill:none;stroke:#f08080;"/>
    <path clip-path="url(#p014ad25b25)" d="M 377.359391 291.813058 
L 377.359391 287.282671 
" style="fill:none;stroke:#f08080;"/>
    <path clip-path="url(#p014ad25b25)" d="M 380.101906 293.835505 
L 380.101906 289.66315 
" style="fill:none;stroke:#f08080;"/>
    <path clip-path="url(#p014ad25b25)" d="M 382.844421 295.941278 
L 382.844421 292.04109 
" style="fill:none;stroke:#f08080;"/>
    <path clip-path="url(#p014ad25b25)" d="M 385.586937 297.989775 
L 385.586937 294.233944 
" style="fill:none;stroke:#f08080;"/>
    <path clip-path="url(#p014ad25b25)" d="M 388.329452 299.985734 
L 388.329452 296.398547 
" style="fill:none;stroke:#f08080;"/>
    <path clip-path="url(#p014ad25b25)" d="M 391.071967 302.109415 
L 391.071967 298.677792 
" style="fill:none;stroke:#f08080;"/>
    <path clip-path="url(#p014ad25b25)" d="M 393.814483 304.224268 
L 393.814483 300.885077 
" style="fill:none;stroke:#f08080;"/>
    <path clip-path="url(#p014ad25b25)" d="M 396.556998 306.252908 
L 396.556998 303.017 
" style="fill:none;stroke:#f08080;"/>
    <path clip-path="url(#p014ad25b25)" d="M 399.299514 308.334172 
L 399.299514 305.21748 
" style="fill:none;stroke:#f08080;"/>
    <path clip-path="url(#p014ad25b25)" d="M 402.042029 310.427022 
L 402.042029 307.325587 
" style="fill:none;stroke:#f08080;"/>
    <path clip-path="url(#p014ad25b25)" d="M 404.784544 312.481378 
L 404.784544 309.593369 
" style="fill:none;stroke:#f08080;"/>
    <path clip-path="url(#p014ad25b25)" d="M 407.52706 314.524289 
L 407.52706 311.953383 
" style="fill:none;stroke:#f08080;"/>
    <path clip-path="url(#p014ad25b25)" d="M 410.269575 316.507884 
L 410.269575 314.372715 
" style="fill:none;stroke:#f08080;"/>
    <path clip-path="url(#p014ad25b25)" d="M 413.01209 318.345517 
L 413.01209 316.816826 
" style="fill:none;stroke:#f08080;"/>
    <path clip-path="url(#p014ad25b25)" d="M 415.754606 319.903816 
L 415.754606 319.903816 
" style="fill:none;stroke:#f08080;"/>
   </g>
   <g id="line2d_17">
    <path clip-path="url(#p014ad25b25)" d="M 40.03 26.16 
L 415.754606 305.624602 
" style="fill:none;stroke:#000000;stroke-dasharray:3.7,1.6;stroke-dashoffset:0;"/>
   </g>
   <g id="line2d_18">
    <path clip-path="url(#p014ad25b25)" d="M 40.03 26.16 
L 56.485092 38.904248 
L 61.970123 43.085008 
L 64.712638 45.670212 
L 72.940184 52.012041 
L 75.6827 54.738623 
L 78.425215 57.263237 
L 89.395277 65.887316 
L 97.622823 72.148357 
L 100.365338 74.208442 
L 103.107854 76.57148 
L 105.850369 78.692155 
L 108.592884 81.297556 
L 122.305461 91.820145 
L 125.047977 94.20338 
L 127.790492 96.263464 
L 133.275523 100.525012 
L 141.503069 106.745659 
L 152.47313 115.450526 
L 168.928222 127.932214 
L 171.670738 130.275056 
L 177.155769 134.395225 
L 207.323438 157.581274 
L 212.808468 162.266956 
L 221.036014 168.527998 
L 229.263561 174.91022 
L 232.006076 177.273258 
L 234.748591 179.313146 
L 237.491107 181.615593 
L 251.203684 191.976607 
L 253.946199 194.339645 
L 256.688714 196.379532 
L 259.43123 198.722374 
L 264.91626 203.044512 
L 267.658776 205.468141 
L 270.401291 207.548422 
L 273.143807 210.012445 
L 275.886322 212.799618 
L 289.598899 223.402994 
L 297.826445 229.724626 
L 300.56896 231.926089 
L 306.053991 236.046258 
L 311.539022 240.247214 
L 322.509083 248.729915 
L 327.994114 253.33481 
L 333.479145 257.475176 
L 338.964175 261.595345 
L 347.191722 267.836189 
L 349.934237 270.11844 
L 363.646814 280.479453 
L 366.389329 282.822294 
L 369.131845 284.983363 
L 371.87436 287.608961 
L 380.101906 293.809412 
L 382.844421 296.111859 
L 391.071967 302.352704 
L 393.814483 304.432985 
L 396.556998 306.715235 
L 410.269575 316.995461 
L 415.754606 321.216615 
L 415.754606 321.216615 
" style="fill:none;stroke:#32cd32;stroke-linecap:square;stroke-width:2;"/>
   </g>
   <g id="line2d_19">
    <path clip-path="url(#p014ad25b25)" d="M 40.03 26.16 
L 42.772515 30.239775 
L 72.940184 52.678539 
L 75.6827 56.758314 
L 81.167731 60.838089 
L 83.910246 64.917865 
L 92.137792 71.037527 
L 94.880307 75.117303 
L 251.203684 191.390896 
L 253.946199 193.713541 
L 256.688714 197.510559 
L 270.401291 207.709997 
L 275.886322 212.335089 
L 281.371353 217.384316 
L 284.113868 219.949323 
L 327.994114 252.668312 
L 333.479145 257.030844 
L 338.964175 261.110619 
L 344.449206 265.412561 
L 349.934237 269.653911 
L 380.101906 292.880354 
L 385.586937 297.566037 
L 399.299514 308.593548 
L 407.52706 315.298921 
L 410.269575 317.45999 
L 415.754606 322.206263 
L 415.754606 322.206263 
" style="fill:none;stroke:#0000ff;stroke-linecap:square;stroke-width:2;"/>
   </g>
   <g id="line2d_20">
    <path clip-path="url(#p014ad25b25)" d="M 40.03 26.16 
L 48.257546 32.501829 
L 70.197669 49.40664 
L 103.107854 74.996121 
L 111.3354 81.176375 
L 136.018038 100.343239 
L 144.245584 106.86684 
L 149.730615 111.0476 
L 157.958161 117.51061 
L 163.443192 121.650976 
L 168.928222 126.154887 
L 177.155769 132.516912 
L 182.640799 136.859247 
L 188.12583 141.040007 
L 262.173745 199.26769 
L 273.143807 207.770588 
L 281.371353 214.395173 
L 286.856383 218.697115 
L 295.08393 225.301503 
L 308.796506 235.824092 
L 314.281537 240.004852 
L 322.509083 246.528453 
L 347.191722 266.018468 
L 380.101906 291.749327 
L 385.586937 296.111859 
L 391.071967 300.393604 
L 399.299514 306.775826 
L 404.784544 311.037374 
L 415.754606 319.903816 
L 415.754606 319.903816 
" style="fill:none;stroke:#ff0000;stroke-linecap:square;stroke-width:2;"/>
   </g>
   <g id="patch_3">
    <path d="M 40.03 332.12 
L 40.03 26.16 
" style="fill:none;stroke:#000000;stroke-linecap:square;stroke-linejoin:miter;stroke-width:0.8;"/>
   </g>
   <g id="patch_4">
    <path d="M 415.754606 332.12 
L 415.754606 26.16 
" style="fill:none;stroke:#000000;stroke-linecap:square;stroke-linejoin:miter;stroke-width:0.8;"/>
   </g>
   <g id="patch_5">
    <path d="M 40.03 332.12 
L 415.754606 332.12 
" style="fill:none;stroke:#000000;stroke-linecap:square;stroke-linejoin:miter;stroke-width:0.8;"/>
   </g>
   <g id="patch_6">
    <path d="M 40.03 26.16 
L 415.754606 26.16 
" style="fill:none;stroke:#000000;stroke-linecap:square;stroke-linejoin:miter;stroke-width:0.8;"/>
   </g>
   <g id="text_17">
    <!-- Developmental Biology -->
    <g transform="translate(158.095428 20.16)scale(0.12 -0.12)">
     <defs>
      <path d="M 19.671875 64.796875 
L 19.671875 8.109375 
L 31.59375 8.109375 
Q 46.6875 8.109375 53.6875 14.9375 
Q 60.6875 21.78125 60.6875 36.53125 
Q 60.6875 51.171875 53.6875 57.984375 
Q 46.6875 64.796875 31.59375 64.796875 
z
M 9.8125 72.90625 
L 30.078125 72.90625 
Q 51.265625 72.90625 61.171875 64.09375 
Q 71.09375 55.28125 71.09375 36.53125 
Q 71.09375 17.671875 61.125 8.828125 
Q 51.171875 0 30.078125 0 
L 9.8125 0 
z
" id="DejaVuSans-68"/>
      <path d="M 56.203125 29.59375 
L 56.203125 25.203125 
L 14.890625 25.203125 
Q 15.484375 15.921875 20.484375 11.0625 
Q 25.484375 6.203125 34.421875 6.203125 
Q 39.59375 6.203125 44.453125 7.46875 
Q 49.3125 8.734375 54.109375 11.28125 
L 54.109375 2.78125 
Q 49.265625 0.734375 44.1875 -0.34375 
Q 39.109375 -1.421875 33.890625 -1.421875 
Q 20.796875 -1.421875 13.15625 6.1875 
Q 5.515625 13.8125 5.515625 26.8125 
Q 5.515625 40.234375 12.765625 48.109375 
Q 20.015625 56 32.328125 56 
Q 43.359375 56 49.78125 48.890625 
Q 56.203125 41.796875 56.203125 29.59375 
z
M 47.21875 32.234375 
Q 47.125 39.59375 43.09375 43.984375 
Q 39.0625 48.390625 32.421875 48.390625 
Q 24.90625 48.390625 20.390625 44.140625 
Q 15.875 39.890625 15.1875 32.171875 
z
" id="DejaVuSans-101"/>
      <path d="M 2.984375 54.6875 
L 12.5 54.6875 
L 29.59375 8.796875 
L 46.6875 54.6875 
L 56.203125 54.6875 
L 35.6875 0 
L 23.484375 0 
z
" id="DejaVuSans-118"/>
      <path d="M 9.421875 75.984375 
L 18.40625 75.984375 
L 18.40625 0 
L 9.421875 0 
z
" id="DejaVuSans-108"/>
      <path d="M 30.609375 48.390625 
Q 23.390625 48.390625 19.1875 42.75 
Q 14.984375 37.109375 14.984375 27.296875 
Q 14.984375 17.484375 19.15625 11.84375 
Q 23.34375 6.203125 30.609375 6.203125 
Q 37.796875 6.203125 41.984375 11.859375 
Q 46.1875 17.53125 46.1875 27.296875 
Q 46.1875 37.015625 41.984375 42.703125 
Q 37.796875 48.390625 30.609375 48.390625 
z
M 30.609375 56 
Q 42.328125 56 49.015625 48.375 
Q 55.71875 40.765625 55.71875 27.296875 
Q 55.71875 13.875 49.015625 6.21875 
Q 42.328125 -1.421875 30.609375 -1.421875 
Q 18.84375 -1.421875 12.171875 6.21875 
Q 5.515625 13.875 5.515625 27.296875 
Q 5.515625 40.765625 12.171875 48.375 
Q 18.84375 56 30.609375 56 
z
" id="DejaVuSans-111"/>
      <path d="M 18.109375 8.203125 
L 18.109375 -20.796875 
L 9.078125 -20.796875 
L 9.078125 54.6875 
L 18.109375 54.6875 
L 18.109375 46.390625 
Q 20.953125 51.265625 25.265625 53.625 
Q 29.59375 56 35.59375 56 
Q 45.5625 56 51.78125 48.09375 
Q 58.015625 40.1875 58.015625 27.296875 
Q 58.015625 14.40625 51.78125 6.484375 
Q 45.5625 -1.421875 35.59375 -1.421875 
Q 29.59375 -1.421875 25.265625 0.953125 
Q 20.953125 3.328125 18.109375 8.203125 
z
M 48.6875 27.296875 
Q 48.6875 37.203125 44.609375 42.84375 
Q 40.53125 48.484375 33.40625 48.484375 
Q 26.265625 48.484375 22.1875 42.84375 
Q 18.109375 37.203125 18.109375 27.296875 
Q 18.109375 17.390625 22.1875 11.75 
Q 26.265625 6.109375 33.40625 6.109375 
Q 40.53125 6.109375 44.609375 11.75 
Q 48.6875 17.390625 48.6875 27.296875 
z
" id="DejaVuSans-112"/>
      <path d="M 52 44.1875 
Q 55.375 50.25 60.0625 53.125 
Q 64.75 56 71.09375 56 
Q 79.640625 56 84.28125 50.015625 
Q 88.921875 44.046875 88.921875 33.015625 
L 88.921875 0 
L 79.890625 0 
L 79.890625 32.71875 
Q 79.890625 40.578125 77.09375 44.375 
Q 74.3125 48.1875 68.609375 48.1875 
Q 61.625 48.1875 57.5625 43.546875 
Q 53.515625 38.921875 53.515625 30.90625 
L 53.515625 0 
L 44.484375 0 
L 44.484375 32.71875 
Q 44.484375 40.625 41.703125 44.40625 
Q 38.921875 48.1875 33.109375 48.1875 
Q 26.21875 48.1875 22.15625 43.53125 
Q 18.109375 38.875 18.109375 30.90625 
L 18.109375 0 
L 9.078125 0 
L 9.078125 54.6875 
L 18.109375 54.6875 
L 18.109375 46.1875 
Q 21.1875 51.21875 25.484375 53.609375 
Q 29.78125 56 35.6875 56 
Q 41.65625 56 45.828125 52.96875 
Q 50 49.953125 52 44.1875 
z
" id="DejaVuSans-109"/>
      <path d="M 54.890625 33.015625 
L 54.890625 0 
L 45.90625 0 
L 45.90625 32.71875 
Q 45.90625 40.484375 42.875 44.328125 
Q 39.84375 48.1875 33.796875 48.1875 
Q 26.515625 48.1875 22.3125 43.546875 
Q 18.109375 38.921875 18.109375 30.90625 
L 18.109375 0 
L 9.078125 0 
L 9.078125 54.6875 
L 18.109375 54.6875 
L 18.109375 46.1875 
Q 21.34375 51.125 25.703125 53.5625 
Q 30.078125 56 35.796875 56 
Q 45.21875 56 50.046875 50.171875 
Q 54.890625 44.34375 54.890625 33.015625 
z
" id="DejaVuSans-110"/>
      <path d="M 18.3125 70.21875 
L 18.3125 54.6875 
L 36.8125 54.6875 
L 36.8125 47.703125 
L 18.3125 47.703125 
L 18.3125 18.015625 
Q 18.3125 11.328125 20.140625 9.421875 
Q 21.96875 7.515625 27.59375 7.515625 
L 36.8125 7.515625 
L 36.8125 0 
L 27.59375 0 
Q 17.1875 0 13.234375 3.875 
Q 9.28125 7.765625 9.28125 18.015625 
L 9.28125 47.703125 
L 2.6875 47.703125 
L 2.6875 54.6875 
L 9.28125 54.6875 
L 9.28125 70.21875 
z
" id="DejaVuSans-116"/>
      <path d="M 34.28125 27.484375 
Q 23.390625 27.484375 19.1875 25 
Q 14.984375 22.515625 14.984375 16.5 
Q 14.984375 11.71875 18.140625 8.90625 
Q 21.296875 6.109375 26.703125 6.109375 
Q 34.1875 6.109375 38.703125 11.40625 
Q 43.21875 16.703125 43.21875 25.484375 
L 43.21875 27.484375 
z
M 52.203125 31.203125 
L 52.203125 0 
L 43.21875 0 
L 43.21875 8.296875 
Q 40.140625 3.328125 35.546875 0.953125 
Q 30.953125 -1.421875 24.3125 -1.421875 
Q 15.921875 -1.421875 10.953125 3.296875 
Q 6 8.015625 6 15.921875 
Q 6 25.140625 12.171875 29.828125 
Q 18.359375 34.515625 30.609375 34.515625 
L 43.21875 34.515625 
L 43.21875 35.40625 
Q 43.21875 41.609375 39.140625 45 
Q 35.0625 48.390625 27.6875 48.390625 
Q 23 48.390625 18.546875 47.265625 
Q 14.109375 46.140625 10.015625 43.890625 
L 10.015625 52.203125 
Q 14.9375 54.109375 19.578125 55.046875 
Q 24.21875 56 28.609375 56 
Q 40.484375 56 46.34375 49.84375 
Q 52.203125 43.703125 52.203125 31.203125 
z
" id="DejaVuSans-97"/>
      <path id="DejaVuSans-32"/>
      <path d="M 19.671875 34.8125 
L 19.671875 8.109375 
L 35.5 8.109375 
Q 43.453125 8.109375 47.28125 11.40625 
Q 51.125 14.703125 51.125 21.484375 
Q 51.125 28.328125 47.28125 31.5625 
Q 43.453125 34.8125 35.5 34.8125 
z
M 19.671875 64.796875 
L 19.671875 42.828125 
L 34.28125 42.828125 
Q 41.5 42.828125 45.03125 45.53125 
Q 48.578125 48.25 48.578125 53.8125 
Q 48.578125 59.328125 45.03125 62.0625 
Q 41.5 64.796875 34.28125 64.796875 
z
M 9.8125 72.90625 
L 35.015625 72.90625 
Q 46.296875 72.90625 52.390625 68.21875 
Q 58.5 63.53125 58.5 54.890625 
Q 58.5 48.1875 55.375 44.234375 
Q 52.25 40.28125 46.1875 39.3125 
Q 53.46875 37.75 57.5 32.78125 
Q 61.53125 27.828125 61.53125 20.40625 
Q 61.53125 10.640625 54.890625 5.3125 
Q 48.25 0 35.984375 0 
L 9.8125 0 
z
" id="DejaVuSans-66"/>
      <path d="M 9.421875 54.6875 
L 18.40625 54.6875 
L 18.40625 0 
L 9.421875 0 
z
M 9.421875 75.984375 
L 18.40625 75.984375 
L 18.40625 64.59375 
L 9.421875 64.59375 
z
" id="DejaVuSans-105"/>
      <path d="M 45.40625 27.984375 
Q 45.40625 37.75 41.375 43.109375 
Q 37.359375 48.484375 30.078125 48.484375 
Q 22.859375 48.484375 18.828125 43.109375 
Q 14.796875 37.75 14.796875 27.984375 
Q 14.796875 18.265625 18.828125 12.890625 
Q 22.859375 7.515625 30.078125 7.515625 
Q 37.359375 7.515625 41.375 12.890625 
Q 45.40625 18.265625 45.40625 27.984375 
z
M 54.390625 6.78125 
Q 54.390625 -7.171875 48.1875 -13.984375 
Q 42 -20.796875 29.203125 -20.796875 
Q 24.46875 -20.796875 20.265625 -20.09375 
Q 16.0625 -19.390625 12.109375 -17.921875 
L 12.109375 -9.1875 
Q 16.0625 -11.328125 19.921875 -12.34375 
Q 23.78125 -13.375 27.78125 -13.375 
Q 36.625 -13.375 41.015625 -8.765625 
Q 45.40625 -4.15625 45.40625 5.171875 
L 45.40625 9.625 
Q 42.625 4.78125 38.28125 2.390625 
Q 33.9375 0 27.875 0 
Q 17.828125 0 11.671875 7.65625 
Q 5.515625 15.328125 5.515625 27.984375 
Q 5.515625 40.671875 11.671875 48.328125 
Q 17.828125 56 27.875 56 
Q 33.9375 56 38.28125 53.609375 
Q 42.625 51.21875 45.40625 46.390625 
L 45.40625 54.6875 
L 54.390625 54.6875 
z
" id="DejaVuSans-103"/>
      <path d="M 32.171875 -5.078125 
Q 28.375 -14.84375 24.75 -17.8125 
Q 21.140625 -20.796875 15.09375 -20.796875 
L 7.90625 -20.796875 
L 7.90625 -13.28125 
L 13.1875 -13.28125 
Q 16.890625 -13.28125 18.9375 -11.515625 
Q 21 -9.765625 23.484375 -3.21875 
L 25.09375 0.875 
L 2.984375 54.6875 
L 12.5 54.6875 
L 29.59375 11.921875 
L 46.6875 54.6875 
L 56.203125 54.6875 
z
" id="DejaVuSans-121"/>
     </defs>
     <use xlink:href="#DejaVuSans-68"/>
     <use x="77.001953" xlink:href="#DejaVuSans-101"/>
     <use x="138.525391" xlink:href="#DejaVuSans-118"/>
     <use x="197.705078" xlink:href="#DejaVuSans-101"/>
     <use x="259.228516" xlink:href="#DejaVuSans-108"/>
     <use x="287.011719" xlink:href="#DejaVuSans-111"/>
     <use x="348.193359" xlink:href="#DejaVuSans-112"/>
     <use x="411.669922" xlink:href="#DejaVuSans-109"/>
     <use x="509.082031" xlink:href="#DejaVuSans-101"/>
     <use x="570.605469" xlink:href="#DejaVuSans-110"/>
     <use x="633.984375" xlink:href="#DejaVuSans-116"/>
     <use x="673.193359" xlink:href="#DejaVuSans-97"/>
     <use x="734.472656" xlink:href="#DejaVuSans-108"/>
     <use x="762.255859" xlink:href="#DejaVuSans-32"/>
     <use x="794.042969" xlink:href="#DejaVuSans-66"/>
     <use x="862.646484" xlink:href="#DejaVuSans-105"/>
     <use x="890.429688" xlink:href="#DejaVuSans-111"/>
     <use x="951.611328" xlink:href="#DejaVuSans-108"/>
     <use x="979.394531" xlink:href="#DejaVuSans-111"/>
     <use x="1040.576172" xlink:href="#DejaVuSans-103"/>
     <use x="1104.052734" xlink:href="#DejaVuSans-121"/>
    </g>
   </g>
   <g id="legend_1">
    <g id="patch_7">
     <path d="M 320.074918 78.194375 
L 408.754606 78.194375 
Q 410.754606 78.194375 410.754606 76.194375 
L 410.754606 33.16 
Q 410.754606 31.16 408.754606 31.16 
L 320.074918 31.16 
Q 318.074918 31.16 318.074918 33.16 
L 318.074918 76.194375 
Q 318.074918 78.194375 320.074918 78.194375 
z
" style="fill:#ffffff;opacity:0.8;stroke:#cccccc;stroke-linejoin:miter;"/>
    </g>
    <g id="LineCollection_4">
     <path d="M 332.074918 44.258437 
L 332.074918 34.258437 
" style="fill:none;stroke:#90ee90;stroke-width:2;"/>
    </g>
    <g id="line2d_21">
     <path d="M 322.074918 39.258437 
L 342.074918 39.258437 
" style="fill:none;stroke:#32cd32;stroke-linecap:square;stroke-width:2;"/>
    </g>
    <g id="line2d_22"/>
    <g id="text_18">
     <!-- Not Drivers -->
     <g transform="translate(350.074918 42.758437)scale(0.1 -0.1)">
      <defs>
       <path d="M 9.8125 72.90625 
L 23.09375 72.90625 
L 55.421875 11.921875 
L 55.421875 72.90625 
L 64.984375 72.90625 
L 64.984375 0 
L 51.703125 0 
L 19.390625 60.984375 
L 19.390625 0 
L 9.8125 0 
z
" id="DejaVuSans-78"/>
       <path d="M 41.109375 46.296875 
Q 39.59375 47.171875 37.8125 47.578125 
Q 36.03125 48 33.890625 48 
Q 26.265625 48 22.1875 43.046875 
Q 18.109375 38.09375 18.109375 28.8125 
L 18.109375 0 
L 9.078125 0 
L 9.078125 54.6875 
L 18.109375 54.6875 
L 18.109375 46.1875 
Q 20.953125 51.171875 25.484375 53.578125 
Q 30.03125 56 36.53125 56 
Q 37.453125 56 38.578125 55.875 
Q 39.703125 55.765625 41.0625 55.515625 
z
" id="DejaVuSans-114"/>
       <path d="M 44.28125 53.078125 
L 44.28125 44.578125 
Q 40.484375 46.53125 36.375 47.5 
Q 32.28125 48.484375 27.875 48.484375 
Q 21.1875 48.484375 17.84375 46.4375 
Q 14.5 44.390625 14.5 40.28125 
Q 14.5 37.15625 16.890625 35.375 
Q 19.28125 33.59375 26.515625 31.984375 
L 29.59375 31.296875 
Q 39.15625 29.25 43.1875 25.515625 
Q 47.21875 21.78125 47.21875 15.09375 
Q 47.21875 7.46875 41.1875 3.015625 
Q 35.15625 -1.421875 24.609375 -1.421875 
Q 20.21875 -1.421875 15.453125 -0.5625 
Q 10.6875 0.296875 5.421875 2 
L 5.421875 11.28125 
Q 10.40625 8.6875 15.234375 7.390625 
Q 20.0625 6.109375 24.8125 6.109375 
Q 31.15625 6.109375 34.5625 8.28125 
Q 37.984375 10.453125 37.984375 14.40625 
Q 37.984375 18.0625 35.515625 20.015625 
Q 33.0625 21.96875 24.703125 23.78125 
L 21.578125 24.515625 
Q 13.234375 26.265625 9.515625 29.90625 
Q 5.8125 33.546875 5.8125 39.890625 
Q 5.8125 47.609375 11.28125 51.796875 
Q 16.75 56 26.8125 56 
Q 31.78125 56 36.171875 55.265625 
Q 40.578125 54.546875 44.28125 53.078125 
z
" id="DejaVuSans-115"/>
      </defs>
      <use xlink:href="#DejaVuSans-78"/>
      <use x="74.804688" xlink:href="#DejaVuSans-111"/>
      <use x="135.986328" xlink:href="#DejaVuSans-116"/>
      <use x="175.195312" xlink:href="#DejaVuSans-32"/>
      <use x="206.982422" xlink:href="#DejaVuSans-68"/>
      <use x="283.984375" xlink:href="#DejaVuSans-114"/>
      <use x="325.097656" xlink:href="#DejaVuSans-105"/>
      <use x="352.880859" xlink:href="#DejaVuSans-118"/>
      <use x="412.060547" xlink:href="#DejaVuSans-101"/>
      <use x="473.583984" xlink:href="#DejaVuSans-114"/>
      <use x="514.697266" xlink:href="#DejaVuSans-115"/>
     </g>
    </g>
    <g id="LineCollection_5">
     <path d="M 332.074918 58.936562 
L 332.074918 48.936562 
" style="fill:none;stroke:#87ceeb;stroke-width:2;"/>
    </g>
    <g id="line2d_23">
     <path d="M 322.074918 53.936562 
L 342.074918 53.936562 
" style="fill:none;stroke:#0000ff;stroke-linecap:square;stroke-width:2;"/>
    </g>
    <g id="line2d_24"/>
    <g id="text_19">
     <!-- Hubs -->
     <g transform="translate(350.074918 57.436562)scale(0.1 -0.1)">
      <defs>
       <path d="M 9.8125 72.90625 
L 19.671875 72.90625 
L 19.671875 43.015625 
L 55.515625 43.015625 
L 55.515625 72.90625 
L 65.375 72.90625 
L 65.375 0 
L 55.515625 0 
L 55.515625 34.71875 
L 19.671875 34.71875 
L 19.671875 0 
L 9.8125 0 
z
" id="DejaVuSans-72"/>
       <path d="M 8.5 21.578125 
L 8.5 54.6875 
L 17.484375 54.6875 
L 17.484375 21.921875 
Q 17.484375 14.15625 20.5 10.265625 
Q 23.53125 6.390625 29.59375 6.390625 
Q 36.859375 6.390625 41.078125 11.03125 
Q 45.3125 15.671875 45.3125 23.6875 
L 45.3125 54.6875 
L 54.296875 54.6875 
L 54.296875 0 
L 45.3125 0 
L 45.3125 8.40625 
Q 42.046875 3.421875 37.71875 1 
Q 33.40625 -1.421875 27.6875 -1.421875 
Q 18.265625 -1.421875 13.375 4.4375 
Q 8.5 10.296875 8.5 21.578125 
z
M 31.109375 56 
z
" id="DejaVuSans-117"/>
       <path d="M 48.6875 27.296875 
Q 48.6875 37.203125 44.609375 42.84375 
Q 40.53125 48.484375 33.40625 48.484375 
Q 26.265625 48.484375 22.1875 42.84375 
Q 18.109375 37.203125 18.109375 27.296875 
Q 18.109375 17.390625 22.1875 11.75 
Q 26.265625 6.109375 33.40625 6.109375 
Q 40.53125 6.109375 44.609375 11.75 
Q 48.6875 17.390625 48.6875 27.296875 
z
M 18.109375 46.390625 
Q 20.953125 51.265625 25.265625 53.625 
Q 29.59375 56 35.59375 56 
Q 45.5625 56 51.78125 48.09375 
Q 58.015625 40.1875 58.015625 27.296875 
Q 58.015625 14.40625 51.78125 6.484375 
Q 45.5625 -1.421875 35.59375 -1.421875 
Q 29.59375 -1.421875 25.265625 0.953125 
Q 20.953125 3.328125 18.109375 8.203125 
L 18.109375 0 
L 9.078125 0 
L 9.078125 75.984375 
L 18.109375 75.984375 
z
" id="DejaVuSans-98"/>
      </defs>
      <use xlink:href="#DejaVuSans-72"/>
      <use x="75.195312" xlink:href="#DejaVuSans-117"/>
      <use x="138.574219" xlink:href="#DejaVuSans-98"/>
      <use x="202.050781" xlink:href="#DejaVuSans-115"/>
     </g>
    </g>
    <g id="LineCollection_6">
     <path d="M 332.074918 73.614687 
L 332.074918 63.614687 
" style="fill:none;stroke:#f08080;"/>
    </g>
    <g id="line2d_25">
     <path d="M 322.074918 68.614687 
L 342.074918 68.614687 
" style="fill:none;stroke:#ff0000;stroke-linecap:square;stroke-width:2;"/>
    </g>
    <g id="line2d_26"/>
    <g id="text_20">
     <!-- Drivers -->
     <g transform="translate(350.074918 72.114687)scale(0.1 -0.1)">
      <use xlink:href="#DejaVuSans-68"/>
      <use x="77.001953" xlink:href="#DejaVuSans-114"/>
      <use x="118.115234" xlink:href="#DejaVuSans-105"/>
      <use x="145.898438" xlink:href="#DejaVuSans-118"/>
      <use x="205.078125" xlink:href="#DejaVuSans-101"/>
      <use x="266.601562" xlink:href="#DejaVuSans-114"/>
      <use x="307.714844" xlink:href="#DejaVuSans-115"/>
     </g>
    </g>
   </g>
  </g>
 </g>
 <defs>
  <clipPath id="p014ad25b25">
   <rect height="305.96" width="375.724606" x="40.03" y="26.16"/>
  </clipPath>
 </defs>
</svg>
