<?xml version="1.0" encoding="utf-8" standalone="no"?>
<!DOCTYPE svg PUBLIC "-//W3C//DTD SVG 1.1//EN"
  "http://www.w3.org/Graphics/SVG/1.1/DTD/svg11.dtd">
<!-- Created with matplotlib (https://matplotlib.org/) -->
<svg height="360pt" version="1.1" viewBox="0 0 432 360" width="432pt" xmlns="http://www.w3.org/2000/svg" xmlns:xlink="http://www.w3.org/1999/xlink">
 <metadata>
  <rdf:RDF xmlns:cc="http://creativecommons.org/ns#" xmlns:dc="http://purl.org/dc/elements/1.1/" xmlns:rdf="http://www.w3.org/1999/02/22-rdf-syntax-ns#">
   <cc:Work>
    <dc:type rdf:resource="http://purl.org/dc/dcmitype/StillImage"/>
    <dc:date>2021-07-27T14:05:06.667261</dc:date>
    <dc:format>image/svg+xml</dc:format>
    <dc:creator>
     <cc:Agent>
      <dc:title>Matplotlib v3.3.2, https://matplotlib.org/</dc:title>
     </cc:Agent>
    </dc:creator>
   </cc:Work>
  </rdf:RDF>
 </metadata>
 <defs>
  <style type="text/css">*{stroke-linecap:butt;stroke-linejoin:round;}</style>
 </defs>
 <g id="figure_1">
  <g id="patch_1">
   <path d="M 0 360 
L 432 360 
L 432 0 
L 0 0 
z
" style="fill:#ffffff;"/>
  </g>
  <g id="axes_1">
   <g id="patch_2">
    <path d="M 40.03 332.12 
L 421.2 332.12 
L 421.2 26.16 
L 40.03 26.16 
z
" style="fill:#ffffff;"/>
   </g>
   <g id="matplotlib.axis_1">
    <g id="xtick_1">
     <g id="line2d_1">
      <defs>
       <path d="M 0 0 
L 0 3.5 
" id="m5c3d1e0ec0" style="stroke:#000000;stroke-width:0.8;"/>
      </defs>
      <g>
       <use style="stroke:#000000;stroke-width:0.8;" x="40.03" xlink:href="#m5c3d1e0ec0" y="332.12"/>
      </g>
     </g>
     <g id="text_1">
      <!-- 0.00 -->
      <g transform="translate(28.897188 346.718437)scale(0.1 -0.1)">
       <defs>
        <path d="M 31.78125 66.40625 
Q 24.171875 66.40625 20.328125 58.90625 
Q 16.5 51.421875 16.5 36.375 
Q 16.5 21.390625 20.328125 13.890625 
Q 24.171875 6.390625 31.78125 6.390625 
Q 39.453125 6.390625 43.28125 13.890625 
Q 47.125 21.390625 47.125 36.375 
Q 47.125 51.421875 43.28125 58.90625 
Q 39.453125 66.40625 31.78125 66.40625 
z
M 31.78125 74.21875 
Q 44.046875 74.21875 50.515625 64.515625 
Q 56.984375 54.828125 56.984375 36.375 
Q 56.984375 17.96875 50.515625 8.265625 
Q 44.046875 -1.421875 31.78125 -1.421875 
Q 19.53125 -1.421875 13.0625 8.265625 
Q 6.59375 17.96875 6.59375 36.375 
Q 6.59375 54.828125 13.0625 64.515625 
Q 19.53125 74.21875 31.78125 74.21875 
z
" id="DejaVuSans-48"/>
        <path d="M 10.6875 12.40625 
L 21 12.40625 
L 21 0 
L 10.6875 0 
z
" id="DejaVuSans-46"/>
       </defs>
       <use xlink:href="#DejaVuSans-48"/>
       <use x="63.623047" xlink:href="#DejaVuSans-46"/>
       <use x="95.410156" xlink:href="#DejaVuSans-48"/>
       <use x="159.033203" xlink:href="#DejaVuSans-48"/>
      </g>
     </g>
    </g>
    <g id="xtick_2">
     <g id="line2d_2">
      <g>
       <use style="stroke:#000000;stroke-width:0.8;" x="85.135117" xlink:href="#m5c3d1e0ec0" y="332.12"/>
      </g>
     </g>
     <g id="text_2">
      <!-- 0.02 -->
      <g transform="translate(74.002304 346.718437)scale(0.1 -0.1)">
       <defs>
        <path d="M 19.1875 8.296875 
L 53.609375 8.296875 
L 53.609375 0 
L 7.328125 0 
L 7.328125 8.296875 
Q 12.9375 14.109375 22.625 23.890625 
Q 32.328125 33.6875 34.8125 36.53125 
Q 39.546875 41.84375 41.421875 45.53125 
Q 43.3125 49.21875 43.3125 52.78125 
Q 43.3125 58.59375 39.234375 62.25 
Q 35.15625 65.921875 28.609375 65.921875 
Q 23.96875 65.921875 18.8125 64.3125 
Q 13.671875 62.703125 7.8125 59.421875 
L 7.8125 69.390625 
Q 13.765625 71.78125 18.9375 73 
Q 24.125 74.21875 28.421875 74.21875 
Q 39.75 74.21875 46.484375 68.546875 
Q 53.21875 62.890625 53.21875 53.421875 
Q 53.21875 48.921875 51.53125 44.890625 
Q 49.859375 40.875 45.40625 35.40625 
Q 44.1875 33.984375 37.640625 27.21875 
Q 31.109375 20.453125 19.1875 8.296875 
z
" id="DejaVuSans-50"/>
       </defs>
       <use xlink:href="#DejaVuSans-48"/>
       <use x="63.623047" xlink:href="#DejaVuSans-46"/>
       <use x="95.410156" xlink:href="#DejaVuSans-48"/>
       <use x="159.033203" xlink:href="#DejaVuSans-50"/>
      </g>
     </g>
    </g>
    <g id="xtick_3">
     <g id="line2d_3">
      <g>
       <use style="stroke:#000000;stroke-width:0.8;" x="130.240233" xlink:href="#m5c3d1e0ec0" y="332.12"/>
      </g>
     </g>
     <g id="text_3">
      <!-- 0.04 -->
      <g transform="translate(119.107421 346.718437)scale(0.1 -0.1)">
       <defs>
        <path d="M 37.796875 64.3125 
L 12.890625 25.390625 
L 37.796875 25.390625 
z
M 35.203125 72.90625 
L 47.609375 72.90625 
L 47.609375 25.390625 
L 58.015625 25.390625 
L 58.015625 17.1875 
L 47.609375 17.1875 
L 47.609375 0 
L 37.796875 0 
L 37.796875 17.1875 
L 4.890625 17.1875 
L 4.890625 26.703125 
z
" id="DejaVuSans-52"/>
       </defs>
       <use xlink:href="#DejaVuSans-48"/>
       <use x="63.623047" xlink:href="#DejaVuSans-46"/>
       <use x="95.410156" xlink:href="#DejaVuSans-48"/>
       <use x="159.033203" xlink:href="#DejaVuSans-52"/>
      </g>
     </g>
    </g>
    <g id="xtick_4">
     <g id="line2d_4">
      <g>
       <use style="stroke:#000000;stroke-width:0.8;" x="175.34535" xlink:href="#m5c3d1e0ec0" y="332.12"/>
      </g>
     </g>
     <g id="text_4">
      <!-- 0.06 -->
      <g transform="translate(164.212537 346.718437)scale(0.1 -0.1)">
       <defs>
        <path d="M 33.015625 40.375 
Q 26.375 40.375 22.484375 35.828125 
Q 18.609375 31.296875 18.609375 23.390625 
Q 18.609375 15.53125 22.484375 10.953125 
Q 26.375 6.390625 33.015625 6.390625 
Q 39.65625 6.390625 43.53125 10.953125 
Q 47.40625 15.53125 47.40625 23.390625 
Q 47.40625 31.296875 43.53125 35.828125 
Q 39.65625 40.375 33.015625 40.375 
z
M 52.59375 71.296875 
L 52.59375 62.3125 
Q 48.875 64.0625 45.09375 64.984375 
Q 41.3125 65.921875 37.59375 65.921875 
Q 27.828125 65.921875 22.671875 59.328125 
Q 17.53125 52.734375 16.796875 39.40625 
Q 19.671875 43.65625 24.015625 45.921875 
Q 28.375 48.1875 33.59375 48.1875 
Q 44.578125 48.1875 50.953125 41.515625 
Q 57.328125 34.859375 57.328125 23.390625 
Q 57.328125 12.15625 50.6875 5.359375 
Q 44.046875 -1.421875 33.015625 -1.421875 
Q 20.359375 -1.421875 13.671875 8.265625 
Q 6.984375 17.96875 6.984375 36.375 
Q 6.984375 53.65625 15.1875 63.9375 
Q 23.390625 74.21875 37.203125 74.21875 
Q 40.921875 74.21875 44.703125 73.484375 
Q 48.484375 72.75 52.59375 71.296875 
z
" id="DejaVuSans-54"/>
       </defs>
       <use xlink:href="#DejaVuSans-48"/>
       <use x="63.623047" xlink:href="#DejaVuSans-46"/>
       <use x="95.410156" xlink:href="#DejaVuSans-48"/>
       <use x="159.033203" xlink:href="#DejaVuSans-54"/>
      </g>
     </g>
    </g>
    <g id="xtick_5">
     <g id="line2d_5">
      <g>
       <use style="stroke:#000000;stroke-width:0.8;" x="220.450467" xlink:href="#m5c3d1e0ec0" y="332.12"/>
      </g>
     </g>
     <g id="text_5">
      <!-- 0.08 -->
      <g transform="translate(209.317654 346.718437)scale(0.1 -0.1)">
       <defs>
        <path d="M 31.78125 34.625 
Q 24.75 34.625 20.71875 30.859375 
Q 16.703125 27.09375 16.703125 20.515625 
Q 16.703125 13.921875 20.71875 10.15625 
Q 24.75 6.390625 31.78125 6.390625 
Q 38.8125 6.390625 42.859375 10.171875 
Q 46.921875 13.96875 46.921875 20.515625 
Q 46.921875 27.09375 42.890625 30.859375 
Q 38.875 34.625 31.78125 34.625 
z
M 21.921875 38.8125 
Q 15.578125 40.375 12.03125 44.71875 
Q 8.5 49.078125 8.5 55.328125 
Q 8.5 64.0625 14.71875 69.140625 
Q 20.953125 74.21875 31.78125 74.21875 
Q 42.671875 74.21875 48.875 69.140625 
Q 55.078125 64.0625 55.078125 55.328125 
Q 55.078125 49.078125 51.53125 44.71875 
Q 48 40.375 41.703125 38.8125 
Q 48.828125 37.15625 52.796875 32.3125 
Q 56.78125 27.484375 56.78125 20.515625 
Q 56.78125 9.90625 50.3125 4.234375 
Q 43.84375 -1.421875 31.78125 -1.421875 
Q 19.734375 -1.421875 13.25 4.234375 
Q 6.78125 9.90625 6.78125 20.515625 
Q 6.78125 27.484375 10.78125 32.3125 
Q 14.796875 37.15625 21.921875 38.8125 
z
M 18.3125 54.390625 
Q 18.3125 48.734375 21.84375 45.5625 
Q 25.390625 42.390625 31.78125 42.390625 
Q 38.140625 42.390625 41.71875 45.5625 
Q 45.3125 48.734375 45.3125 54.390625 
Q 45.3125 60.0625 41.71875 63.234375 
Q 38.140625 66.40625 31.78125 66.40625 
Q 25.390625 66.40625 21.84375 63.234375 
Q 18.3125 60.0625 18.3125 54.390625 
z
" id="DejaVuSans-56"/>
       </defs>
       <use xlink:href="#DejaVuSans-48"/>
       <use x="63.623047" xlink:href="#DejaVuSans-46"/>
       <use x="95.410156" xlink:href="#DejaVuSans-48"/>
       <use x="159.033203" xlink:href="#DejaVuSans-56"/>
      </g>
     </g>
    </g>
    <g id="xtick_6">
     <g id="line2d_6">
      <g>
       <use style="stroke:#000000;stroke-width:0.8;" x="265.555583" xlink:href="#m5c3d1e0ec0" y="332.12"/>
      </g>
     </g>
     <g id="text_6">
      <!-- 0.10 -->
      <g transform="translate(254.422771 346.718437)scale(0.1 -0.1)">
       <defs>
        <path d="M 12.40625 8.296875 
L 28.515625 8.296875 
L 28.515625 63.921875 
L 10.984375 60.40625 
L 10.984375 69.390625 
L 28.421875 72.90625 
L 38.28125 72.90625 
L 38.28125 8.296875 
L 54.390625 8.296875 
L 54.390625 0 
L 12.40625 0 
z
" id="DejaVuSans-49"/>
       </defs>
       <use xlink:href="#DejaVuSans-48"/>
       <use x="63.623047" xlink:href="#DejaVuSans-46"/>
       <use x="95.410156" xlink:href="#DejaVuSans-49"/>
       <use x="159.033203" xlink:href="#DejaVuSans-48"/>
      </g>
     </g>
    </g>
    <g id="xtick_7">
     <g id="line2d_7">
      <g>
       <use style="stroke:#000000;stroke-width:0.8;" x="310.6607" xlink:href="#m5c3d1e0ec0" y="332.12"/>
      </g>
     </g>
     <g id="text_7">
      <!-- 0.12 -->
      <g transform="translate(299.527888 346.718437)scale(0.1 -0.1)">
       <use xlink:href="#DejaVuSans-48"/>
       <use x="63.623047" xlink:href="#DejaVuSans-46"/>
       <use x="95.410156" xlink:href="#DejaVuSans-49"/>
       <use x="159.033203" xlink:href="#DejaVuSans-50"/>
      </g>
     </g>
    </g>
    <g id="xtick_8">
     <g id="line2d_8">
      <g>
       <use style="stroke:#000000;stroke-width:0.8;" x="355.765817" xlink:href="#m5c3d1e0ec0" y="332.12"/>
      </g>
     </g>
     <g id="text_8">
      <!-- 0.14 -->
      <g transform="translate(344.633004 346.718437)scale(0.1 -0.1)">
       <use xlink:href="#DejaVuSans-48"/>
       <use x="63.623047" xlink:href="#DejaVuSans-46"/>
       <use x="95.410156" xlink:href="#DejaVuSans-49"/>
       <use x="159.033203" xlink:href="#DejaVuSans-52"/>
      </g>
     </g>
    </g>
    <g id="xtick_9">
     <g id="line2d_9">
      <g>
       <use style="stroke:#000000;stroke-width:0.8;" x="400.870933" xlink:href="#m5c3d1e0ec0" y="332.12"/>
      </g>
     </g>
     <g id="text_9">
      <!-- 0.16 -->
      <g transform="translate(389.738121 346.718437)scale(0.1 -0.1)">
       <use xlink:href="#DejaVuSans-48"/>
       <use x="63.623047" xlink:href="#DejaVuSans-46"/>
       <use x="95.410156" xlink:href="#DejaVuSans-49"/>
       <use x="159.033203" xlink:href="#DejaVuSans-54"/>
      </g>
     </g>
    </g>
   </g>
   <g id="matplotlib.axis_2">
    <g id="ytick_1">
     <g id="line2d_10">
      <defs>
       <path d="M 0 0 
L -3.5 0 
" id="m0893d6a172" style="stroke:#000000;stroke-width:0.8;"/>
      </defs>
      <g>
       <use style="stroke:#000000;stroke-width:0.8;" x="40.03" xlink:href="#m0893d6a172" y="298.180851"/>
      </g>
     </g>
     <g id="text_10">
      <!-- 0.84 -->
      <g transform="translate(10.764375 301.98007)scale(0.1 -0.1)">
       <use xlink:href="#DejaVuSans-48"/>
       <use x="63.623047" xlink:href="#DejaVuSans-46"/>
       <use x="95.410156" xlink:href="#DejaVuSans-56"/>
       <use x="159.033203" xlink:href="#DejaVuSans-52"/>
      </g>
     </g>
    </g>
    <g id="ytick_2">
     <g id="line2d_11">
      <g>
       <use style="stroke:#000000;stroke-width:0.8;" x="40.03" xlink:href="#m0893d6a172" y="264.178244"/>
      </g>
     </g>
     <g id="text_11">
      <!-- 0.86 -->
      <g transform="translate(10.764375 267.977463)scale(0.1 -0.1)">
       <use xlink:href="#DejaVuSans-48"/>
       <use x="63.623047" xlink:href="#DejaVuSans-46"/>
       <use x="95.410156" xlink:href="#DejaVuSans-56"/>
       <use x="159.033203" xlink:href="#DejaVuSans-54"/>
      </g>
     </g>
    </g>
    <g id="ytick_3">
     <g id="line2d_12">
      <g>
       <use style="stroke:#000000;stroke-width:0.8;" x="40.03" xlink:href="#m0893d6a172" y="230.175638"/>
      </g>
     </g>
     <g id="text_12">
      <!-- 0.88 -->
      <g transform="translate(10.764375 233.974857)scale(0.1 -0.1)">
       <use xlink:href="#DejaVuSans-48"/>
       <use x="63.623047" xlink:href="#DejaVuSans-46"/>
       <use x="95.410156" xlink:href="#DejaVuSans-56"/>
       <use x="159.033203" xlink:href="#DejaVuSans-56"/>
      </g>
     </g>
    </g>
    <g id="ytick_4">
     <g id="line2d_13">
      <g>
       <use style="stroke:#000000;stroke-width:0.8;" x="40.03" xlink:href="#m0893d6a172" y="196.173032"/>
      </g>
     </g>
     <g id="text_13">
      <!-- 0.90 -->
      <g transform="translate(10.764375 199.972251)scale(0.1 -0.1)">
       <defs>
        <path d="M 10.984375 1.515625 
L 10.984375 10.5 
Q 14.703125 8.734375 18.5 7.8125 
Q 22.3125 6.890625 25.984375 6.890625 
Q 35.75 6.890625 40.890625 13.453125 
Q 46.046875 20.015625 46.78125 33.40625 
Q 43.953125 29.203125 39.59375 26.953125 
Q 35.25 24.703125 29.984375 24.703125 
Q 19.046875 24.703125 12.671875 31.3125 
Q 6.296875 37.9375 6.296875 49.421875 
Q 6.296875 60.640625 12.9375 67.421875 
Q 19.578125 74.21875 30.609375 74.21875 
Q 43.265625 74.21875 49.921875 64.515625 
Q 56.59375 54.828125 56.59375 36.375 
Q 56.59375 19.140625 48.40625 8.859375 
Q 40.234375 -1.421875 26.421875 -1.421875 
Q 22.703125 -1.421875 18.890625 -0.6875 
Q 15.09375 0.046875 10.984375 1.515625 
z
M 30.609375 32.421875 
Q 37.25 32.421875 41.125 36.953125 
Q 45.015625 41.5 45.015625 49.421875 
Q 45.015625 57.28125 41.125 61.84375 
Q 37.25 66.40625 30.609375 66.40625 
Q 23.96875 66.40625 20.09375 61.84375 
Q 16.21875 57.28125 16.21875 49.421875 
Q 16.21875 41.5 20.09375 36.953125 
Q 23.96875 32.421875 30.609375 32.421875 
z
" id="DejaVuSans-57"/>
       </defs>
       <use xlink:href="#DejaVuSans-48"/>
       <use x="63.623047" xlink:href="#DejaVuSans-46"/>
       <use x="95.410156" xlink:href="#DejaVuSans-57"/>
       <use x="159.033203" xlink:href="#DejaVuSans-48"/>
      </g>
     </g>
    </g>
    <g id="ytick_5">
     <g id="line2d_14">
      <g>
       <use style="stroke:#000000;stroke-width:0.8;" x="40.03" xlink:href="#m0893d6a172" y="162.170425"/>
      </g>
     </g>
     <g id="text_14">
      <!-- 0.92 -->
      <g transform="translate(10.764375 165.969644)scale(0.1 -0.1)">
       <use xlink:href="#DejaVuSans-48"/>
       <use x="63.623047" xlink:href="#DejaVuSans-46"/>
       <use x="95.410156" xlink:href="#DejaVuSans-57"/>
       <use x="159.033203" xlink:href="#DejaVuSans-50"/>
      </g>
     </g>
    </g>
    <g id="ytick_6">
     <g id="line2d_15">
      <g>
       <use style="stroke:#000000;stroke-width:0.8;" x="40.03" xlink:href="#m0893d6a172" y="128.167819"/>
      </g>
     </g>
     <g id="text_15">
      <!-- 0.94 -->
      <g transform="translate(10.764375 131.967038)scale(0.1 -0.1)">
       <use xlink:href="#DejaVuSans-48"/>
       <use x="63.623047" xlink:href="#DejaVuSans-46"/>
       <use x="95.410156" xlink:href="#DejaVuSans-57"/>
       <use x="159.033203" xlink:href="#DejaVuSans-52"/>
      </g>
     </g>
    </g>
    <g id="ytick_7">
     <g id="line2d_16">
      <g>
       <use style="stroke:#000000;stroke-width:0.8;" x="40.03" xlink:href="#m0893d6a172" y="94.165213"/>
      </g>
     </g>
     <g id="text_16">
      <!-- 0.96 -->
      <g transform="translate(10.764375 97.964431)scale(0.1 -0.1)">
       <use xlink:href="#DejaVuSans-48"/>
       <use x="63.623047" xlink:href="#DejaVuSans-46"/>
       <use x="95.410156" xlink:href="#DejaVuSans-57"/>
       <use x="159.033203" xlink:href="#DejaVuSans-54"/>
      </g>
     </g>
    </g>
    <g id="ytick_8">
     <g id="line2d_17">
      <g>
       <use style="stroke:#000000;stroke-width:0.8;" x="40.03" xlink:href="#m0893d6a172" y="60.162606"/>
      </g>
     </g>
     <g id="text_17">
      <!-- 0.98 -->
      <g transform="translate(10.764375 63.961825)scale(0.1 -0.1)">
       <use xlink:href="#DejaVuSans-48"/>
       <use x="63.623047" xlink:href="#DejaVuSans-46"/>
       <use x="95.410156" xlink:href="#DejaVuSans-57"/>
       <use x="159.033203" xlink:href="#DejaVuSans-56"/>
      </g>
     </g>
    </g>
    <g id="ytick_9">
     <g id="line2d_18">
      <g>
       <use style="stroke:#000000;stroke-width:0.8;" x="40.03" xlink:href="#m0893d6a172" y="26.16"/>
      </g>
     </g>
     <g id="text_18">
      <!-- 1.00 -->
      <g transform="translate(10.764375 29.959219)scale(0.1 -0.1)">
       <use xlink:href="#DejaVuSans-49"/>
       <use x="63.623047" xlink:href="#DejaVuSans-46"/>
       <use x="95.410156" xlink:href="#DejaVuSans-48"/>
       <use x="159.033203" xlink:href="#DejaVuSans-48"/>
      </g>
     </g>
    </g>
   </g>
   <g id="LineCollection_1">
    <path clip-path="url(#pa3d2447dd5)" d="M 40.03 26.16 
L 40.03 26.16 
" style="fill:none;stroke:#90ee90;stroke-width:2;"/>
    <path clip-path="url(#pa3d2447dd5)" d="M 47.971042 33.103009 
L 47.971042 31.426824 
" style="fill:none;stroke:#90ee90;stroke-width:2;"/>
    <path clip-path="url(#pa3d2447dd5)" d="M 55.912083 39.331761 
L 55.912083 37.289363 
" style="fill:none;stroke:#90ee90;stroke-width:2;"/>
    <path clip-path="url(#pa3d2447dd5)" d="M 63.853125 46.061426 
L 63.853125 43.006615 
" style="fill:none;stroke:#90ee90;stroke-width:2;"/>
    <path clip-path="url(#pa3d2447dd5)" d="M 71.794167 52.0478 
L 71.794167 48.992989 
" style="fill:none;stroke:#90ee90;stroke-width:2;"/>
    <path clip-path="url(#pa3d2447dd5)" d="M 79.735208 58.338502 
L 79.735208 54.91212 
" style="fill:none;stroke:#90ee90;stroke-width:2;"/>
    <path clip-path="url(#pa3d2447dd5)" d="M 87.67625 64.324877 
L 87.67625 60.898494 
" style="fill:none;stroke:#90ee90;stroke-width:2;"/>
    <path clip-path="url(#pa3d2447dd5)" d="M 95.617292 70.453243 
L 95.617292 66.861419 
" style="fill:none;stroke:#90ee90;stroke-width:2;"/>
    <path clip-path="url(#pa3d2447dd5)" d="M 103.558333 76.707589 
L 103.558333 72.816906 
" style="fill:none;stroke:#90ee90;stroke-width:2;"/>
    <path clip-path="url(#pa3d2447dd5)" d="M 111.499375 82.944358 
L 111.499375 78.789969 
" style="fill:none;stroke:#90ee90;stroke-width:2;"/>
    <path clip-path="url(#pa3d2447dd5)" d="M 119.440417 89.472063 
L 119.440417 84.472097 
" style="fill:none;stroke:#90ee90;stroke-width:2;"/>
    <path clip-path="url(#pa3d2447dd5)" d="M 127.381458 95.349213 
L 127.381458 90.449154 
" style="fill:none;stroke:#90ee90;stroke-width:2;"/>
    <path clip-path="url(#pa3d2447dd5)" d="M 135.3225 101.335587 
L 135.3225 96.435528 
" style="fill:none;stroke:#90ee90;stroke-width:2;"/>
    <path clip-path="url(#pa3d2447dd5)" d="M 143.263542 107.490458 
L 143.263542 102.490491 
" style="fill:none;stroke:#90ee90;stroke-width:2;"/>
    <path clip-path="url(#pa3d2447dd5)" d="M 151.204583 113.72066 
L 151.204583 108.351579 
" style="fill:none;stroke:#90ee90;stroke-width:2;"/>
    <path clip-path="url(#pa3d2447dd5)" d="M 159.145625 119.707034 
L 159.145625 114.337954 
" style="fill:none;stroke:#90ee90;stroke-width:2;"/>
    <path clip-path="url(#pa3d2447dd5)" d="M 167.086667 126.119394 
L 167.086667 120.253969 
" style="fill:none;stroke:#90ee90;stroke-width:2;"/>
    <path clip-path="url(#pa3d2447dd5)" d="M 175.027708 132.679247 
L 175.027708 126.259575 
" style="fill:none;stroke:#90ee90;stroke-width:2;"/>
    <path clip-path="url(#pa3d2447dd5)" d="M 182.96875 139.151656 
L 182.96875 131.996999 
" style="fill:none;stroke:#90ee90;stroke-width:2;"/>
    <path clip-path="url(#pa3d2447dd5)" d="M 190.909792 145.817124 
L 190.909792 137.89699 
" style="fill:none;stroke:#90ee90;stroke-width:2;"/>
    <path clip-path="url(#pa3d2447dd5)" d="M 198.850833 151.803498 
L 198.850833 143.883364 
" style="fill:none;stroke:#90ee90;stroke-width:2;"/>
    <path clip-path="url(#pa3d2447dd5)" d="M 206.791875 157.713824 
L 206.791875 149.827245 
" style="fill:none;stroke:#90ee90;stroke-width:2;"/>
    <path clip-path="url(#pa3d2447dd5)" d="M 214.732917 163.851323 
L 214.732917 155.899579 
" style="fill:none;stroke:#90ee90;stroke-width:2;"/>
    <path clip-path="url(#pa3d2447dd5)" d="M 222.673958 169.984979 
L 222.673958 161.975756 
" style="fill:none;stroke:#90ee90;stroke-width:2;"/>
    <path clip-path="url(#pa3d2447dd5)" d="M 230.615 176.202848 
L 230.615 167.96772 
" style="fill:none;stroke:#90ee90;stroke-width:2;"/>
    <path clip-path="url(#pa3d2447dd5)" d="M 238.556042 182.259358 
L 238.556042 174.0025 
" style="fill:none;stroke:#90ee90;stroke-width:2;"/>
    <path clip-path="url(#pa3d2447dd5)" d="M 246.497083 188.383327 
L 246.497083 180.088364 
" style="fill:none;stroke:#90ee90;stroke-width:2;"/>
    <path clip-path="url(#pa3d2447dd5)" d="M 254.438125 194.56949 
L 254.438125 186.230576 
" style="fill:none;stroke:#90ee90;stroke-width:2;"/>
    <path clip-path="url(#pa3d2447dd5)" d="M 262.379167 200.70569 
L 262.379167 192.185668 
" style="fill:none;stroke:#90ee90;stroke-width:2;"/>
    <path clip-path="url(#pa3d2447dd5)" d="M 270.320208 206.902158 
L 270.320208 198.199032 
" style="fill:none;stroke:#90ee90;stroke-width:2;"/>
    <path clip-path="url(#pa3d2447dd5)" d="M 278.26125 212.888532 
L 278.26125 204.185406 
" style="fill:none;stroke:#90ee90;stroke-width:2;"/>
    <path clip-path="url(#pa3d2447dd5)" d="M 286.202292 218.728708 
L 286.202292 210.199437 
" style="fill:none;stroke:#90ee90;stroke-width:2;"/>
    <path clip-path="url(#pa3d2447dd5)" d="M 294.143333 224.861281 
L 294.143333 216.158155 
" style="fill:none;stroke:#90ee90;stroke-width:2;"/>
    <path clip-path="url(#pa3d2447dd5)" d="M 302.084375 230.971136 
L 302.084375 222.258133 
" style="fill:none;stroke:#90ee90;stroke-width:2;"/>
    <path clip-path="url(#pa3d2447dd5)" d="M 310.025417 237.588122 
L 310.025417 228.088064 
" style="fill:none;stroke:#90ee90;stroke-width:2;"/>
    <path clip-path="url(#pa3d2447dd5)" d="M 317.966458 244.163685 
L 317.966458 233.959418 
" style="fill:none;stroke:#90ee90;stroke-width:2;"/>
    <path clip-path="url(#pa3d2447dd5)" d="M 325.9075 250.397614 
L 325.9075 239.935322 
" style="fill:none;stroke:#90ee90;stroke-width:2;"/>
    <path clip-path="url(#pa3d2447dd5)" d="M 333.848542 256.558407 
L 333.848542 245.984362 
" style="fill:none;stroke:#90ee90;stroke-width:2;"/>
    <path clip-path="url(#pa3d2447dd5)" d="M 341.789583 262.950003 
L 341.789583 252.039682 
" style="fill:none;stroke:#90ee90;stroke-width:2;"/>
    <path clip-path="url(#pa3d2447dd5)" d="M 349.730625 269.116178 
L 349.730625 257.964798 
" style="fill:none;stroke:#90ee90;stroke-width:2;"/>
    <path clip-path="url(#pa3d2447dd5)" d="M 357.671667 275.151852 
L 357.671667 264.020415 
" style="fill:none;stroke:#90ee90;stroke-width:2;"/>
    <path clip-path="url(#pa3d2447dd5)" d="M 365.612708 281.473182 
L 365.612708 270.02746 
" style="fill:none;stroke:#90ee90;stroke-width:2;"/>
    <path clip-path="url(#pa3d2447dd5)" d="M 373.55375 287.569017 
L 373.55375 276.022916 
" style="fill:none;stroke:#90ee90;stroke-width:2;"/>
    <path clip-path="url(#pa3d2447dd5)" d="M 381.494792 293.555391 
L 381.494792 282.00929 
" style="fill:none;stroke:#90ee90;stroke-width:2;"/>
    <path clip-path="url(#pa3d2447dd5)" d="M 389.435833 299.494587 
L 389.435833 287.924302 
" style="fill:none;stroke:#90ee90;stroke-width:2;"/>
    <path clip-path="url(#pa3d2447dd5)" d="M 397.376875 305.480961 
L 397.376875 293.910676 
" style="fill:none;stroke:#90ee90;stroke-width:2;"/>
    <path clip-path="url(#pa3d2447dd5)" d="M 405.317917 311.981213 
L 405.317917 299.620256 
" style="fill:none;stroke:#90ee90;stroke-width:2;"/>
    <path clip-path="url(#pa3d2447dd5)" d="M 413.258958 318.164217 
L 413.258958 305.765628 
" style="fill:none;stroke:#90ee90;stroke-width:2;"/>
    <path clip-path="url(#pa3d2447dd5)" d="M 421.2 324.668061 
L 421.2 311.708701 
" style="fill:none;stroke:#90ee90;stroke-width:2;"/>
   </g>
   <g id="LineCollection_2">
    <path clip-path="url(#pa3d2447dd5)" d="M 40.03 26.16 
L 40.03 26.16 
" style="fill:none;stroke:#87ceeb;stroke-width:2;"/>
    <path clip-path="url(#pa3d2447dd5)" d="M 47.971042 32.146374 
L 47.971042 32.146374 
" style="fill:none;stroke:#87ceeb;stroke-width:2;"/>
    <path clip-path="url(#pa3d2447dd5)" d="M 55.912083 38.132749 
L 55.912083 38.132749 
" style="fill:none;stroke:#87ceeb;stroke-width:2;"/>
    <path clip-path="url(#pa3d2447dd5)" d="M 63.853125 44.119123 
L 63.853125 44.119123 
" style="fill:none;stroke:#87ceeb;stroke-width:2;"/>
    <path clip-path="url(#pa3d2447dd5)" d="M 71.794167 50.105497 
L 71.794167 50.105497 
" style="fill:none;stroke:#87ceeb;stroke-width:2;"/>
    <path clip-path="url(#pa3d2447dd5)" d="M 79.735208 56.091872 
L 79.735208 56.091872 
" style="fill:none;stroke:#87ceeb;stroke-width:2;"/>
    <path clip-path="url(#pa3d2447dd5)" d="M 87.67625 62.078246 
L 87.67625 62.078246 
" style="fill:none;stroke:#87ceeb;stroke-width:2;"/>
    <path clip-path="url(#pa3d2447dd5)" d="M 95.617292 68.064621 
L 95.617292 68.064621 
" style="fill:none;stroke:#87ceeb;stroke-width:2;"/>
    <path clip-path="url(#pa3d2447dd5)" d="M 103.558333 74.050995 
L 103.558333 74.050995 
" style="fill:none;stroke:#87ceeb;stroke-width:2;"/>
    <path clip-path="url(#pa3d2447dd5)" d="M 111.499375 80.037369 
L 111.499375 80.037369 
" style="fill:none;stroke:#87ceeb;stroke-width:2;"/>
    <path clip-path="url(#pa3d2447dd5)" d="M 119.440417 86.023744 
L 119.440417 86.023744 
" style="fill:none;stroke:#87ceeb;stroke-width:2;"/>
    <path clip-path="url(#pa3d2447dd5)" d="M 127.381458 92.010118 
L 127.381458 92.010118 
" style="fill:none;stroke:#87ceeb;stroke-width:2;"/>
    <path clip-path="url(#pa3d2447dd5)" d="M 135.3225 97.996492 
L 135.3225 97.996492 
" style="fill:none;stroke:#87ceeb;stroke-width:2;"/>
    <path clip-path="url(#pa3d2447dd5)" d="M 143.263542 103.982867 
L 143.263542 103.982867 
" style="fill:none;stroke:#87ceeb;stroke-width:2;"/>
    <path clip-path="url(#pa3d2447dd5)" d="M 151.204583 109.969241 
L 151.204583 109.969241 
" style="fill:none;stroke:#87ceeb;stroke-width:2;"/>
    <path clip-path="url(#pa3d2447dd5)" d="M 159.145625 115.955615 
L 159.145625 115.955615 
" style="fill:none;stroke:#87ceeb;stroke-width:2;"/>
    <path clip-path="url(#pa3d2447dd5)" d="M 167.086667 121.94199 
L 167.086667 121.94199 
" style="fill:none;stroke:#87ceeb;stroke-width:2;"/>
    <path clip-path="url(#pa3d2447dd5)" d="M 175.027708 127.928364 
L 175.027708 127.928364 
" style="fill:none;stroke:#87ceeb;stroke-width:2;"/>
    <path clip-path="url(#pa3d2447dd5)" d="M 182.96875 133.914738 
L 182.96875 133.914738 
" style="fill:none;stroke:#87ceeb;stroke-width:2;"/>
    <path clip-path="url(#pa3d2447dd5)" d="M 190.909792 139.901113 
L 190.909792 139.901113 
" style="fill:none;stroke:#87ceeb;stroke-width:2;"/>
    <path clip-path="url(#pa3d2447dd5)" d="M 198.850833 145.887487 
L 198.850833 145.887487 
" style="fill:none;stroke:#87ceeb;stroke-width:2;"/>
    <path clip-path="url(#pa3d2447dd5)" d="M 206.791875 151.873862 
L 206.791875 151.873862 
" style="fill:none;stroke:#87ceeb;stroke-width:2;"/>
    <path clip-path="url(#pa3d2447dd5)" d="M 214.732917 157.860236 
L 214.732917 157.860236 
" style="fill:none;stroke:#87ceeb;stroke-width:2;"/>
    <path clip-path="url(#pa3d2447dd5)" d="M 222.673958 163.84661 
L 222.673958 163.84661 
" style="fill:none;stroke:#87ceeb;stroke-width:2;"/>
    <path clip-path="url(#pa3d2447dd5)" d="M 230.615 169.832985 
L 230.615 169.832985 
" style="fill:none;stroke:#87ceeb;stroke-width:2;"/>
    <path clip-path="url(#pa3d2447dd5)" d="M 238.556042 175.819359 
L 238.556042 175.819359 
" style="fill:none;stroke:#87ceeb;stroke-width:2;"/>
    <path clip-path="url(#pa3d2447dd5)" d="M 246.497083 181.805733 
L 246.497083 181.805733 
" style="fill:none;stroke:#87ceeb;stroke-width:2;"/>
    <path clip-path="url(#pa3d2447dd5)" d="M 254.438125 187.792108 
L 254.438125 187.792108 
" style="fill:none;stroke:#87ceeb;stroke-width:2;"/>
    <path clip-path="url(#pa3d2447dd5)" d="M 262.379167 193.778482 
L 262.379167 193.778482 
" style="fill:none;stroke:#87ceeb;stroke-width:2;"/>
    <path clip-path="url(#pa3d2447dd5)" d="M 270.320208 199.764856 
L 270.320208 199.764856 
" style="fill:none;stroke:#87ceeb;stroke-width:2;"/>
    <path clip-path="url(#pa3d2447dd5)" d="M 278.26125 205.751231 
L 278.26125 205.751231 
" style="fill:none;stroke:#87ceeb;stroke-width:2;"/>
    <path clip-path="url(#pa3d2447dd5)" d="M 286.202292 219.312775 
L 286.202292 208.074324 
" style="fill:none;stroke:#87ceeb;stroke-width:2;"/>
    <path clip-path="url(#pa3d2447dd5)" d="M 294.143333 235.683103 
L 294.143333 235.683103 
" style="fill:none;stroke:#87ceeb;stroke-width:2;"/>
    <path clip-path="url(#pa3d2447dd5)" d="M 302.084375 241.669477 
L 302.084375 241.669477 
" style="fill:none;stroke:#87ceeb;stroke-width:2;"/>
    <path clip-path="url(#pa3d2447dd5)" d="M 310.025417 247.655851 
L 310.025417 247.655851 
" style="fill:none;stroke:#87ceeb;stroke-width:2;"/>
    <path clip-path="url(#pa3d2447dd5)" d="M 317.966458 253.642226 
L 317.966458 253.642226 
" style="fill:none;stroke:#87ceeb;stroke-width:2;"/>
    <path clip-path="url(#pa3d2447dd5)" d="M 325.9075 259.6286 
L 325.9075 259.6286 
" style="fill:none;stroke:#87ceeb;stroke-width:2;"/>
    <path clip-path="url(#pa3d2447dd5)" d="M 333.848542 265.614974 
L 333.848542 265.614974 
" style="fill:none;stroke:#87ceeb;stroke-width:2;"/>
    <path clip-path="url(#pa3d2447dd5)" d="M 341.789583 271.601349 
L 341.789583 271.601349 
" style="fill:none;stroke:#87ceeb;stroke-width:2;"/>
    <path clip-path="url(#pa3d2447dd5)" d="M 349.730625 277.587723 
L 349.730625 277.587723 
" style="fill:none;stroke:#87ceeb;stroke-width:2;"/>
    <path clip-path="url(#pa3d2447dd5)" d="M 357.671667 283.574097 
L 357.671667 283.574097 
" style="fill:none;stroke:#87ceeb;stroke-width:2;"/>
    <path clip-path="url(#pa3d2447dd5)" d="M 365.612708 289.560472 
L 365.612708 289.560472 
" style="fill:none;stroke:#87ceeb;stroke-width:2;"/>
    <path clip-path="url(#pa3d2447dd5)" d="M 373.55375 295.546846 
L 373.55375 295.546846 
" style="fill:none;stroke:#87ceeb;stroke-width:2;"/>
    <path clip-path="url(#pa3d2447dd5)" d="M 381.494792 301.53322 
L 381.494792 301.53322 
" style="fill:none;stroke:#87ceeb;stroke-width:2;"/>
    <path clip-path="url(#pa3d2447dd5)" d="M 389.435833 307.519595 
L 389.435833 307.519595 
" style="fill:none;stroke:#87ceeb;stroke-width:2;"/>
    <path clip-path="url(#pa3d2447dd5)" d="M 397.376875 313.505969 
L 397.376875 313.505969 
" style="fill:none;stroke:#87ceeb;stroke-width:2;"/>
    <path clip-path="url(#pa3d2447dd5)" d="M 405.317917 319.492344 
L 405.317917 319.492344 
" style="fill:none;stroke:#87ceeb;stroke-width:2;"/>
    <path clip-path="url(#pa3d2447dd5)" d="M 413.258958 325.478718 
L 413.258958 325.478718 
" style="fill:none;stroke:#87ceeb;stroke-width:2;"/>
    <path clip-path="url(#pa3d2447dd5)" d="M 421.2 332.12 
L 421.2 330.928727 
" style="fill:none;stroke:#87ceeb;stroke-width:2;"/>
   </g>
   <g id="LineCollection_3">
    <path clip-path="url(#pa3d2447dd5)" d="M 40.03 26.16 
L 40.03 26.16 
" style="fill:none;stroke:#f08080;"/>
    <path clip-path="url(#pa3d2447dd5)" d="M 47.971042 32.146374 
L 47.971042 32.146374 
" style="fill:none;stroke:#f08080;"/>
    <path clip-path="url(#pa3d2447dd5)" d="M 55.912083 38.132749 
L 55.912083 38.132749 
" style="fill:none;stroke:#f08080;"/>
    <path clip-path="url(#pa3d2447dd5)" d="M 63.853125 44.119123 
L 63.853125 44.119123 
" style="fill:none;stroke:#f08080;"/>
    <path clip-path="url(#pa3d2447dd5)" d="M 71.794167 50.105497 
L 71.794167 50.105497 
" style="fill:none;stroke:#f08080;"/>
    <path clip-path="url(#pa3d2447dd5)" d="M 79.735208 56.091872 
L 79.735208 56.091872 
" style="fill:none;stroke:#f08080;"/>
    <path clip-path="url(#pa3d2447dd5)" d="M 87.67625 62.078246 
L 87.67625 62.078246 
" style="fill:none;stroke:#f08080;"/>
    <path clip-path="url(#pa3d2447dd5)" d="M 95.617292 68.064621 
L 95.617292 68.064621 
" style="fill:none;stroke:#f08080;"/>
    <path clip-path="url(#pa3d2447dd5)" d="M 103.558333 74.050995 
L 103.558333 74.050995 
" style="fill:none;stroke:#f08080;"/>
    <path clip-path="url(#pa3d2447dd5)" d="M 111.499375 80.037369 
L 111.499375 80.037369 
" style="fill:none;stroke:#f08080;"/>
    <path clip-path="url(#pa3d2447dd5)" d="M 119.440417 86.023744 
L 119.440417 86.023744 
" style="fill:none;stroke:#f08080;"/>
    <path clip-path="url(#pa3d2447dd5)" d="M 127.381458 92.010118 
L 127.381458 92.010118 
" style="fill:none;stroke:#f08080;"/>
    <path clip-path="url(#pa3d2447dd5)" d="M 135.3225 97.996492 
L 135.3225 97.996492 
" style="fill:none;stroke:#f08080;"/>
    <path clip-path="url(#pa3d2447dd5)" d="M 143.263542 103.982867 
L 143.263542 103.982867 
" style="fill:none;stroke:#f08080;"/>
    <path clip-path="url(#pa3d2447dd5)" d="M 151.204583 109.969241 
L 151.204583 109.969241 
" style="fill:none;stroke:#f08080;"/>
    <path clip-path="url(#pa3d2447dd5)" d="M 159.145625 115.955615 
L 159.145625 115.955615 
" style="fill:none;stroke:#f08080;"/>
    <path clip-path="url(#pa3d2447dd5)" d="M 167.086667 121.94199 
L 167.086667 121.94199 
" style="fill:none;stroke:#f08080;"/>
    <path clip-path="url(#pa3d2447dd5)" d="M 175.027708 127.928364 
L 175.027708 127.928364 
" style="fill:none;stroke:#f08080;"/>
    <path clip-path="url(#pa3d2447dd5)" d="M 182.96875 133.914738 
L 182.96875 133.914738 
" style="fill:none;stroke:#f08080;"/>
    <path clip-path="url(#pa3d2447dd5)" d="M 190.909792 139.901113 
L 190.909792 139.901113 
" style="fill:none;stroke:#f08080;"/>
    <path clip-path="url(#pa3d2447dd5)" d="M 198.850833 145.887487 
L 198.850833 145.887487 
" style="fill:none;stroke:#f08080;"/>
    <path clip-path="url(#pa3d2447dd5)" d="M 206.791875 151.873862 
L 206.791875 151.873862 
" style="fill:none;stroke:#f08080;"/>
    <path clip-path="url(#pa3d2447dd5)" d="M 214.732917 157.860236 
L 214.732917 157.860236 
" style="fill:none;stroke:#f08080;"/>
    <path clip-path="url(#pa3d2447dd5)" d="M 222.673958 163.84661 
L 222.673958 163.84661 
" style="fill:none;stroke:#f08080;"/>
    <path clip-path="url(#pa3d2447dd5)" d="M 230.615 169.832985 
L 230.615 169.832985 
" style="fill:none;stroke:#f08080;"/>
    <path clip-path="url(#pa3d2447dd5)" d="M 238.556042 175.819359 
L 238.556042 175.819359 
" style="fill:none;stroke:#f08080;"/>
    <path clip-path="url(#pa3d2447dd5)" d="M 246.497083 181.805733 
L 246.497083 181.805733 
" style="fill:none;stroke:#f08080;"/>
    <path clip-path="url(#pa3d2447dd5)" d="M 254.438125 187.792108 
L 254.438125 187.792108 
" style="fill:none;stroke:#f08080;"/>
    <path clip-path="url(#pa3d2447dd5)" d="M 262.379167 193.778482 
L 262.379167 193.778482 
" style="fill:none;stroke:#f08080;"/>
    <path clip-path="url(#pa3d2447dd5)" d="M 270.320208 199.764856 
L 270.320208 199.764856 
" style="fill:none;stroke:#f08080;"/>
    <path clip-path="url(#pa3d2447dd5)" d="M 278.26125 205.751231 
L 278.26125 205.751231 
" style="fill:none;stroke:#f08080;"/>
    <path clip-path="url(#pa3d2447dd5)" d="M 286.202292 211.737605 
L 286.202292 211.737605 
" style="fill:none;stroke:#f08080;"/>
    <path clip-path="url(#pa3d2447dd5)" d="M 294.143333 217.723979 
L 294.143333 217.723979 
" style="fill:none;stroke:#f08080;"/>
    <path clip-path="url(#pa3d2447dd5)" d="M 302.084375 223.710354 
L 302.084375 223.710354 
" style="fill:none;stroke:#f08080;"/>
    <path clip-path="url(#pa3d2447dd5)" d="M 310.025417 229.696728 
L 310.025417 229.696728 
" style="fill:none;stroke:#f08080;"/>
    <path clip-path="url(#pa3d2447dd5)" d="M 317.966458 235.683103 
L 317.966458 235.683103 
" style="fill:none;stroke:#f08080;"/>
    <path clip-path="url(#pa3d2447dd5)" d="M 325.9075 241.669477 
L 325.9075 241.669477 
" style="fill:none;stroke:#f08080;"/>
    <path clip-path="url(#pa3d2447dd5)" d="M 333.848542 247.655851 
L 333.848542 247.655851 
" style="fill:none;stroke:#f08080;"/>
    <path clip-path="url(#pa3d2447dd5)" d="M 341.789583 253.642226 
L 341.789583 253.642226 
" style="fill:none;stroke:#f08080;"/>
    <path clip-path="url(#pa3d2447dd5)" d="M 349.730625 259.6286 
L 349.730625 259.6286 
" style="fill:none;stroke:#f08080;"/>
    <path clip-path="url(#pa3d2447dd5)" d="M 357.671667 265.614974 
L 357.671667 265.614974 
" style="fill:none;stroke:#f08080;"/>
    <path clip-path="url(#pa3d2447dd5)" d="M 365.612708 271.601349 
L 365.612708 271.601349 
" style="fill:none;stroke:#f08080;"/>
    <path clip-path="url(#pa3d2447dd5)" d="M 373.55375 277.587723 
L 373.55375 277.587723 
" style="fill:none;stroke:#f08080;"/>
    <path clip-path="url(#pa3d2447dd5)" d="M 381.494792 283.574097 
L 381.494792 283.574097 
" style="fill:none;stroke:#f08080;"/>
    <path clip-path="url(#pa3d2447dd5)" d="M 389.435833 289.560472 
L 389.435833 289.560472 
" style="fill:none;stroke:#f08080;"/>
    <path clip-path="url(#pa3d2447dd5)" d="M 397.376875 295.546846 
L 397.376875 295.546846 
" style="fill:none;stroke:#f08080;"/>
    <path clip-path="url(#pa3d2447dd5)" d="M 405.317917 301.53322 
L 405.317917 301.53322 
" style="fill:none;stroke:#f08080;"/>
    <path clip-path="url(#pa3d2447dd5)" d="M 413.258958 307.519595 
L 413.258958 307.519595 
" style="fill:none;stroke:#f08080;"/>
    <path clip-path="url(#pa3d2447dd5)" d="M 421.2 313.505969 
L 421.2 313.505969 
" style="fill:none;stroke:#f08080;"/>
   </g>
   <g id="line2d_19">
    <path clip-path="url(#pa3d2447dd5)" d="M 40.03 26.16 
L 421.2 313.505969 
" style="fill:none;stroke:#000000;stroke-dasharray:3.7,1.6;stroke-dashoffset:0;"/>
   </g>
   <g id="line2d_20">
    <path clip-path="url(#pa3d2447dd5)" d="M 40.03 26.16 
L 47.971042 32.264916 
L 55.912083 38.310562 
L 63.853125 44.53402 
L 71.794167 50.520395 
L 79.735208 56.625311 
L 87.67625 62.611685 
L 95.617292 68.657331 
L 103.558333 74.762247 
L 111.499375 80.867164 
L 119.440417 86.97208 
L 127.381458 92.899183 
L 135.3225 98.885558 
L 143.263542 104.990474 
L 151.204583 111.03612 
L 159.145625 117.022494 
L 167.086667 123.186681 
L 175.027708 129.469411 
L 182.96875 135.574327 
L 190.909792 141.857057 
L 198.850833 147.843431 
L 206.791875 153.770535 
L 214.732917 159.875451 
L 222.673958 165.980367 
L 230.615 172.085284 
L 238.556042 178.130929 
L 246.497083 184.235846 
L 254.438125 190.400033 
L 262.379167 196.445679 
L 270.320208 202.550595 
L 278.26125 208.536969 
L 286.202292 214.464073 
L 294.143333 220.509718 
L 302.084375 226.614634 
L 310.025417 232.838093 
L 317.966458 239.061551 
L 325.9075 245.166468 
L 333.848542 251.271384 
L 341.789583 257.494843 
L 349.730625 263.540488 
L 357.671667 269.586134 
L 365.612708 275.750321 
L 373.55375 281.795966 
L 381.494792 287.782341 
L 389.435833 293.709444 
L 397.376875 299.695818 
L 405.317917 305.800735 
L 413.258958 311.964922 
L 421.2 318.188381 
" style="fill:none;stroke:#32cd32;stroke-linecap:square;stroke-width:2;"/>
   </g>
   <g id="line2d_21">
    <path clip-path="url(#pa3d2447dd5)" d="M 40.03 26.16 
L 47.971042 32.146374 
L 55.912083 38.132749 
L 63.853125 44.119123 
L 71.794167 50.105497 
L 79.735208 56.091872 
L 87.67625 62.078246 
L 95.617292 68.064621 
L 103.558333 74.050995 
L 111.499375 80.037369 
L 119.440417 86.023744 
L 127.381458 92.010118 
L 135.3225 97.996492 
L 143.263542 103.982867 
L 151.204583 109.969241 
L 159.145625 115.955615 
L 167.086667 121.94199 
L 175.027708 127.928364 
L 182.96875 133.914738 
L 190.909792 139.901113 
L 198.850833 145.887487 
L 206.791875 151.873862 
L 214.732917 157.860236 
L 222.673958 163.84661 
L 230.615 169.832985 
L 238.556042 175.819359 
L 246.497083 181.805733 
L 254.438125 187.792108 
L 262.379167 193.778482 
L 270.320208 199.764856 
L 278.26125 205.751231 
L 286.202292 213.693549 
L 294.143333 235.683103 
L 302.084375 241.669477 
L 310.025417 247.655851 
L 317.966458 253.642226 
L 325.9075 259.6286 
L 333.848542 265.614974 
L 341.789583 271.601349 
L 349.730625 277.587723 
L 357.671667 283.574097 
L 365.612708 289.560472 
L 373.55375 295.546846 
L 381.494792 301.53322 
L 389.435833 307.519595 
L 397.376875 313.505969 
L 405.317917 319.492344 
L 413.258958 325.478718 
L 421.2 331.524363 
" style="fill:none;stroke:#0000ff;stroke-linecap:square;stroke-width:2;"/>
   </g>
   <g id="line2d_22">
    <path clip-path="url(#pa3d2447dd5)" d="M 40.03 26.16 
L 47.971042 32.146374 
L 55.912083 38.132749 
L 63.853125 44.119123 
L 71.794167 50.105497 
L 79.735208 56.091872 
L 87.67625 62.078246 
L 95.617292 68.064621 
L 103.558333 74.050995 
L 111.499375 80.037369 
L 119.440417 86.023744 
L 127.381458 92.010118 
L 135.3225 97.996492 
L 143.263542 103.982867 
L 151.204583 109.969241 
L 159.145625 115.955615 
L 167.086667 121.94199 
L 175.027708 127.928364 
L 182.96875 133.914738 
L 190.909792 139.901113 
L 198.850833 145.887487 
L 206.791875 151.873862 
L 214.732917 157.860236 
L 222.673958 163.84661 
L 230.615 169.832985 
L 238.556042 175.819359 
L 246.497083 181.805733 
L 254.438125 187.792108 
L 262.379167 193.778482 
L 270.320208 199.764856 
L 278.26125 205.751231 
L 286.202292 211.737605 
L 294.143333 217.723979 
L 302.084375 223.710354 
L 310.025417 229.696728 
L 317.966458 235.683103 
L 325.9075 241.669477 
L 333.848542 247.655851 
L 341.789583 253.642226 
L 349.730625 259.6286 
L 357.671667 265.614974 
L 365.612708 271.601349 
L 373.55375 277.587723 
L 381.494792 283.574097 
L 389.435833 289.560472 
L 397.376875 295.546846 
L 405.317917 301.53322 
L 413.258958 307.519595 
L 421.2 313.505969 
" style="fill:none;stroke:#ff0000;stroke-linecap:square;stroke-width:2;"/>
   </g>
   <g id="patch_3">
    <path d="M 40.03 332.12 
L 40.03 26.16 
" style="fill:none;stroke:#000000;stroke-linecap:square;stroke-linejoin:miter;stroke-width:0.8;"/>
   </g>
   <g id="patch_4">
    <path d="M 421.2 332.12 
L 421.2 26.16 
" style="fill:none;stroke:#000000;stroke-linecap:square;stroke-linejoin:miter;stroke-width:0.8;"/>
   </g>
   <g id="patch_5">
    <path d="M 40.03 332.12 
L 421.2 332.12 
" style="fill:none;stroke:#000000;stroke-linecap:square;stroke-linejoin:miter;stroke-width:0.8;"/>
   </g>
   <g id="patch_6">
    <path d="M 40.03 26.16 
L 421.2 26.16 
" style="fill:none;stroke:#000000;stroke-linecap:square;stroke-linejoin:miter;stroke-width:0.8;"/>
   </g>
   <g id="text_19">
    <!-- DNA Repair -->
    <g transform="translate(196.284687 20.16)scale(0.12 -0.12)">
     <defs>
      <path d="M 19.671875 64.796875 
L 19.671875 8.109375 
L 31.59375 8.109375 
Q 46.6875 8.109375 53.6875 14.9375 
Q 60.6875 21.78125 60.6875 36.53125 
Q 60.6875 51.171875 53.6875 57.984375 
Q 46.6875 64.796875 31.59375 64.796875 
z
M 9.8125 72.90625 
L 30.078125 72.90625 
Q 51.265625 72.90625 61.171875 64.09375 
Q 71.09375 55.28125 71.09375 36.53125 
Q 71.09375 17.671875 61.125 8.828125 
Q 51.171875 0 30.078125 0 
L 9.8125 0 
z
" id="DejaVuSans-68"/>
      <path d="M 9.8125 72.90625 
L 23.09375 72.90625 
L 55.421875 11.921875 
L 55.421875 72.90625 
L 64.984375 72.90625 
L 64.984375 0 
L 51.703125 0 
L 19.390625 60.984375 
L 19.390625 0 
L 9.8125 0 
z
" id="DejaVuSans-78"/>
      <path d="M 34.1875 63.1875 
L 20.796875 26.90625 
L 47.609375 26.90625 
z
M 28.609375 72.90625 
L 39.796875 72.90625 
L 67.578125 0 
L 57.328125 0 
L 50.6875 18.703125 
L 17.828125 18.703125 
L 11.1875 0 
L 0.78125 0 
z
" id="DejaVuSans-65"/>
      <path id="DejaVuSans-32"/>
      <path d="M 44.390625 34.1875 
Q 47.5625 33.109375 50.5625 29.59375 
Q 53.5625 26.078125 56.59375 19.921875 
L 66.609375 0 
L 56 0 
L 46.6875 18.703125 
Q 43.0625 26.03125 39.671875 28.421875 
Q 36.28125 30.8125 30.421875 30.8125 
L 19.671875 30.8125 
L 19.671875 0 
L 9.8125 0 
L 9.8125 72.90625 
L 32.078125 72.90625 
Q 44.578125 72.90625 50.734375 67.671875 
Q 56.890625 62.453125 56.890625 51.90625 
Q 56.890625 45.015625 53.6875 40.46875 
Q 50.484375 35.9375 44.390625 34.1875 
z
M 19.671875 64.796875 
L 19.671875 38.921875 
L 32.078125 38.921875 
Q 39.203125 38.921875 42.84375 42.21875 
Q 46.484375 45.515625 46.484375 51.90625 
Q 46.484375 58.296875 42.84375 61.546875 
Q 39.203125 64.796875 32.078125 64.796875 
z
" id="DejaVuSans-82"/>
      <path d="M 56.203125 29.59375 
L 56.203125 25.203125 
L 14.890625 25.203125 
Q 15.484375 15.921875 20.484375 11.0625 
Q 25.484375 6.203125 34.421875 6.203125 
Q 39.59375 6.203125 44.453125 7.46875 
Q 49.3125 8.734375 54.109375 11.28125 
L 54.109375 2.78125 
Q 49.265625 0.734375 44.1875 -0.34375 
Q 39.109375 -1.421875 33.890625 -1.421875 
Q 20.796875 -1.421875 13.15625 6.1875 
Q 5.515625 13.8125 5.515625 26.8125 
Q 5.515625 40.234375 12.765625 48.109375 
Q 20.015625 56 32.328125 56 
Q 43.359375 56 49.78125 48.890625 
Q 56.203125 41.796875 56.203125 29.59375 
z
M 47.21875 32.234375 
Q 47.125 39.59375 43.09375 43.984375 
Q 39.0625 48.390625 32.421875 48.390625 
Q 24.90625 48.390625 20.390625 44.140625 
Q 15.875 39.890625 15.1875 32.171875 
z
" id="DejaVuSans-101"/>
      <path d="M 18.109375 8.203125 
L 18.109375 -20.796875 
L 9.078125 -20.796875 
L 9.078125 54.6875 
L 18.109375 54.6875 
L 18.109375 46.390625 
Q 20.953125 51.265625 25.265625 53.625 
Q 29.59375 56 35.59375 56 
Q 45.5625 56 51.78125 48.09375 
Q 58.015625 40.1875 58.015625 27.296875 
Q 58.015625 14.40625 51.78125 6.484375 
Q 45.5625 -1.421875 35.59375 -1.421875 
Q 29.59375 -1.421875 25.265625 0.953125 
Q 20.953125 3.328125 18.109375 8.203125 
z
M 48.6875 27.296875 
Q 48.6875 37.203125 44.609375 42.84375 
Q 40.53125 48.484375 33.40625 48.484375 
Q 26.265625 48.484375 22.1875 42.84375 
Q 18.109375 37.203125 18.109375 27.296875 
Q 18.109375 17.390625 22.1875 11.75 
Q 26.265625 6.109375 33.40625 6.109375 
Q 40.53125 6.109375 44.609375 11.75 
Q 48.6875 17.390625 48.6875 27.296875 
z
" id="DejaVuSans-112"/>
      <path d="M 34.28125 27.484375 
Q 23.390625 27.484375 19.1875 25 
Q 14.984375 22.515625 14.984375 16.5 
Q 14.984375 11.71875 18.140625 8.90625 
Q 21.296875 6.109375 26.703125 6.109375 
Q 34.1875 6.109375 38.703125 11.40625 
Q 43.21875 16.703125 43.21875 25.484375 
L 43.21875 27.484375 
z
M 52.203125 31.203125 
L 52.203125 0 
L 43.21875 0 
L 43.21875 8.296875 
Q 40.140625 3.328125 35.546875 0.953125 
Q 30.953125 -1.421875 24.3125 -1.421875 
Q 15.921875 -1.421875 10.953125 3.296875 
Q 6 8.015625 6 15.921875 
Q 6 25.140625 12.171875 29.828125 
Q 18.359375 34.515625 30.609375 34.515625 
L 43.21875 34.515625 
L 43.21875 35.40625 
Q 43.21875 41.609375 39.140625 45 
Q 35.0625 48.390625 27.6875 48.390625 
Q 23 48.390625 18.546875 47.265625 
Q 14.109375 46.140625 10.015625 43.890625 
L 10.015625 52.203125 
Q 14.9375 54.109375 19.578125 55.046875 
Q 24.21875 56 28.609375 56 
Q 40.484375 56 46.34375 49.84375 
Q 52.203125 43.703125 52.203125 31.203125 
z
" id="DejaVuSans-97"/>
      <path d="M 9.421875 54.6875 
L 18.40625 54.6875 
L 18.40625 0 
L 9.421875 0 
z
M 9.421875 75.984375 
L 18.40625 75.984375 
L 18.40625 64.59375 
L 9.421875 64.59375 
z
" id="DejaVuSans-105"/>
      <path d="M 41.109375 46.296875 
Q 39.59375 47.171875 37.8125 47.578125 
Q 36.03125 48 33.890625 48 
Q 26.265625 48 22.1875 43.046875 
Q 18.109375 38.09375 18.109375 28.8125 
L 18.109375 0 
L 9.078125 0 
L 9.078125 54.6875 
L 18.109375 54.6875 
L 18.109375 46.1875 
Q 20.953125 51.171875 25.484375 53.578125 
Q 30.03125 56 36.53125 56 
Q 37.453125 56 38.578125 55.875 
Q 39.703125 55.765625 41.0625 55.515625 
z
" id="DejaVuSans-114"/>
     </defs>
     <use xlink:href="#DejaVuSans-68"/>
     <use x="77.001953" xlink:href="#DejaVuSans-78"/>
     <use x="151.806641" xlink:href="#DejaVuSans-65"/>
     <use x="220.214844" xlink:href="#DejaVuSans-32"/>
     <use x="252.001953" xlink:href="#DejaVuSans-82"/>
     <use x="316.984375" xlink:href="#DejaVuSans-101"/>
     <use x="378.507812" xlink:href="#DejaVuSans-112"/>
     <use x="441.984375" xlink:href="#DejaVuSans-97"/>
     <use x="503.263672" xlink:href="#DejaVuSans-105"/>
     <use x="531.046875" xlink:href="#DejaVuSans-114"/>
    </g>
   </g>
   <g id="legend_1">
    <g id="patch_7">
     <path d="M 325.520312 78.194375 
L 414.2 78.194375 
Q 416.2 78.194375 416.2 76.194375 
L 416.2 33.16 
Q 416.2 31.16 414.2 31.16 
L 325.520312 31.16 
Q 323.520312 31.16 323.520312 33.16 
L 323.520312 76.194375 
Q 323.520312 78.194375 325.520312 78.194375 
z
" style="fill:#ffffff;opacity:0.8;stroke:#cccccc;stroke-linejoin:miter;"/>
    </g>
    <g id="LineCollection_4">
     <path d="M 337.520312 44.258437 
L 337.520312 34.258437 
" style="fill:none;stroke:#90ee90;stroke-width:2;"/>
    </g>
    <g id="line2d_23">
     <path d="M 327.520312 39.258437 
L 347.520312 39.258437 
" style="fill:none;stroke:#32cd32;stroke-linecap:square;stroke-width:2;"/>
    </g>
    <g id="line2d_24"/>
    <g id="text_20">
     <!-- Not Drivers -->
     <g transform="translate(355.520312 42.758437)scale(0.1 -0.1)">
      <defs>
       <path d="M 30.609375 48.390625 
Q 23.390625 48.390625 19.1875 42.75 
Q 14.984375 37.109375 14.984375 27.296875 
Q 14.984375 17.484375 19.15625 11.84375 
Q 23.34375 6.203125 30.609375 6.203125 
Q 37.796875 6.203125 41.984375 11.859375 
Q 46.1875 17.53125 46.1875 27.296875 
Q 46.1875 37.015625 41.984375 42.703125 
Q 37.796875 48.390625 30.609375 48.390625 
z
M 30.609375 56 
Q 42.328125 56 49.015625 48.375 
Q 55.71875 40.765625 55.71875 27.296875 
Q 55.71875 13.875 49.015625 6.21875 
Q 42.328125 -1.421875 30.609375 -1.421875 
Q 18.84375 -1.421875 12.171875 6.21875 
Q 5.515625 13.875 5.515625 27.296875 
Q 5.515625 40.765625 12.171875 48.375 
Q 18.84375 56 30.609375 56 
z
" id="DejaVuSans-111"/>
       <path d="M 18.3125 70.21875 
L 18.3125 54.6875 
L 36.8125 54.6875 
L 36.8125 47.703125 
L 18.3125 47.703125 
L 18.3125 18.015625 
Q 18.3125 11.328125 20.140625 9.421875 
Q 21.96875 7.515625 27.59375 7.515625 
L 36.8125 7.515625 
L 36.8125 0 
L 27.59375 0 
Q 17.1875 0 13.234375 3.875 
Q 9.28125 7.765625 9.28125 18.015625 
L 9.28125 47.703125 
L 2.6875 47.703125 
L 2.6875 54.6875 
L 9.28125 54.6875 
L 9.28125 70.21875 
z
" id="DejaVuSans-116"/>
       <path d="M 2.984375 54.6875 
L 12.5 54.6875 
L 29.59375 8.796875 
L 46.6875 54.6875 
L 56.203125 54.6875 
L 35.6875 0 
L 23.484375 0 
z
" id="DejaVuSans-118"/>
       <path d="M 44.28125 53.078125 
L 44.28125 44.578125 
Q 40.484375 46.53125 36.375 47.5 
Q 32.28125 48.484375 27.875 48.484375 
Q 21.1875 48.484375 17.84375 46.4375 
Q 14.5 44.390625 14.5 40.28125 
Q 14.5 37.15625 16.890625 35.375 
Q 19.28125 33.59375 26.515625 31.984375 
L 29.59375 31.296875 
Q 39.15625 29.25 43.1875 25.515625 
Q 47.21875 21.78125 47.21875 15.09375 
Q 47.21875 7.46875 41.1875 3.015625 
Q 35.15625 -1.421875 24.609375 -1.421875 
Q 20.21875 -1.421875 15.453125 -0.5625 
Q 10.6875 0.296875 5.421875 2 
L 5.421875 11.28125 
Q 10.40625 8.6875 15.234375 7.390625 
Q 20.0625 6.109375 24.8125 6.109375 
Q 31.15625 6.109375 34.5625 8.28125 
Q 37.984375 10.453125 37.984375 14.40625 
Q 37.984375 18.0625 35.515625 20.015625 
Q 33.0625 21.96875 24.703125 23.78125 
L 21.578125 24.515625 
Q 13.234375 26.265625 9.515625 29.90625 
Q 5.8125 33.546875 5.8125 39.890625 
Q 5.8125 47.609375 11.28125 51.796875 
Q 16.75 56 26.8125 56 
Q 31.78125 56 36.171875 55.265625 
Q 40.578125 54.546875 44.28125 53.078125 
z
" id="DejaVuSans-115"/>
      </defs>
      <use xlink:href="#DejaVuSans-78"/>
      <use x="74.804688" xlink:href="#DejaVuSans-111"/>
      <use x="135.986328" xlink:href="#DejaVuSans-116"/>
      <use x="175.195312" xlink:href="#DejaVuSans-32"/>
      <use x="206.982422" xlink:href="#DejaVuSans-68"/>
      <use x="283.984375" xlink:href="#DejaVuSans-114"/>
      <use x="325.097656" xlink:href="#DejaVuSans-105"/>
      <use x="352.880859" xlink:href="#DejaVuSans-118"/>
      <use x="412.060547" xlink:href="#DejaVuSans-101"/>
      <use x="473.583984" xlink:href="#DejaVuSans-114"/>
      <use x="514.697266" xlink:href="#DejaVuSans-115"/>
     </g>
    </g>
    <g id="LineCollection_5">
     <path d="M 337.520312 58.936562 
L 337.520312 48.936562 
" style="fill:none;stroke:#87ceeb;stroke-width:2;"/>
    </g>
    <g id="line2d_25">
     <path d="M 327.520312 53.936562 
L 347.520312 53.936562 
" style="fill:none;stroke:#0000ff;stroke-linecap:square;stroke-width:2;"/>
    </g>
    <g id="line2d_26"/>
    <g id="text_21">
     <!-- Hubs -->
     <g transform="translate(355.520312 57.436562)scale(0.1 -0.1)">
      <defs>
       <path d="M 9.8125 72.90625 
L 19.671875 72.90625 
L 19.671875 43.015625 
L 55.515625 43.015625 
L 55.515625 72.90625 
L 65.375 72.90625 
L 65.375 0 
L 55.515625 0 
L 55.515625 34.71875 
L 19.671875 34.71875 
L 19.671875 0 
L 9.8125 0 
z
" id="DejaVuSans-72"/>
       <path d="M 8.5 21.578125 
L 8.5 54.6875 
L 17.484375 54.6875 
L 17.484375 21.921875 
Q 17.484375 14.15625 20.5 10.265625 
Q 23.53125 6.390625 29.59375 6.390625 
Q 36.859375 6.390625 41.078125 11.03125 
Q 45.3125 15.671875 45.3125 23.6875 
L 45.3125 54.6875 
L 54.296875 54.6875 
L 54.296875 0 
L 45.3125 0 
L 45.3125 8.40625 
Q 42.046875 3.421875 37.71875 1 
Q 33.40625 -1.421875 27.6875 -1.421875 
Q 18.265625 -1.421875 13.375 4.4375 
Q 8.5 10.296875 8.5 21.578125 
z
M 31.109375 56 
z
" id="DejaVuSans-117"/>
       <path d="M 48.6875 27.296875 
Q 48.6875 37.203125 44.609375 42.84375 
Q 40.53125 48.484375 33.40625 48.484375 
Q 26.265625 48.484375 22.1875 42.84375 
Q 18.109375 37.203125 18.109375 27.296875 
Q 18.109375 17.390625 22.1875 11.75 
Q 26.265625 6.109375 33.40625 6.109375 
Q 40.53125 6.109375 44.609375 11.75 
Q 48.6875 17.390625 48.6875 27.296875 
z
M 18.109375 46.390625 
Q 20.953125 51.265625 25.265625 53.625 
Q 29.59375 56 35.59375 56 
Q 45.5625 56 51.78125 48.09375 
Q 58.015625 40.1875 58.015625 27.296875 
Q 58.015625 14.40625 51.78125 6.484375 
Q 45.5625 -1.421875 35.59375 -1.421875 
Q 29.59375 -1.421875 25.265625 0.953125 
Q 20.953125 3.328125 18.109375 8.203125 
L 18.109375 0 
L 9.078125 0 
L 9.078125 75.984375 
L 18.109375 75.984375 
z
" id="DejaVuSans-98"/>
      </defs>
      <use xlink:href="#DejaVuSans-72"/>
      <use x="75.195312" xlink:href="#DejaVuSans-117"/>
      <use x="138.574219" xlink:href="#DejaVuSans-98"/>
      <use x="202.050781" xlink:href="#DejaVuSans-115"/>
     </g>
    </g>
    <g id="LineCollection_6">
     <path d="M 337.520312 73.614687 
L 337.520312 63.614687 
" style="fill:none;stroke:#f08080;"/>
    </g>
    <g id="line2d_27">
     <path d="M 327.520312 68.614687 
L 347.520312 68.614687 
" style="fill:none;stroke:#ff0000;stroke-linecap:square;stroke-width:2;"/>
    </g>
    <g id="line2d_28"/>
    <g id="text_22">
     <!-- Drivers -->
     <g transform="translate(355.520312 72.114687)scale(0.1 -0.1)">
      <use xlink:href="#DejaVuSans-68"/>
      <use x="77.001953" xlink:href="#DejaVuSans-114"/>
      <use x="118.115234" xlink:href="#DejaVuSans-105"/>
      <use x="145.898438" xlink:href="#DejaVuSans-118"/>
      <use x="205.078125" xlink:href="#DejaVuSans-101"/>
      <use x="266.601562" xlink:href="#DejaVuSans-114"/>
      <use x="307.714844" xlink:href="#DejaVuSans-115"/>
     </g>
    </g>
   </g>
  </g>
 </g>
 <defs>
  <clipPath id="pa3d2447dd5">
   <rect height="305.96" width="381.17" x="40.03" y="26.16"/>
  </clipPath>
 </defs>
</svg>
