<?xml version="1.0" encoding="utf-8" standalone="no"?>
<!DOCTYPE svg PUBLIC "-//W3C//DTD SVG 1.1//EN"
  "http://www.w3.org/Graphics/SVG/1.1/DTD/svg11.dtd">
<!-- Created with matplotlib (https://matplotlib.org/) -->
<svg height="360pt" version="1.1" viewBox="0 0 432 360" width="432pt" xmlns="http://www.w3.org/2000/svg" xmlns:xlink="http://www.w3.org/1999/xlink">
 <metadata>
  <rdf:RDF xmlns:cc="http://creativecommons.org/ns#" xmlns:dc="http://purl.org/dc/elements/1.1/" xmlns:rdf="http://www.w3.org/1999/02/22-rdf-syntax-ns#">
   <cc:Work>
    <dc:type rdf:resource="http://purl.org/dc/dcmitype/StillImage"/>
    <dc:date>2021-07-27T14:04:17.712054</dc:date>
    <dc:format>image/svg+xml</dc:format>
    <dc:creator>
     <cc:Agent>
      <dc:title>Matplotlib v3.3.2, https://matplotlib.org/</dc:title>
     </cc:Agent>
    </dc:creator>
   </cc:Work>
  </rdf:RDF>
 </metadata>
 <defs>
  <style type="text/css">*{stroke-linecap:butt;stroke-linejoin:round;}</style>
 </defs>
 <g id="figure_1">
  <g id="patch_1">
   <path d="M 0 360 
L 432 360 
L 432 0 
L 0 0 
z
" style="fill:#ffffff;"/>
  </g>
  <g id="axes_1">
   <g id="patch_2">
    <path d="M 46.375 332.12 
L 421.2 332.12 
L 421.2 26.16 
L 46.375 26.16 
z
" style="fill:#ffffff;"/>
   </g>
   <g id="matplotlib.axis_1">
    <g id="xtick_1">
     <g id="line2d_1">
      <defs>
       <path d="M 0 0 
L 0 3.5 
" id="mf74b4d84af" style="stroke:#000000;stroke-width:0.8;"/>
      </defs>
      <g>
       <use style="stroke:#000000;stroke-width:0.8;" x="46.375" xlink:href="#mf74b4d84af" y="332.12"/>
      </g>
     </g>
     <g id="text_1">
      <!-- 0.00 -->
      <g transform="translate(35.242188 346.718437)scale(0.1 -0.1)">
       <defs>
        <path d="M 31.78125 66.40625 
Q 24.171875 66.40625 20.328125 58.90625 
Q 16.5 51.421875 16.5 36.375 
Q 16.5 21.390625 20.328125 13.890625 
Q 24.171875 6.390625 31.78125 6.390625 
Q 39.453125 6.390625 43.28125 13.890625 
Q 47.125 21.390625 47.125 36.375 
Q 47.125 51.421875 43.28125 58.90625 
Q 39.453125 66.40625 31.78125 66.40625 
z
M 31.78125 74.21875 
Q 44.046875 74.21875 50.515625 64.515625 
Q 56.984375 54.828125 56.984375 36.375 
Q 56.984375 17.96875 50.515625 8.265625 
Q 44.046875 -1.421875 31.78125 -1.421875 
Q 19.53125 -1.421875 13.0625 8.265625 
Q 6.59375 17.96875 6.59375 36.375 
Q 6.59375 54.828125 13.0625 64.515625 
Q 19.53125 74.21875 31.78125 74.21875 
z
" id="DejaVuSans-48"/>
        <path d="M 10.6875 12.40625 
L 21 12.40625 
L 21 0 
L 10.6875 0 
z
" id="DejaVuSans-46"/>
       </defs>
       <use xlink:href="#DejaVuSans-48"/>
       <use x="63.623047" xlink:href="#DejaVuSans-46"/>
       <use x="95.410156" xlink:href="#DejaVuSans-48"/>
       <use x="159.033203" xlink:href="#DejaVuSans-48"/>
      </g>
     </g>
    </g>
    <g id="xtick_2">
     <g id="line2d_2">
      <g>
       <use style="stroke:#000000;stroke-width:0.8;" x="102.182278" xlink:href="#mf74b4d84af" y="332.12"/>
      </g>
     </g>
     <g id="text_2">
      <!-- 0.02 -->
      <g transform="translate(91.049465 346.718437)scale(0.1 -0.1)">
       <defs>
        <path d="M 19.1875 8.296875 
L 53.609375 8.296875 
L 53.609375 0 
L 7.328125 0 
L 7.328125 8.296875 
Q 12.9375 14.109375 22.625 23.890625 
Q 32.328125 33.6875 34.8125 36.53125 
Q 39.546875 41.84375 41.421875 45.53125 
Q 43.3125 49.21875 43.3125 52.78125 
Q 43.3125 58.59375 39.234375 62.25 
Q 35.15625 65.921875 28.609375 65.921875 
Q 23.96875 65.921875 18.8125 64.3125 
Q 13.671875 62.703125 7.8125 59.421875 
L 7.8125 69.390625 
Q 13.765625 71.78125 18.9375 73 
Q 24.125 74.21875 28.421875 74.21875 
Q 39.75 74.21875 46.484375 68.546875 
Q 53.21875 62.890625 53.21875 53.421875 
Q 53.21875 48.921875 51.53125 44.890625 
Q 49.859375 40.875 45.40625 35.40625 
Q 44.1875 33.984375 37.640625 27.21875 
Q 31.109375 20.453125 19.1875 8.296875 
z
" id="DejaVuSans-50"/>
       </defs>
       <use xlink:href="#DejaVuSans-48"/>
       <use x="63.623047" xlink:href="#DejaVuSans-46"/>
       <use x="95.410156" xlink:href="#DejaVuSans-48"/>
       <use x="159.033203" xlink:href="#DejaVuSans-50"/>
      </g>
     </g>
    </g>
    <g id="xtick_3">
     <g id="line2d_3">
      <g>
       <use style="stroke:#000000;stroke-width:0.8;" x="157.989556" xlink:href="#mf74b4d84af" y="332.12"/>
      </g>
     </g>
     <g id="text_3">
      <!-- 0.04 -->
      <g transform="translate(146.856743 346.718437)scale(0.1 -0.1)">
       <defs>
        <path d="M 37.796875 64.3125 
L 12.890625 25.390625 
L 37.796875 25.390625 
z
M 35.203125 72.90625 
L 47.609375 72.90625 
L 47.609375 25.390625 
L 58.015625 25.390625 
L 58.015625 17.1875 
L 47.609375 17.1875 
L 47.609375 0 
L 37.796875 0 
L 37.796875 17.1875 
L 4.890625 17.1875 
L 4.890625 26.703125 
z
" id="DejaVuSans-52"/>
       </defs>
       <use xlink:href="#DejaVuSans-48"/>
       <use x="63.623047" xlink:href="#DejaVuSans-46"/>
       <use x="95.410156" xlink:href="#DejaVuSans-48"/>
       <use x="159.033203" xlink:href="#DejaVuSans-52"/>
      </g>
     </g>
    </g>
    <g id="xtick_4">
     <g id="line2d_4">
      <g>
       <use style="stroke:#000000;stroke-width:0.8;" x="213.796833" xlink:href="#mf74b4d84af" y="332.12"/>
      </g>
     </g>
     <g id="text_4">
      <!-- 0.06 -->
      <g transform="translate(202.664021 346.718437)scale(0.1 -0.1)">
       <defs>
        <path d="M 33.015625 40.375 
Q 26.375 40.375 22.484375 35.828125 
Q 18.609375 31.296875 18.609375 23.390625 
Q 18.609375 15.53125 22.484375 10.953125 
Q 26.375 6.390625 33.015625 6.390625 
Q 39.65625 6.390625 43.53125 10.953125 
Q 47.40625 15.53125 47.40625 23.390625 
Q 47.40625 31.296875 43.53125 35.828125 
Q 39.65625 40.375 33.015625 40.375 
z
M 52.59375 71.296875 
L 52.59375 62.3125 
Q 48.875 64.0625 45.09375 64.984375 
Q 41.3125 65.921875 37.59375 65.921875 
Q 27.828125 65.921875 22.671875 59.328125 
Q 17.53125 52.734375 16.796875 39.40625 
Q 19.671875 43.65625 24.015625 45.921875 
Q 28.375 48.1875 33.59375 48.1875 
Q 44.578125 48.1875 50.953125 41.515625 
Q 57.328125 34.859375 57.328125 23.390625 
Q 57.328125 12.15625 50.6875 5.359375 
Q 44.046875 -1.421875 33.015625 -1.421875 
Q 20.359375 -1.421875 13.671875 8.265625 
Q 6.984375 17.96875 6.984375 36.375 
Q 6.984375 53.65625 15.1875 63.9375 
Q 23.390625 74.21875 37.203125 74.21875 
Q 40.921875 74.21875 44.703125 73.484375 
Q 48.484375 72.75 52.59375 71.296875 
z
" id="DejaVuSans-54"/>
       </defs>
       <use xlink:href="#DejaVuSans-48"/>
       <use x="63.623047" xlink:href="#DejaVuSans-46"/>
       <use x="95.410156" xlink:href="#DejaVuSans-48"/>
       <use x="159.033203" xlink:href="#DejaVuSans-54"/>
      </g>
     </g>
    </g>
    <g id="xtick_5">
     <g id="line2d_5">
      <g>
       <use style="stroke:#000000;stroke-width:0.8;" x="269.604111" xlink:href="#mf74b4d84af" y="332.12"/>
      </g>
     </g>
     <g id="text_5">
      <!-- 0.08 -->
      <g transform="translate(258.471299 346.718437)scale(0.1 -0.1)">
       <defs>
        <path d="M 31.78125 34.625 
Q 24.75 34.625 20.71875 30.859375 
Q 16.703125 27.09375 16.703125 20.515625 
Q 16.703125 13.921875 20.71875 10.15625 
Q 24.75 6.390625 31.78125 6.390625 
Q 38.8125 6.390625 42.859375 10.171875 
Q 46.921875 13.96875 46.921875 20.515625 
Q 46.921875 27.09375 42.890625 30.859375 
Q 38.875 34.625 31.78125 34.625 
z
M 21.921875 38.8125 
Q 15.578125 40.375 12.03125 44.71875 
Q 8.5 49.078125 8.5 55.328125 
Q 8.5 64.0625 14.71875 69.140625 
Q 20.953125 74.21875 31.78125 74.21875 
Q 42.671875 74.21875 48.875 69.140625 
Q 55.078125 64.0625 55.078125 55.328125 
Q 55.078125 49.078125 51.53125 44.71875 
Q 48 40.375 41.703125 38.8125 
Q 48.828125 37.15625 52.796875 32.3125 
Q 56.78125 27.484375 56.78125 20.515625 
Q 56.78125 9.90625 50.3125 4.234375 
Q 43.84375 -1.421875 31.78125 -1.421875 
Q 19.734375 -1.421875 13.25 4.234375 
Q 6.78125 9.90625 6.78125 20.515625 
Q 6.78125 27.484375 10.78125 32.3125 
Q 14.796875 37.15625 21.921875 38.8125 
z
M 18.3125 54.390625 
Q 18.3125 48.734375 21.84375 45.5625 
Q 25.390625 42.390625 31.78125 42.390625 
Q 38.140625 42.390625 41.71875 45.5625 
Q 45.3125 48.734375 45.3125 54.390625 
Q 45.3125 60.0625 41.71875 63.234375 
Q 38.140625 66.40625 31.78125 66.40625 
Q 25.390625 66.40625 21.84375 63.234375 
Q 18.3125 60.0625 18.3125 54.390625 
z
" id="DejaVuSans-56"/>
       </defs>
       <use xlink:href="#DejaVuSans-48"/>
       <use x="63.623047" xlink:href="#DejaVuSans-46"/>
       <use x="95.410156" xlink:href="#DejaVuSans-48"/>
       <use x="159.033203" xlink:href="#DejaVuSans-56"/>
      </g>
     </g>
    </g>
    <g id="xtick_6">
     <g id="line2d_6">
      <g>
       <use style="stroke:#000000;stroke-width:0.8;" x="325.411389" xlink:href="#mf74b4d84af" y="332.12"/>
      </g>
     </g>
     <g id="text_6">
      <!-- 0.10 -->
      <g transform="translate(314.278576 346.718437)scale(0.1 -0.1)">
       <defs>
        <path d="M 12.40625 8.296875 
L 28.515625 8.296875 
L 28.515625 63.921875 
L 10.984375 60.40625 
L 10.984375 69.390625 
L 28.421875 72.90625 
L 38.28125 72.90625 
L 38.28125 8.296875 
L 54.390625 8.296875 
L 54.390625 0 
L 12.40625 0 
z
" id="DejaVuSans-49"/>
       </defs>
       <use xlink:href="#DejaVuSans-48"/>
       <use x="63.623047" xlink:href="#DejaVuSans-46"/>
       <use x="95.410156" xlink:href="#DejaVuSans-49"/>
       <use x="159.033203" xlink:href="#DejaVuSans-48"/>
      </g>
     </g>
    </g>
    <g id="xtick_7">
     <g id="line2d_7">
      <g>
       <use style="stroke:#000000;stroke-width:0.8;" x="381.218667" xlink:href="#mf74b4d84af" y="332.12"/>
      </g>
     </g>
     <g id="text_7">
      <!-- 0.12 -->
      <g transform="translate(370.085854 346.718437)scale(0.1 -0.1)">
       <use xlink:href="#DejaVuSans-48"/>
       <use x="63.623047" xlink:href="#DejaVuSans-46"/>
       <use x="95.410156" xlink:href="#DejaVuSans-49"/>
       <use x="159.033203" xlink:href="#DejaVuSans-50"/>
      </g>
     </g>
    </g>
   </g>
   <g id="matplotlib.axis_2">
    <g id="ytick_1">
     <g id="line2d_8">
      <defs>
       <path d="M 0 0 
L -3.5 0 
" id="m931475b8a1" style="stroke:#000000;stroke-width:0.8;"/>
      </defs>
      <g>
       <use style="stroke:#000000;stroke-width:0.8;" x="46.375" xlink:href="#m931475b8a1" y="317.02873"/>
      </g>
     </g>
     <g id="text_8">
      <!-- 0.825 -->
      <g transform="translate(10.746875 320.827948)scale(0.1 -0.1)">
       <defs>
        <path d="M 10.796875 72.90625 
L 49.515625 72.90625 
L 49.515625 64.59375 
L 19.828125 64.59375 
L 19.828125 46.734375 
Q 21.96875 47.46875 24.109375 47.828125 
Q 26.265625 48.1875 28.421875 48.1875 
Q 40.625 48.1875 47.75 41.5 
Q 54.890625 34.8125 54.890625 23.390625 
Q 54.890625 11.625 47.5625 5.09375 
Q 40.234375 -1.421875 26.90625 -1.421875 
Q 22.3125 -1.421875 17.546875 -0.640625 
Q 12.796875 0.140625 7.71875 1.703125 
L 7.71875 11.625 
Q 12.109375 9.234375 16.796875 8.0625 
Q 21.484375 6.890625 26.703125 6.890625 
Q 35.15625 6.890625 40.078125 11.328125 
Q 45.015625 15.765625 45.015625 23.390625 
Q 45.015625 31 40.078125 35.4375 
Q 35.15625 39.890625 26.703125 39.890625 
Q 22.75 39.890625 18.8125 39.015625 
Q 14.890625 38.140625 10.796875 36.28125 
z
" id="DejaVuSans-53"/>
       </defs>
       <use xlink:href="#DejaVuSans-48"/>
       <use x="63.623047" xlink:href="#DejaVuSans-46"/>
       <use x="95.410156" xlink:href="#DejaVuSans-56"/>
       <use x="159.033203" xlink:href="#DejaVuSans-50"/>
       <use x="222.65625" xlink:href="#DejaVuSans-53"/>
      </g>
     </g>
    </g>
    <g id="ytick_2">
     <g id="line2d_9">
      <g>
       <use style="stroke:#000000;stroke-width:0.8;" x="46.375" xlink:href="#m931475b8a1" y="275.476054"/>
      </g>
     </g>
     <g id="text_9">
      <!-- 0.850 -->
      <g transform="translate(10.746875 279.275273)scale(0.1 -0.1)">
       <use xlink:href="#DejaVuSans-48"/>
       <use x="63.623047" xlink:href="#DejaVuSans-46"/>
       <use x="95.410156" xlink:href="#DejaVuSans-56"/>
       <use x="159.033203" xlink:href="#DejaVuSans-53"/>
       <use x="222.65625" xlink:href="#DejaVuSans-48"/>
      </g>
     </g>
    </g>
    <g id="ytick_3">
     <g id="line2d_10">
      <g>
       <use style="stroke:#000000;stroke-width:0.8;" x="46.375" xlink:href="#m931475b8a1" y="233.923378"/>
      </g>
     </g>
     <g id="text_10">
      <!-- 0.875 -->
      <g transform="translate(10.746875 237.722597)scale(0.1 -0.1)">
       <defs>
        <path d="M 8.203125 72.90625 
L 55.078125 72.90625 
L 55.078125 68.703125 
L 28.609375 0 
L 18.3125 0 
L 43.21875 64.59375 
L 8.203125 64.59375 
z
" id="DejaVuSans-55"/>
       </defs>
       <use xlink:href="#DejaVuSans-48"/>
       <use x="63.623047" xlink:href="#DejaVuSans-46"/>
       <use x="95.410156" xlink:href="#DejaVuSans-56"/>
       <use x="159.033203" xlink:href="#DejaVuSans-55"/>
       <use x="222.65625" xlink:href="#DejaVuSans-53"/>
      </g>
     </g>
    </g>
    <g id="ytick_4">
     <g id="line2d_11">
      <g>
       <use style="stroke:#000000;stroke-width:0.8;" x="46.375" xlink:href="#m931475b8a1" y="192.370703"/>
      </g>
     </g>
     <g id="text_11">
      <!-- 0.900 -->
      <g transform="translate(10.746875 196.169921)scale(0.1 -0.1)">
       <defs>
        <path d="M 10.984375 1.515625 
L 10.984375 10.5 
Q 14.703125 8.734375 18.5 7.8125 
Q 22.3125 6.890625 25.984375 6.890625 
Q 35.75 6.890625 40.890625 13.453125 
Q 46.046875 20.015625 46.78125 33.40625 
Q 43.953125 29.203125 39.59375 26.953125 
Q 35.25 24.703125 29.984375 24.703125 
Q 19.046875 24.703125 12.671875 31.3125 
Q 6.296875 37.9375 6.296875 49.421875 
Q 6.296875 60.640625 12.9375 67.421875 
Q 19.578125 74.21875 30.609375 74.21875 
Q 43.265625 74.21875 49.921875 64.515625 
Q 56.59375 54.828125 56.59375 36.375 
Q 56.59375 19.140625 48.40625 8.859375 
Q 40.234375 -1.421875 26.421875 -1.421875 
Q 22.703125 -1.421875 18.890625 -0.6875 
Q 15.09375 0.046875 10.984375 1.515625 
z
M 30.609375 32.421875 
Q 37.25 32.421875 41.125 36.953125 
Q 45.015625 41.5 45.015625 49.421875 
Q 45.015625 57.28125 41.125 61.84375 
Q 37.25 66.40625 30.609375 66.40625 
Q 23.96875 66.40625 20.09375 61.84375 
Q 16.21875 57.28125 16.21875 49.421875 
Q 16.21875 41.5 20.09375 36.953125 
Q 23.96875 32.421875 30.609375 32.421875 
z
" id="DejaVuSans-57"/>
       </defs>
       <use xlink:href="#DejaVuSans-48"/>
       <use x="63.623047" xlink:href="#DejaVuSans-46"/>
       <use x="95.410156" xlink:href="#DejaVuSans-57"/>
       <use x="159.033203" xlink:href="#DejaVuSans-48"/>
       <use x="222.65625" xlink:href="#DejaVuSans-48"/>
      </g>
     </g>
    </g>
    <g id="ytick_5">
     <g id="line2d_12">
      <g>
       <use style="stroke:#000000;stroke-width:0.8;" x="46.375" xlink:href="#m931475b8a1" y="150.818027"/>
      </g>
     </g>
     <g id="text_12">
      <!-- 0.925 -->
      <g transform="translate(10.746875 154.617246)scale(0.1 -0.1)">
       <use xlink:href="#DejaVuSans-48"/>
       <use x="63.623047" xlink:href="#DejaVuSans-46"/>
       <use x="95.410156" xlink:href="#DejaVuSans-57"/>
       <use x="159.033203" xlink:href="#DejaVuSans-50"/>
       <use x="222.65625" xlink:href="#DejaVuSans-53"/>
      </g>
     </g>
    </g>
    <g id="ytick_6">
     <g id="line2d_13">
      <g>
       <use style="stroke:#000000;stroke-width:0.8;" x="46.375" xlink:href="#m931475b8a1" y="109.265351"/>
      </g>
     </g>
     <g id="text_13">
      <!-- 0.950 -->
      <g transform="translate(10.746875 113.06457)scale(0.1 -0.1)">
       <use xlink:href="#DejaVuSans-48"/>
       <use x="63.623047" xlink:href="#DejaVuSans-46"/>
       <use x="95.410156" xlink:href="#DejaVuSans-57"/>
       <use x="159.033203" xlink:href="#DejaVuSans-53"/>
       <use x="222.65625" xlink:href="#DejaVuSans-48"/>
      </g>
     </g>
    </g>
    <g id="ytick_7">
     <g id="line2d_14">
      <g>
       <use style="stroke:#000000;stroke-width:0.8;" x="46.375" xlink:href="#m931475b8a1" y="67.712676"/>
      </g>
     </g>
     <g id="text_14">
      <!-- 0.975 -->
      <g transform="translate(10.746875 71.511894)scale(0.1 -0.1)">
       <use xlink:href="#DejaVuSans-48"/>
       <use x="63.623047" xlink:href="#DejaVuSans-46"/>
       <use x="95.410156" xlink:href="#DejaVuSans-57"/>
       <use x="159.033203" xlink:href="#DejaVuSans-55"/>
       <use x="222.65625" xlink:href="#DejaVuSans-53"/>
      </g>
     </g>
    </g>
    <g id="ytick_8">
     <g id="line2d_15">
      <g>
       <use style="stroke:#000000;stroke-width:0.8;" x="46.375" xlink:href="#m931475b8a1" y="26.16"/>
      </g>
     </g>
     <g id="text_15">
      <!-- 1.000 -->
      <g transform="translate(10.746875 29.959219)scale(0.1 -0.1)">
       <use xlink:href="#DejaVuSans-49"/>
       <use x="63.623047" xlink:href="#DejaVuSans-46"/>
       <use x="95.410156" xlink:href="#DejaVuSans-48"/>
       <use x="159.033203" xlink:href="#DejaVuSans-48"/>
       <use x="222.65625" xlink:href="#DejaVuSans-48"/>
      </g>
     </g>
    </g>
   </g>
   <g id="LineCollection_1">
    <path clip-path="url(#pffdd6f2e12)" d="M 46.375 26.16 
L 46.375 26.16 
" style="fill:none;stroke:#90ee90;stroke-width:2;"/>
    <path clip-path="url(#pffdd6f2e12)" d="M 60.257407 35.750622 
L 60.257407 33.435249 
" style="fill:none;stroke:#90ee90;stroke-width:2;"/>
    <path clip-path="url(#pffdd6f2e12)" d="M 74.139815 45.256143 
L 74.139815 40.959346 
" style="fill:none;stroke:#90ee90;stroke-width:2;"/>
    <path clip-path="url(#pffdd6f2e12)" d="M 88.022222 53.525332 
L 88.022222 49.228535 
" style="fill:none;stroke:#90ee90;stroke-width:2;"/>
    <path clip-path="url(#pffdd6f2e12)" d="M 101.90463 61.794521 
L 101.90463 57.497724 
" style="fill:none;stroke:#90ee90;stroke-width:2;"/>
    <path clip-path="url(#pffdd6f2e12)" d="M 115.787037 72.586473 
L 115.787037 64.390375 
" style="fill:none;stroke:#90ee90;stroke-width:2;"/>
    <path clip-path="url(#pffdd6f2e12)" d="M 129.669444 81.300127 
L 129.669444 72.542591 
" style="fill:none;stroke:#90ee90;stroke-width:2;"/>
    <path clip-path="url(#pffdd6f2e12)" d="M 143.551852 89.70628 
L 143.551852 80.838563 
" style="fill:none;stroke:#90ee90;stroke-width:2;"/>
    <path clip-path="url(#pffdd6f2e12)" d="M 157.434259 98.502064 
L 157.434259 89.236143 
" style="fill:none;stroke:#90ee90;stroke-width:2;"/>
    <path clip-path="url(#pffdd6f2e12)" d="M 171.316667 109.90462 
L 171.316667 96.009429 
" style="fill:none;stroke:#90ee90;stroke-width:2;"/>
    <path clip-path="url(#pffdd6f2e12)" d="M 185.199074 118.962563 
L 185.199074 104.636088 
" style="fill:none;stroke:#90ee90;stroke-width:2;"/>
    <path clip-path="url(#pffdd6f2e12)" d="M 199.081481 127.420275 
L 199.081481 113.044247 
" style="fill:none;stroke:#90ee90;stroke-width:2;"/>
    <path clip-path="url(#pffdd6f2e12)" d="M 212.963889 135.874109 
L 212.963889 121.456285 
" style="fill:none;stroke:#90ee90;stroke-width:2;"/>
    <path clip-path="url(#pffdd6f2e12)" d="M 226.846296 144.687592 
L 226.846296 129.836165 
" style="fill:none;stroke:#90ee90;stroke-width:2;"/>
    <path clip-path="url(#pffdd6f2e12)" d="M 240.728704 153.490402 
L 240.728704 137.73548 
" style="fill:none;stroke:#90ee90;stroke-width:2;"/>
    <path clip-path="url(#pffdd6f2e12)" d="M 254.611111 162.183711 
L 254.611111 146.235534 
" style="fill:none;stroke:#90ee90;stroke-width:2;"/>
    <path clip-path="url(#pffdd6f2e12)" d="M 268.493519 171.823575 
L 268.493519 154.607766 
" style="fill:none;stroke:#90ee90;stroke-width:2;"/>
    <path clip-path="url(#pffdd6f2e12)" d="M 282.375926 180.167882 
L 282.375926 162.965583 
" style="fill:none;stroke:#90ee90;stroke-width:2;"/>
    <path clip-path="url(#pffdd6f2e12)" d="M 296.258333 191.992213 
L 296.258333 169.644586 
" style="fill:none;stroke:#90ee90;stroke-width:2;"/>
    <path clip-path="url(#pffdd6f2e12)" d="M 310.140741 200.526893 
L 310.140741 178.139524 
" style="fill:none;stroke:#90ee90;stroke-width:2;"/>
    <path clip-path="url(#pffdd6f2e12)" d="M 324.023148 208.796082 
L 324.023148 186.408713 
" style="fill:none;stroke:#90ee90;stroke-width:2;"/>
    <path clip-path="url(#pffdd6f2e12)" d="M 337.905556 218.115552 
L 337.905556 194.6101 
" style="fill:none;stroke:#90ee90;stroke-width:2;"/>
    <path clip-path="url(#pffdd6f2e12)" d="M 351.787963 226.992925 
L 351.787963 203.253582 
" style="fill:none;stroke:#90ee90;stroke-width:2;"/>
    <path clip-path="url(#pffdd6f2e12)" d="M 365.67037 235.728907 
L 365.67037 211.547219 
" style="fill:none;stroke:#90ee90;stroke-width:2;"/>
    <path clip-path="url(#pffdd6f2e12)" d="M 379.552778 247.540272 
L 379.552778 219.876651 
" style="fill:none;stroke:#90ee90;stroke-width:2;"/>
    <path clip-path="url(#pffdd6f2e12)" d="M 393.435185 256.110585 
L 393.435185 228.335955 
" style="fill:none;stroke:#90ee90;stroke-width:2;"/>
    <path clip-path="url(#pffdd6f2e12)" d="M 407.317593 264.479362 
L 407.317593 236.833049 
" style="fill:none;stroke:#90ee90;stroke-width:2;"/>
    <path clip-path="url(#pffdd6f2e12)" d="M 421.2 274.887832 
L 421.2 245.091659 
" style="fill:none;stroke:#90ee90;stroke-width:2;"/>
   </g>
   <g id="LineCollection_2">
    <path clip-path="url(#pffdd6f2e12)" d="M 46.375 26.16 
L 46.375 26.16 
" style="fill:none;stroke:#87ceeb;stroke-width:2;"/>
    <path clip-path="url(#pffdd6f2e12)" d="M 60.257407 34.429189 
L 60.257407 34.429189 
" style="fill:none;stroke:#87ceeb;stroke-width:2;"/>
    <path clip-path="url(#pffdd6f2e12)" d="M 74.139815 42.698378 
L 74.139815 42.698378 
" style="fill:none;stroke:#87ceeb;stroke-width:2;"/>
    <path clip-path="url(#pffdd6f2e12)" d="M 88.022222 50.967568 
L 88.022222 50.967568 
" style="fill:none;stroke:#87ceeb;stroke-width:2;"/>
    <path clip-path="url(#pffdd6f2e12)" d="M 101.90463 59.236757 
L 101.90463 59.236757 
" style="fill:none;stroke:#87ceeb;stroke-width:2;"/>
    <path clip-path="url(#pffdd6f2e12)" d="M 115.787037 67.505946 
L 115.787037 67.505946 
" style="fill:none;stroke:#87ceeb;stroke-width:2;"/>
    <path clip-path="url(#pffdd6f2e12)" d="M 129.669444 75.775135 
L 129.669444 75.775135 
" style="fill:none;stroke:#87ceeb;stroke-width:2;"/>
    <path clip-path="url(#pffdd6f2e12)" d="M 143.551852 84.044324 
L 143.551852 84.044324 
" style="fill:none;stroke:#87ceeb;stroke-width:2;"/>
    <path clip-path="url(#pffdd6f2e12)" d="M 157.434259 131.367879 
L 157.434259 98.616879 
" style="fill:none;stroke:#87ceeb;stroke-width:2;"/>
    <path clip-path="url(#pffdd6f2e12)" d="M 171.316667 150.197838 
L 171.316667 150.197838 
" style="fill:none;stroke:#87ceeb;stroke-width:2;"/>
    <path clip-path="url(#pffdd6f2e12)" d="M 185.199074 158.467027 
L 185.199074 158.467027 
" style="fill:none;stroke:#87ceeb;stroke-width:2;"/>
    <path clip-path="url(#pffdd6f2e12)" d="M 199.081481 166.736216 
L 199.081481 166.736216 
" style="fill:none;stroke:#87ceeb;stroke-width:2;"/>
    <path clip-path="url(#pffdd6f2e12)" d="M 212.963889 175.005405 
L 212.963889 175.005405 
" style="fill:none;stroke:#87ceeb;stroke-width:2;"/>
    <path clip-path="url(#pffdd6f2e12)" d="M 226.846296 183.274595 
L 226.846296 183.274595 
" style="fill:none;stroke:#87ceeb;stroke-width:2;"/>
    <path clip-path="url(#pffdd6f2e12)" d="M 240.728704 191.543784 
L 240.728704 191.543784 
" style="fill:none;stroke:#87ceeb;stroke-width:2;"/>
    <path clip-path="url(#pffdd6f2e12)" d="M 254.611111 199.812973 
L 254.611111 199.812973 
" style="fill:none;stroke:#87ceeb;stroke-width:2;"/>
    <path clip-path="url(#pffdd6f2e12)" d="M 268.493519 208.082162 
L 268.493519 208.082162 
" style="fill:none;stroke:#87ceeb;stroke-width:2;"/>
    <path clip-path="url(#pffdd6f2e12)" d="M 282.375926 216.351351 
L 282.375926 216.351351 
" style="fill:none;stroke:#87ceeb;stroke-width:2;"/>
    <path clip-path="url(#pffdd6f2e12)" d="M 296.258333 224.620541 
L 296.258333 224.620541 
" style="fill:none;stroke:#87ceeb;stroke-width:2;"/>
    <path clip-path="url(#pffdd6f2e12)" d="M 310.140741 232.88973 
L 310.140741 232.88973 
" style="fill:none;stroke:#87ceeb;stroke-width:2;"/>
    <path clip-path="url(#pffdd6f2e12)" d="M 324.023148 241.158919 
L 324.023148 241.158919 
" style="fill:none;stroke:#87ceeb;stroke-width:2;"/>
    <path clip-path="url(#pffdd6f2e12)" d="M 337.905556 249.428108 
L 337.905556 249.428108 
" style="fill:none;stroke:#87ceeb;stroke-width:2;"/>
    <path clip-path="url(#pffdd6f2e12)" d="M 351.787963 257.697297 
L 351.787963 257.697297 
" style="fill:none;stroke:#87ceeb;stroke-width:2;"/>
    <path clip-path="url(#pffdd6f2e12)" d="M 365.67037 265.966486 
L 365.67037 265.966486 
" style="fill:none;stroke:#87ceeb;stroke-width:2;"/>
    <path clip-path="url(#pffdd6f2e12)" d="M 379.552778 274.235676 
L 379.552778 274.235676 
" style="fill:none;stroke:#87ceeb;stroke-width:2;"/>
    <path clip-path="url(#pffdd6f2e12)" d="M 393.435185 282.504865 
L 393.435185 282.504865 
" style="fill:none;stroke:#87ceeb;stroke-width:2;"/>
    <path clip-path="url(#pffdd6f2e12)" d="M 407.317593 290.774054 
L 407.317593 290.774054 
" style="fill:none;stroke:#87ceeb;stroke-width:2;"/>
    <path clip-path="url(#pffdd6f2e12)" d="M 421.2 299.043243 
L 421.2 299.043243 
" style="fill:none;stroke:#87ceeb;stroke-width:2;"/>
   </g>
   <g id="LineCollection_3">
    <path clip-path="url(#pffdd6f2e12)" d="M 46.375 26.16 
L 46.375 26.16 
" style="fill:none;stroke:#f08080;"/>
    <path clip-path="url(#pffdd6f2e12)" d="M 60.257407 47.71556 
L 60.257407 27.856417 
" style="fill:none;stroke:#f08080;"/>
    <path clip-path="url(#pffdd6f2e12)" d="M 74.139815 63.364261 
L 74.139815 35.950933 
" style="fill:none;stroke:#f08080;"/>
    <path clip-path="url(#pffdd6f2e12)" d="M 88.022222 78.677131 
L 88.022222 45.036265 
" style="fill:none;stroke:#f08080;"/>
    <path clip-path="url(#pffdd6f2e12)" d="M 101.90463 91.146905 
L 101.90463 55.163483 
" style="fill:none;stroke:#f08080;"/>
    <path clip-path="url(#pffdd6f2e12)" d="M 115.787037 101.786097 
L 115.787037 64.828834 
" style="fill:none;stroke:#f08080;"/>
    <path clip-path="url(#pffdd6f2e12)" d="M 129.669444 115.214319 
L 129.669444 75.798814 
" style="fill:none;stroke:#f08080;"/>
    <path clip-path="url(#pffdd6f2e12)" d="M 143.551852 126.268166 
L 143.551852 85.540751 
" style="fill:none;stroke:#f08080;"/>
    <path clip-path="url(#pffdd6f2e12)" d="M 157.434259 137.363343 
L 157.434259 95.732595 
" style="fill:none;stroke:#f08080;"/>
    <path clip-path="url(#pffdd6f2e12)" d="M 171.316667 149.589716 
L 171.316667 106.103214 
" style="fill:none;stroke:#f08080;"/>
    <path clip-path="url(#pffdd6f2e12)" d="M 185.199074 159.970546 
L 185.199074 116.190675 
" style="fill:none;stroke:#f08080;"/>
    <path clip-path="url(#pffdd6f2e12)" d="M 199.081481 171.253988 
L 199.081481 128.322957 
" style="fill:none;stroke:#f08080;"/>
    <path clip-path="url(#pffdd6f2e12)" d="M 212.963889 180.620574 
L 212.963889 138.114689 
" style="fill:none;stroke:#f08080;"/>
    <path clip-path="url(#pffdd6f2e12)" d="M 226.846296 193.321079 
L 226.846296 150.958611 
" style="fill:none;stroke:#f08080;"/>
    <path clip-path="url(#pffdd6f2e12)" d="M 240.728704 204.013921 
L 240.728704 161.061552 
" style="fill:none;stroke:#f08080;"/>
    <path clip-path="url(#pffdd6f2e12)" d="M 254.611111 214.235787 
L 254.611111 172.4542 
" style="fill:none;stroke:#f08080;"/>
    <path clip-path="url(#pffdd6f2e12)" d="M 268.493519 225.210065 
L 268.493519 184.731899 
" style="fill:none;stroke:#f08080;"/>
    <path clip-path="url(#pffdd6f2e12)" d="M 282.375926 235.27456 
L 282.375926 196.773158 
" style="fill:none;stroke:#f08080;"/>
    <path clip-path="url(#pffdd6f2e12)" d="M 296.258333 247.226427 
L 296.258333 206.927044 
" style="fill:none;stroke:#f08080;"/>
    <path clip-path="url(#pffdd6f2e12)" d="M 310.140741 257.881717 
L 310.140741 220.01497 
" style="fill:none;stroke:#f08080;"/>
    <path clip-path="url(#pffdd6f2e12)" d="M 324.023148 268.817938 
L 324.023148 232.658219 
" style="fill:none;stroke:#f08080;"/>
    <path clip-path="url(#pffdd6f2e12)" d="M 337.905556 279.326443 
L 337.905556 243.600483 
" style="fill:none;stroke:#f08080;"/>
    <path clip-path="url(#pffdd6f2e12)" d="M 351.787963 290.097584 
L 351.787963 259.028753 
" style="fill:none;stroke:#f08080;"/>
    <path clip-path="url(#pffdd6f2e12)" d="M 365.67037 298.045554 
L 365.67037 274.496506 
" style="fill:none;stroke:#f08080;"/>
    <path clip-path="url(#pffdd6f2e12)" d="M 379.552778 307.369368 
L 379.552778 287.933431 
" style="fill:none;stroke:#f08080;"/>
    <path clip-path="url(#pffdd6f2e12)" d="M 393.435185 317.29338 
L 393.435185 299.78768 
" style="fill:none;stroke:#f08080;"/>
    <path clip-path="url(#pffdd6f2e12)" d="M 407.317593 326.664989 
L 407.317593 313.340556 
" style="fill:none;stroke:#f08080;"/>
    <path clip-path="url(#pffdd6f2e12)" d="M 421.2 332.12 
L 421.2 332.12 
" style="fill:none;stroke:#f08080;"/>
   </g>
   <g id="line2d_16">
    <path clip-path="url(#pffdd6f2e12)" d="M 46.375 26.16 
L 421.2 249.428108 
" style="fill:none;stroke:#000000;stroke-dasharray:3.7,1.6;stroke-dashoffset:0;"/>
   </g>
   <g id="line2d_17">
    <path clip-path="url(#pffdd6f2e12)" d="M 46.375 26.16 
L 60.257407 34.592936 
L 74.139815 43.107744 
L 88.022222 51.376933 
L 101.90463 59.646123 
L 115.787037 68.488424 
L 129.669444 76.921359 
L 143.551852 85.272422 
L 157.434259 93.869104 
L 171.316667 102.957024 
L 185.199074 111.799326 
L 199.081481 120.232261 
L 212.963889 128.665197 
L 226.846296 137.261879 
L 240.728704 145.612941 
L 254.611111 154.209623 
L 268.493519 163.21567 
L 282.375926 171.566733 
L 296.258333 180.8184 
L 310.140741 189.333208 
L 324.023148 197.602398 
L 337.905556 206.362826 
L 351.787963 215.123254 
L 365.67037 223.638063 
L 379.552778 233.708461 
L 393.435185 242.22327 
L 407.317593 250.656206 
L 421.2 259.989746 
" style="fill:none;stroke:#32cd32;stroke-linecap:square;stroke-width:2;"/>
   </g>
   <g id="line2d_18">
    <path clip-path="url(#pffdd6f2e12)" d="M 46.375 26.16 
L 60.257407 34.429189 
L 74.139815 42.698378 
L 88.022222 50.967568 
L 101.90463 59.236757 
L 115.787037 67.505946 
L 129.669444 75.775135 
L 143.551852 84.044324 
L 157.434259 114.992379 
L 171.316667 150.197838 
L 185.199074 158.467027 
L 199.081481 166.736216 
L 212.963889 175.005405 
L 226.846296 183.274595 
L 240.728704 191.543784 
L 254.611111 199.812973 
L 268.493519 208.082162 
L 282.375926 216.351351 
L 296.258333 224.620541 
L 310.140741 232.88973 
L 324.023148 241.158919 
L 337.905556 249.428108 
L 351.787963 257.697297 
L 365.67037 265.966486 
L 379.552778 274.235676 
L 393.435185 282.504865 
L 407.317593 290.774054 
L 421.2 299.043243 
" style="fill:none;stroke:#0000ff;stroke-linecap:square;stroke-width:2;"/>
   </g>
   <g id="line2d_19">
    <path clip-path="url(#pffdd6f2e12)" d="M 46.375 26.16 
L 60.257407 37.785989 
L 74.139815 49.657597 
L 88.022222 61.856698 
L 101.90463 73.155194 
L 115.787037 83.307466 
L 129.669444 95.506567 
L 143.551852 105.904458 
L 157.434259 116.547969 
L 171.316667 127.846465 
L 185.199074 138.08061 
L 199.081481 149.788472 
L 212.963889 159.367632 
L 226.846296 172.139845 
L 240.728704 182.537736 
L 254.611111 193.344993 
L 268.493519 204.970982 
L 282.375926 216.023859 
L 296.258333 227.076735 
L 310.140741 238.948344 
L 324.023148 250.738079 
L 337.905556 261.463463 
L 351.787963 274.563168 
L 365.67037 286.27103 
L 379.552778 297.6514 
L 393.435185 308.54053 
L 407.317593 320.002772 
L 421.2 332.12 
" style="fill:none;stroke:#ff0000;stroke-linecap:square;stroke-width:2;"/>
   </g>
   <g id="patch_3">
    <path d="M 46.375 332.12 
L 46.375 26.16 
" style="fill:none;stroke:#000000;stroke-linecap:square;stroke-linejoin:miter;stroke-width:0.8;"/>
   </g>
   <g id="patch_4">
    <path d="M 421.2 332.12 
L 421.2 26.16 
" style="fill:none;stroke:#000000;stroke-linecap:square;stroke-linejoin:miter;stroke-width:0.8;"/>
   </g>
   <g id="patch_5">
    <path d="M 46.375 332.12 
L 421.2 332.12 
" style="fill:none;stroke:#000000;stroke-linecap:square;stroke-linejoin:miter;stroke-width:0.8;"/>
   </g>
   <g id="patch_6">
    <path d="M 46.375 26.16 
L 421.2 26.16 
" style="fill:none;stroke:#000000;stroke-linecap:square;stroke-linejoin:miter;stroke-width:0.8;"/>
   </g>
   <g id="text_16">
    <!-- Programmed Cell Death -->
    <g transform="translate(161.957188 20.16)scale(0.12 -0.12)">
     <defs>
      <path d="M 19.671875 64.796875 
L 19.671875 37.40625 
L 32.078125 37.40625 
Q 38.96875 37.40625 42.71875 40.96875 
Q 46.484375 44.53125 46.484375 51.125 
Q 46.484375 57.671875 42.71875 61.234375 
Q 38.96875 64.796875 32.078125 64.796875 
z
M 9.8125 72.90625 
L 32.078125 72.90625 
Q 44.34375 72.90625 50.609375 67.359375 
Q 56.890625 61.8125 56.890625 51.125 
Q 56.890625 40.328125 50.609375 34.8125 
Q 44.34375 29.296875 32.078125 29.296875 
L 19.671875 29.296875 
L 19.671875 0 
L 9.8125 0 
z
" id="DejaVuSans-80"/>
      <path d="M 41.109375 46.296875 
Q 39.59375 47.171875 37.8125 47.578125 
Q 36.03125 48 33.890625 48 
Q 26.265625 48 22.1875 43.046875 
Q 18.109375 38.09375 18.109375 28.8125 
L 18.109375 0 
L 9.078125 0 
L 9.078125 54.6875 
L 18.109375 54.6875 
L 18.109375 46.1875 
Q 20.953125 51.171875 25.484375 53.578125 
Q 30.03125 56 36.53125 56 
Q 37.453125 56 38.578125 55.875 
Q 39.703125 55.765625 41.0625 55.515625 
z
" id="DejaVuSans-114"/>
      <path d="M 30.609375 48.390625 
Q 23.390625 48.390625 19.1875 42.75 
Q 14.984375 37.109375 14.984375 27.296875 
Q 14.984375 17.484375 19.15625 11.84375 
Q 23.34375 6.203125 30.609375 6.203125 
Q 37.796875 6.203125 41.984375 11.859375 
Q 46.1875 17.53125 46.1875 27.296875 
Q 46.1875 37.015625 41.984375 42.703125 
Q 37.796875 48.390625 30.609375 48.390625 
z
M 30.609375 56 
Q 42.328125 56 49.015625 48.375 
Q 55.71875 40.765625 55.71875 27.296875 
Q 55.71875 13.875 49.015625 6.21875 
Q 42.328125 -1.421875 30.609375 -1.421875 
Q 18.84375 -1.421875 12.171875 6.21875 
Q 5.515625 13.875 5.515625 27.296875 
Q 5.515625 40.765625 12.171875 48.375 
Q 18.84375 56 30.609375 56 
z
" id="DejaVuSans-111"/>
      <path d="M 45.40625 27.984375 
Q 45.40625 37.75 41.375 43.109375 
Q 37.359375 48.484375 30.078125 48.484375 
Q 22.859375 48.484375 18.828125 43.109375 
Q 14.796875 37.75 14.796875 27.984375 
Q 14.796875 18.265625 18.828125 12.890625 
Q 22.859375 7.515625 30.078125 7.515625 
Q 37.359375 7.515625 41.375 12.890625 
Q 45.40625 18.265625 45.40625 27.984375 
z
M 54.390625 6.78125 
Q 54.390625 -7.171875 48.1875 -13.984375 
Q 42 -20.796875 29.203125 -20.796875 
Q 24.46875 -20.796875 20.265625 -20.09375 
Q 16.0625 -19.390625 12.109375 -17.921875 
L 12.109375 -9.1875 
Q 16.0625 -11.328125 19.921875 -12.34375 
Q 23.78125 -13.375 27.78125 -13.375 
Q 36.625 -13.375 41.015625 -8.765625 
Q 45.40625 -4.15625 45.40625 5.171875 
L 45.40625 9.625 
Q 42.625 4.78125 38.28125 2.390625 
Q 33.9375 0 27.875 0 
Q 17.828125 0 11.671875 7.65625 
Q 5.515625 15.328125 5.515625 27.984375 
Q 5.515625 40.671875 11.671875 48.328125 
Q 17.828125 56 27.875 56 
Q 33.9375 56 38.28125 53.609375 
Q 42.625 51.21875 45.40625 46.390625 
L 45.40625 54.6875 
L 54.390625 54.6875 
z
" id="DejaVuSans-103"/>
      <path d="M 34.28125 27.484375 
Q 23.390625 27.484375 19.1875 25 
Q 14.984375 22.515625 14.984375 16.5 
Q 14.984375 11.71875 18.140625 8.90625 
Q 21.296875 6.109375 26.703125 6.109375 
Q 34.1875 6.109375 38.703125 11.40625 
Q 43.21875 16.703125 43.21875 25.484375 
L 43.21875 27.484375 
z
M 52.203125 31.203125 
L 52.203125 0 
L 43.21875 0 
L 43.21875 8.296875 
Q 40.140625 3.328125 35.546875 0.953125 
Q 30.953125 -1.421875 24.3125 -1.421875 
Q 15.921875 -1.421875 10.953125 3.296875 
Q 6 8.015625 6 15.921875 
Q 6 25.140625 12.171875 29.828125 
Q 18.359375 34.515625 30.609375 34.515625 
L 43.21875 34.515625 
L 43.21875 35.40625 
Q 43.21875 41.609375 39.140625 45 
Q 35.0625 48.390625 27.6875 48.390625 
Q 23 48.390625 18.546875 47.265625 
Q 14.109375 46.140625 10.015625 43.890625 
L 10.015625 52.203125 
Q 14.9375 54.109375 19.578125 55.046875 
Q 24.21875 56 28.609375 56 
Q 40.484375 56 46.34375 49.84375 
Q 52.203125 43.703125 52.203125 31.203125 
z
" id="DejaVuSans-97"/>
      <path d="M 52 44.1875 
Q 55.375 50.25 60.0625 53.125 
Q 64.75 56 71.09375 56 
Q 79.640625 56 84.28125 50.015625 
Q 88.921875 44.046875 88.921875 33.015625 
L 88.921875 0 
L 79.890625 0 
L 79.890625 32.71875 
Q 79.890625 40.578125 77.09375 44.375 
Q 74.3125 48.1875 68.609375 48.1875 
Q 61.625 48.1875 57.5625 43.546875 
Q 53.515625 38.921875 53.515625 30.90625 
L 53.515625 0 
L 44.484375 0 
L 44.484375 32.71875 
Q 44.484375 40.625 41.703125 44.40625 
Q 38.921875 48.1875 33.109375 48.1875 
Q 26.21875 48.1875 22.15625 43.53125 
Q 18.109375 38.875 18.109375 30.90625 
L 18.109375 0 
L 9.078125 0 
L 9.078125 54.6875 
L 18.109375 54.6875 
L 18.109375 46.1875 
Q 21.1875 51.21875 25.484375 53.609375 
Q 29.78125 56 35.6875 56 
Q 41.65625 56 45.828125 52.96875 
Q 50 49.953125 52 44.1875 
z
" id="DejaVuSans-109"/>
      <path d="M 56.203125 29.59375 
L 56.203125 25.203125 
L 14.890625 25.203125 
Q 15.484375 15.921875 20.484375 11.0625 
Q 25.484375 6.203125 34.421875 6.203125 
Q 39.59375 6.203125 44.453125 7.46875 
Q 49.3125 8.734375 54.109375 11.28125 
L 54.109375 2.78125 
Q 49.265625 0.734375 44.1875 -0.34375 
Q 39.109375 -1.421875 33.890625 -1.421875 
Q 20.796875 -1.421875 13.15625 6.1875 
Q 5.515625 13.8125 5.515625 26.8125 
Q 5.515625 40.234375 12.765625 48.109375 
Q 20.015625 56 32.328125 56 
Q 43.359375 56 49.78125 48.890625 
Q 56.203125 41.796875 56.203125 29.59375 
z
M 47.21875 32.234375 
Q 47.125 39.59375 43.09375 43.984375 
Q 39.0625 48.390625 32.421875 48.390625 
Q 24.90625 48.390625 20.390625 44.140625 
Q 15.875 39.890625 15.1875 32.171875 
z
" id="DejaVuSans-101"/>
      <path d="M 45.40625 46.390625 
L 45.40625 75.984375 
L 54.390625 75.984375 
L 54.390625 0 
L 45.40625 0 
L 45.40625 8.203125 
Q 42.578125 3.328125 38.25 0.953125 
Q 33.9375 -1.421875 27.875 -1.421875 
Q 17.96875 -1.421875 11.734375 6.484375 
Q 5.515625 14.40625 5.515625 27.296875 
Q 5.515625 40.1875 11.734375 48.09375 
Q 17.96875 56 27.875 56 
Q 33.9375 56 38.25 53.625 
Q 42.578125 51.265625 45.40625 46.390625 
z
M 14.796875 27.296875 
Q 14.796875 17.390625 18.875 11.75 
Q 22.953125 6.109375 30.078125 6.109375 
Q 37.203125 6.109375 41.296875 11.75 
Q 45.40625 17.390625 45.40625 27.296875 
Q 45.40625 37.203125 41.296875 42.84375 
Q 37.203125 48.484375 30.078125 48.484375 
Q 22.953125 48.484375 18.875 42.84375 
Q 14.796875 37.203125 14.796875 27.296875 
z
" id="DejaVuSans-100"/>
      <path id="DejaVuSans-32"/>
      <path d="M 64.40625 67.28125 
L 64.40625 56.890625 
Q 59.421875 61.53125 53.78125 63.8125 
Q 48.140625 66.109375 41.796875 66.109375 
Q 29.296875 66.109375 22.65625 58.46875 
Q 16.015625 50.828125 16.015625 36.375 
Q 16.015625 21.96875 22.65625 14.328125 
Q 29.296875 6.6875 41.796875 6.6875 
Q 48.140625 6.6875 53.78125 8.984375 
Q 59.421875 11.28125 64.40625 15.921875 
L 64.40625 5.609375 
Q 59.234375 2.09375 53.4375 0.328125 
Q 47.65625 -1.421875 41.21875 -1.421875 
Q 24.65625 -1.421875 15.125 8.703125 
Q 5.609375 18.84375 5.609375 36.375 
Q 5.609375 53.953125 15.125 64.078125 
Q 24.65625 74.21875 41.21875 74.21875 
Q 47.75 74.21875 53.53125 72.484375 
Q 59.328125 70.75 64.40625 67.28125 
z
" id="DejaVuSans-67"/>
      <path d="M 9.421875 75.984375 
L 18.40625 75.984375 
L 18.40625 0 
L 9.421875 0 
z
" id="DejaVuSans-108"/>
      <path d="M 19.671875 64.796875 
L 19.671875 8.109375 
L 31.59375 8.109375 
Q 46.6875 8.109375 53.6875 14.9375 
Q 60.6875 21.78125 60.6875 36.53125 
Q 60.6875 51.171875 53.6875 57.984375 
Q 46.6875 64.796875 31.59375 64.796875 
z
M 9.8125 72.90625 
L 30.078125 72.90625 
Q 51.265625 72.90625 61.171875 64.09375 
Q 71.09375 55.28125 71.09375 36.53125 
Q 71.09375 17.671875 61.125 8.828125 
Q 51.171875 0 30.078125 0 
L 9.8125 0 
z
" id="DejaVuSans-68"/>
      <path d="M 18.3125 70.21875 
L 18.3125 54.6875 
L 36.8125 54.6875 
L 36.8125 47.703125 
L 18.3125 47.703125 
L 18.3125 18.015625 
Q 18.3125 11.328125 20.140625 9.421875 
Q 21.96875 7.515625 27.59375 7.515625 
L 36.8125 7.515625 
L 36.8125 0 
L 27.59375 0 
Q 17.1875 0 13.234375 3.875 
Q 9.28125 7.765625 9.28125 18.015625 
L 9.28125 47.703125 
L 2.6875 47.703125 
L 2.6875 54.6875 
L 9.28125 54.6875 
L 9.28125 70.21875 
z
" id="DejaVuSans-116"/>
      <path d="M 54.890625 33.015625 
L 54.890625 0 
L 45.90625 0 
L 45.90625 32.71875 
Q 45.90625 40.484375 42.875 44.328125 
Q 39.84375 48.1875 33.796875 48.1875 
Q 26.515625 48.1875 22.3125 43.546875 
Q 18.109375 38.921875 18.109375 30.90625 
L 18.109375 0 
L 9.078125 0 
L 9.078125 75.984375 
L 18.109375 75.984375 
L 18.109375 46.1875 
Q 21.34375 51.125 25.703125 53.5625 
Q 30.078125 56 35.796875 56 
Q 45.21875 56 50.046875 50.171875 
Q 54.890625 44.34375 54.890625 33.015625 
z
" id="DejaVuSans-104"/>
     </defs>
     <use xlink:href="#DejaVuSans-80"/>
     <use x="58.552734" xlink:href="#DejaVuSans-114"/>
     <use x="97.416016" xlink:href="#DejaVuSans-111"/>
     <use x="158.597656" xlink:href="#DejaVuSans-103"/>
     <use x="222.074219" xlink:href="#DejaVuSans-114"/>
     <use x="263.1875" xlink:href="#DejaVuSans-97"/>
     <use x="324.466797" xlink:href="#DejaVuSans-109"/>
     <use x="421.878906" xlink:href="#DejaVuSans-109"/>
     <use x="519.291016" xlink:href="#DejaVuSans-101"/>
     <use x="580.814453" xlink:href="#DejaVuSans-100"/>
     <use x="644.291016" xlink:href="#DejaVuSans-32"/>
     <use x="676.078125" xlink:href="#DejaVuSans-67"/>
     <use x="745.902344" xlink:href="#DejaVuSans-101"/>
     <use x="807.425781" xlink:href="#DejaVuSans-108"/>
     <use x="835.208984" xlink:href="#DejaVuSans-108"/>
     <use x="862.992188" xlink:href="#DejaVuSans-32"/>
     <use x="894.779297" xlink:href="#DejaVuSans-68"/>
     <use x="971.78125" xlink:href="#DejaVuSans-101"/>
     <use x="1033.304688" xlink:href="#DejaVuSans-97"/>
     <use x="1094.583984" xlink:href="#DejaVuSans-116"/>
     <use x="1133.792969" xlink:href="#DejaVuSans-104"/>
    </g>
   </g>
   <g id="legend_1">
    <g id="patch_7">
     <path d="M 325.520312 78.194375 
L 414.2 78.194375 
Q 416.2 78.194375 416.2 76.194375 
L 416.2 33.16 
Q 416.2 31.16 414.2 31.16 
L 325.520312 31.16 
Q 323.520312 31.16 323.520312 33.16 
L 323.520312 76.194375 
Q 323.520312 78.194375 325.520312 78.194375 
z
" style="fill:#ffffff;opacity:0.8;stroke:#cccccc;stroke-linejoin:miter;"/>
    </g>
    <g id="LineCollection_4">
     <path d="M 337.520312 44.258437 
L 337.520312 34.258437 
" style="fill:none;stroke:#90ee90;stroke-width:2;"/>
    </g>
    <g id="line2d_20">
     <path d="M 327.520312 39.258437 
L 347.520312 39.258437 
" style="fill:none;stroke:#32cd32;stroke-linecap:square;stroke-width:2;"/>
    </g>
    <g id="line2d_21"/>
    <g id="text_17">
     <!-- Not Drivers -->
     <g transform="translate(355.520312 42.758437)scale(0.1 -0.1)">
      <defs>
       <path d="M 9.8125 72.90625 
L 23.09375 72.90625 
L 55.421875 11.921875 
L 55.421875 72.90625 
L 64.984375 72.90625 
L 64.984375 0 
L 51.703125 0 
L 19.390625 60.984375 
L 19.390625 0 
L 9.8125 0 
z
" id="DejaVuSans-78"/>
       <path d="M 9.421875 54.6875 
L 18.40625 54.6875 
L 18.40625 0 
L 9.421875 0 
z
M 9.421875 75.984375 
L 18.40625 75.984375 
L 18.40625 64.59375 
L 9.421875 64.59375 
z
" id="DejaVuSans-105"/>
       <path d="M 2.984375 54.6875 
L 12.5 54.6875 
L 29.59375 8.796875 
L 46.6875 54.6875 
L 56.203125 54.6875 
L 35.6875 0 
L 23.484375 0 
z
" id="DejaVuSans-118"/>
       <path d="M 44.28125 53.078125 
L 44.28125 44.578125 
Q 40.484375 46.53125 36.375 47.5 
Q 32.28125 48.484375 27.875 48.484375 
Q 21.1875 48.484375 17.84375 46.4375 
Q 14.5 44.390625 14.5 40.28125 
Q 14.5 37.15625 16.890625 35.375 
Q 19.28125 33.59375 26.515625 31.984375 
L 29.59375 31.296875 
Q 39.15625 29.25 43.1875 25.515625 
Q 47.21875 21.78125 47.21875 15.09375 
Q 47.21875 7.46875 41.1875 3.015625 
Q 35.15625 -1.421875 24.609375 -1.421875 
Q 20.21875 -1.421875 15.453125 -0.5625 
Q 10.6875 0.296875 5.421875 2 
L 5.421875 11.28125 
Q 10.40625 8.6875 15.234375 7.390625 
Q 20.0625 6.109375 24.8125 6.109375 
Q 31.15625 6.109375 34.5625 8.28125 
Q 37.984375 10.453125 37.984375 14.40625 
Q 37.984375 18.0625 35.515625 20.015625 
Q 33.0625 21.96875 24.703125 23.78125 
L 21.578125 24.515625 
Q 13.234375 26.265625 9.515625 29.90625 
Q 5.8125 33.546875 5.8125 39.890625 
Q 5.8125 47.609375 11.28125 51.796875 
Q 16.75 56 26.8125 56 
Q 31.78125 56 36.171875 55.265625 
Q 40.578125 54.546875 44.28125 53.078125 
z
" id="DejaVuSans-115"/>
      </defs>
      <use xlink:href="#DejaVuSans-78"/>
      <use x="74.804688" xlink:href="#DejaVuSans-111"/>
      <use x="135.986328" xlink:href="#DejaVuSans-116"/>
      <use x="175.195312" xlink:href="#DejaVuSans-32"/>
      <use x="206.982422" xlink:href="#DejaVuSans-68"/>
      <use x="283.984375" xlink:href="#DejaVuSans-114"/>
      <use x="325.097656" xlink:href="#DejaVuSans-105"/>
      <use x="352.880859" xlink:href="#DejaVuSans-118"/>
      <use x="412.060547" xlink:href="#DejaVuSans-101"/>
      <use x="473.583984" xlink:href="#DejaVuSans-114"/>
      <use x="514.697266" xlink:href="#DejaVuSans-115"/>
     </g>
    </g>
    <g id="LineCollection_5">
     <path d="M 337.520312 58.936562 
L 337.520312 48.936562 
" style="fill:none;stroke:#87ceeb;stroke-width:2;"/>
    </g>
    <g id="line2d_22">
     <path d="M 327.520312 53.936562 
L 347.520312 53.936562 
" style="fill:none;stroke:#0000ff;stroke-linecap:square;stroke-width:2;"/>
    </g>
    <g id="line2d_23"/>
    <g id="text_18">
     <!-- Hubs -->
     <g transform="translate(355.520312 57.436562)scale(0.1 -0.1)">
      <defs>
       <path d="M 9.8125 72.90625 
L 19.671875 72.90625 
L 19.671875 43.015625 
L 55.515625 43.015625 
L 55.515625 72.90625 
L 65.375 72.90625 
L 65.375 0 
L 55.515625 0 
L 55.515625 34.71875 
L 19.671875 34.71875 
L 19.671875 0 
L 9.8125 0 
z
" id="DejaVuSans-72"/>
       <path d="M 8.5 21.578125 
L 8.5 54.6875 
L 17.484375 54.6875 
L 17.484375 21.921875 
Q 17.484375 14.15625 20.5 10.265625 
Q 23.53125 6.390625 29.59375 6.390625 
Q 36.859375 6.390625 41.078125 11.03125 
Q 45.3125 15.671875 45.3125 23.6875 
L 45.3125 54.6875 
L 54.296875 54.6875 
L 54.296875 0 
L 45.3125 0 
L 45.3125 8.40625 
Q 42.046875 3.421875 37.71875 1 
Q 33.40625 -1.421875 27.6875 -1.421875 
Q 18.265625 -1.421875 13.375 4.4375 
Q 8.5 10.296875 8.5 21.578125 
z
M 31.109375 56 
z
" id="DejaVuSans-117"/>
       <path d="M 48.6875 27.296875 
Q 48.6875 37.203125 44.609375 42.84375 
Q 40.53125 48.484375 33.40625 48.484375 
Q 26.265625 48.484375 22.1875 42.84375 
Q 18.109375 37.203125 18.109375 27.296875 
Q 18.109375 17.390625 22.1875 11.75 
Q 26.265625 6.109375 33.40625 6.109375 
Q 40.53125 6.109375 44.609375 11.75 
Q 48.6875 17.390625 48.6875 27.296875 
z
M 18.109375 46.390625 
Q 20.953125 51.265625 25.265625 53.625 
Q 29.59375 56 35.59375 56 
Q 45.5625 56 51.78125 48.09375 
Q 58.015625 40.1875 58.015625 27.296875 
Q 58.015625 14.40625 51.78125 6.484375 
Q 45.5625 -1.421875 35.59375 -1.421875 
Q 29.59375 -1.421875 25.265625 0.953125 
Q 20.953125 3.328125 18.109375 8.203125 
L 18.109375 0 
L 9.078125 0 
L 9.078125 75.984375 
L 18.109375 75.984375 
z
" id="DejaVuSans-98"/>
      </defs>
      <use xlink:href="#DejaVuSans-72"/>
      <use x="75.195312" xlink:href="#DejaVuSans-117"/>
      <use x="138.574219" xlink:href="#DejaVuSans-98"/>
      <use x="202.050781" xlink:href="#DejaVuSans-115"/>
     </g>
    </g>
    <g id="LineCollection_6">
     <path d="M 337.520312 73.614687 
L 337.520312 63.614687 
" style="fill:none;stroke:#f08080;"/>
    </g>
    <g id="line2d_24">
     <path d="M 327.520312 68.614687 
L 347.520312 68.614687 
" style="fill:none;stroke:#ff0000;stroke-linecap:square;stroke-width:2;"/>
    </g>
    <g id="line2d_25"/>
    <g id="text_19">
     <!-- Drivers -->
     <g transform="translate(355.520312 72.114687)scale(0.1 -0.1)">
      <use xlink:href="#DejaVuSans-68"/>
      <use x="77.001953" xlink:href="#DejaVuSans-114"/>
      <use x="118.115234" xlink:href="#DejaVuSans-105"/>
      <use x="145.898438" xlink:href="#DejaVuSans-118"/>
      <use x="205.078125" xlink:href="#DejaVuSans-101"/>
      <use x="266.601562" xlink:href="#DejaVuSans-114"/>
      <use x="307.714844" xlink:href="#DejaVuSans-115"/>
     </g>
    </g>
   </g>
  </g>
 </g>
 <defs>
  <clipPath id="pffdd6f2e12">
   <rect height="305.96" width="374.825" x="46.375" y="26.16"/>
  </clipPath>
 </defs>
</svg>
